{
.appVersion = "3310";
copyright = "Copyright 2010 Google Inc. All Rights Reserved.";
customParameters = (
{
name = glyphOrder;
value = (
.notdef,
null,
nonmarkingreturn,
space,
exclam,
quotedbl,
numbersign,
dollar,
percent,
ampersand,
quotesingle,
parenleft,
parenright,
asterisk,
plus,
comma,
hyphen,
period,
slash,
zero,
one,
two,
three,
four,
five,
six,
seven,
eight,
nine,
colon,
semicolon,
less,
equal,
greater,
question,
at,
A,
B,
C,
D,
E,
F,
G,
H,
I,
J,
K,
L,
M,
N,
O,
P,
Q,
R,
S,
T,
U,
V,
W,
X,
Y,
Z,
bracketleft,
backslash,
bracketright,
asciicircum,
underscore,
grave,
a,
b,
c,
d,
e,
f,
g,
h,
i,
j,
k,
l,
m,
n,
o,
p,
q,
r,
s,
t,
u,
v,
w,
x,
y,
z,
braceleft,
bar,
braceright,
asciitilde,
Adieresis,
Aring,
Ccedilla,
Eacute,
Ntilde,
Odieresis,
Udieresis,
aacute,
agrave,
acircumflex,
adieresis,
atilde,
aring,
ccedilla,
eacute,
egrave,
ecircumflex,
edieresis,
iacute,
igrave,
icircumflex,
idieresis,
ntilde,
oacute,
ograve,
ocircumflex,
odieresis,
otilde,
uacute,
ugrave,
ucircumflex,
udieresis,
dagger,
degree,
cent,
sterling,
section,
bullet,
paragraph,
germandbls,
registered,
copyright,
trademark,
acute,
dieresis,
notequal,
AE,
Oslash,
infinity,
plusminus,
lessequal,
greaterequal,
yen,
uni00B5,
partialdiff,
summation,
product,
integral,
ordfeminine,
ordmasculine,
uni2126,
ae,
oslash,
questiondown,
exclamdown,
logicalnot,
radical,
florin,
approxequal,
uni2206,
guillemotleft,
guillemotright,
ellipsis,
Agrave,
Atilde,
Otilde,
OE,
oe,
endash,
emdash,
quotedblleft,
quotedblright,
quoteleft,
quoteright,
divide,
lozenge,
ydieresis,
Ydieresis,
fraction,
Euro,
guilsinglleft,
guilsinglright,
uniFB01,
uniFB02,
daggerdbl,
periodcentered,
quotesinglbase,
quotedblbase,
perthousand,
Acircumflex,
Ecircumflex,
Aacute,
Edieresis,
Egrave,
Iacute,
Icircumflex,
Idieresis,
Igrave,
Oacute,
Ocircumflex,
Ograve,
Uacute,
Ucircumflex,
Ugrave,
dotlessi,
circumflex,
tilde,
uni02C9,
breve,
dotaccent,
ring,
cedilla,
hungarumlaut,
ogonek,
caron,
Lslash,
lslash,
Scaron,
scaron,
Zcaron,
zcaron,

glyphs = (
{
glyphname = .notdef;
lastChange = "2025-02-05 21:33:40 +0000";
layers = (
{
layerId = "E3E67A92-B1FB-4433-B88A-D288516649AC";
paths = (
{
closed = 1;
nodes = (
"234 0 LINE",
"1359 0 LINE",
"1359 1409 LINE",
"234 1409 LINE"
);
},
{
closed = 1;
nodes = (
"1283 1333 LINE",
"1283 76 LINE",
"310 76 LINE",
"310 1333 LINE"
);
}
);
width = 1593;
}
);
note = .notdef;
},
{
glyphname = exclam;
lastChange = "2025-02-05 21:33:40 +0000";
layers = (
{
layerId = "E3E67A92-B1FB-4433-B88A-D288516649AC";
paths = (
{
closed = 1;
nodes = (
"461 160 OFFCURVE",
"408 213 OFFCURVE",
"340 213 CURVE SMOOTH",
"272 213 OFFCURVE",
"219 160 OFFCURVE",
"219 92 CURVE SMOOTH",
"219 27 OFFCURVE",
"271 -29 OFFCURVE",
"340 -29 CURVE SMOOTH",
"409 -29 OFFCURVE",
"461 27 OFFCURVE",
"461 92 CURVE SMOOTH"
);
},
{
closed = 1;
nodes = (
"293 389 LINE",
"387 389 LINE",
"449 1341 LINE",
"231 1341 LINE"
);
}
);
width = 682;
}
);
note = exclam;
unicode = 0021;
},
{
glyphname = quotedbl;
lastChange = "2025-02-05 21:33:40 +0000";
layers = (
{
layerId = "E3E67A92-B1FB-4433-B88A-D288516649AC";
paths = (
{
closed = 1;
nodes = (
"573 860 LINE",
"647 860 LINE",
"709 1341 LINE",
"512 1341 LINE"
);
},
{
closed = 1;
nodes = (
"188 860 LINE",
"262 860 LINE",
"324 1341 LINE",
"127 1341 LINE"
);
}
);
width = 836;
}
);
note = quotedbl;
unicode = 0022;
},
{
glyphname = numbersign;
lastChange = "2025-02-05 21:33:40 +0000";
layers = (
{
layerId = "E3E67A92-B1FB-4433-B88A-D288516649AC";
paths = (
{
closed = 1;
nodes = (
"748 524 LINE",
"805 831 LINE",
"987 831 LINE",
"987 934 LINE",
"823 934 LINE",
"899 1341 LINE",
"795 1341 LINE",
"719 934 LINE",
"410 934 LINE",
"485 1341 LINE",
"381 1341 LINE",
"305 934 LINE",
"37 934 LINE",
"37 831 LINE",
"287 831 LINE",
"229 524 LINE",
"37 524 LINE",
"37 422 LINE",
"209 422 LINE",
"131 0 LINE",
"236 0 LINE",
"313 422 LINE",
"623 422 LINE",
"545 0 LINE",
"649 0 LINE",
"727 422 LINE",
"987 422 LINE",
"987 524 LINE"
);
},
{
closed = 1;
nodes = (
"391 831 LINE",
"700 831 LINE",
"643 524 LINE",
"334 524 LINE"
);
}
);
width = 1024;
}
);
note = numbersign;
unicode = 0023;
},
{
glyphname = dollar;
lastChange = "2025-02-05 21:33:40 +0000";
layers = (
{
layerId = "E3E67A92-B1FB-4433-B88A-D288516649AC";
paths = (
{
closed = 1;
nodes = (
"481 -156 LINE",
"563 -156 LINE",
"563 -16 LINE",
"807 1 OFFCURVE",
"961 154 OFFCURVE",
"961 387 CURVE SMOOTH",
"961 566 OFFCURVE",
"878 680 OFFCURVE",
"658 761 CURVE SMOOTH",
"563 795 LINE",
"563 1272 LINE",
"646 1267 OFFCURVE",
"736 1235 OFFCURVE",
"776 1198 CURVE",
"805 1034 LINE",
"870 1034 LINE",
"870 1313 LINE",
"767 1338 OFFCURVE",
"665 1352 OFFCURVE",
"563 1356 CURVE",
"563 1483 LINE",
"481 1483 LINE",
"481 1354 LINE",
"254 1335 OFFCURVE",
"106 1206 OFFCURVE",
"106 1014 CURVE SMOOTH",
"106 890 OFFCURVE",
"151 803 OFFCURVE",
"228 744 CURVE SMOOTH",
"253 725 OFFCURVE",
"282 707 OFFCURVE",
"314 692 CURVE SMOOTH",
"346 676 OFFCURVE",
"402 654 OFFCURVE",
"481 627 CURVE",
"481 61 LINE",
"362 68 OFFCURVE",
"229 125 OFFCURVE",
"188 180 CURVE",
"154 371 LINE",
"88 371 LINE",
"88 51 LINE",
"161 18 OFFCURVE",
"338 -17 OFFCURVE",
"481 -20 CURVE"
);
},
{
closed = 1;
nodes = (
"791 177 OFFCURVE",
"710 89 OFFCURVE",
"563 66 CURVE",
"563 596 LINE",
"738 529 OFFCURVE",
"791 455 OFFCURVE",
"791 330 CURVE SMOOTH"
);
},
{
closed = 1;
nodes = (
"274 1176 OFFCURVE",
"348 1251 OFFCURVE",
"481 1268 CURVE",
"481 825 LINE",
"356 877 OFFCURVE",
"320 911 OFFCURVE",
"294 967 CURVE SMOOTH",
"281 994 OFFCURVE",
"274 1028 OFFCURVE",
"274 1067 CURVE SMOOTH"
);
}
);
width = 1024;
}
);
note = dollar;
unicode = 0024;
},
{
glyphname = percent;
lastChange = "2025-02-05 21:33:40 +0000";
layers = (
{
layerId = "E3E67A92-B1FB-4433-B88A-D288516649AC";
paths = (
{
closed = 1;
nodes = (
"1389 1362 LINE",
"1278 1362 LINE",
"330 -20 LINE",
"440 -20 LINE"
);
},
{
closed = 1;
nodes = (
"721 1239 OFFCURVE",
"609 1362 OFFCURVE",
"397 1362 CURVE SMOOTH",
"179 1362 OFFCURVE",
"70 1240 OFFCURVE",
"70 995 CURVE SMOOTH",
"70 752 OFFCURVE",
"176 623 OFFCURVE",
"391 623 CURVE SMOOTH",
"611 623 OFFCURVE",
"721 747 OFFCURVE",
"721 995 CURVE SMOOTH"
);
},
{
closed = 1;
nodes = (
"565 787 OFFCURVE",
"511 696 OFFCURVE",
"391 696 CURVE SMOOTH",
"276 696 OFFCURVE",
"225 776 OFFCURVE",
"225 995 CURVE SMOOTH",
"225 1208 OFFCURVE",
"275 1288 OFFCURVE",
"391 1288 CURVE SMOOTH",
"512 1288 OFFCURVE",
"565 1198 OFFCURVE",
"565 995 CURVE SMOOTH"
);
},
{
closed = 1;
nodes = (
"1636 590 OFFCURVE",
"1525 713 OFFCURVE",
"1313 713 CURVE SMOOTH",
"1092 713 OFFCURVE",
"985 583 OFFCURVE",
"985 346 CURVE SMOOTH",
"985 102 OFFCURVE",
"1092 -27 OFFCURVE",
"1307 -27 CURVE SMOOTH",
"1526 -27 OFFCURVE",
"1636 97 OFFCURVE",
"1636 346 CURVE SMOOTH"
);
},
{
closed = 1;
nodes = (
"1481 138 OFFCURVE",
"1427 47 OFFCURVE",
"1307 47 CURVE SMOOTH",
"1192 47 OFFCURVE",
"1141 127 OFFCURVE",
"1141 346 CURVE SMOOTH",
"1141 559 OFFCURVE",
"1191 639 OFFCURVE",
"1307 639 CURVE SMOOTH",
"1428 639 OFFCURVE",
"1481 549 OFFCURVE",
"1481 346 CURVE SMOOTH"
);
}
);
width = 1706;
}
);
note = percent;
unicode = 0025;
},
{
glyphname = ampersand;
lastChange = "2025-02-05 21:33:40 +0000";
layers = (
{
layerId = "E3E67A92-B1FB-4433-B88A-D288516649AC";
paths = (
{
closed = 1;
nodes = (
"989 1266 OFFCURVE",
"863 1362 OFFCURVE",
"631 1362 CURVE SMOOTH",
"388 1362 OFFCURVE",
"257 1261 OFFCURVE",
"257 1070 CURVE SMOOTH",
"257 949 OFFCURVE",
"307 840 OFFCURVE",
"408 743 CURVE",
"229 675 OFFCURVE",
"162 616 OFFCURVE",
"114 523 CURVE SMOOTH",
"90 476 OFFCURVE",
"78 421 OFFCURVE",
"78 356 CURVE SMOOTH",
"78 112 OFFCURVE",
"244 -20 OFFCURVE",
"575 -20 CURVE SMOOTH",
"755 -20 OFFCURVE",
"902 31 OFFCURVE",
"1041 155 CURVE",
"1212 0 LINE",
"1556 0 LINE",
"1556 53 LINE",
"1391 78 LINE",
"1163 286 LINE",
"1242 403 OFFCURVE",
"1307 550 OFFCURVE",
"1358 727 CURVE",
"1497 754 LINE",
"1497 807 LINE",
"1040 807 LINE",
"1040 754 LINE",
"1182 727 LINE",
"1178 617 OFFCURVE",
"1144 496 OFFCURVE",
"1079 364 CURVE",
"657 748 LINE",
"848 823 OFFCURVE",
"911 872 OFFCURVE",
"956 948 CURVE SMOOTH",
"978 986 OFFCURVE",
"989 1031 OFFCURVE",
"989 1083 CURVE SMOOTH"
);
},
{
closed = 1;
nodes = (
"390 66 OFFCURVE",
"274 174 OFFCURVE",
"274 367 CURVE SMOOTH",
"274 514 OFFCURVE",
"333 616 OFFCURVE",
"473 676 CURVE",
"972 219 LINE",
"870 117 OFFCURVE",
"747 66 OFFCURVE",
"602 66 CURVE SMOOTH"
);
},
{
closed = 1;
nodes = (
"434 1218 OFFCURVE",
"491 1282 OFFCURVE",
"631 1282 CURVE SMOOTH",
"752 1282 OFFCURVE",
"813 1218 OFFCURVE",
"813 1090 CURVE SMOOTH",
"813 991 OFFCURVE",
"784 928 OFFCURVE",
"728 882 CURVE SMOOTH",
"699 859 OFFCURVE",
"653 835 OFFCURVE",
"588 811 CURVE",
"485 888 OFFCURVE",
"434 981 OFFCURVE",
"434 1090 CURVE SMOOTH"
);
}
);
width = 1593;
}
);
note = ampersand;
unicode = 0026;
},
{
glyphname = quotesingle;
lastChange = "2025-02-05 21:33:40 +0000";
layers = (
{
layerId = "E3E67A92-B1FB-4433-B88A-D288516649AC";
paths = (
{
closed = 1;
nodes = (
"147 860 LINE",
"221 860 LINE",
"283 1341 LINE",
"86 1341 LINE"
);
}
);
width = 369;
}
);
note = quotesingle;
unicode = 0027;
},
{
glyphname = parenleft;
lastChange = "2025-02-05 21:33:40 +0000";
layers = (
{
layerId = "E3E67A92-B1FB-4433-B88A-D288516649AC";
paths = (
{
closed = 1;
nodes = (
"283 843 OFFCURVE",
"326 1012 OFFCURVE",
"422 1158 CURVE SMOOTH",
"470 1231 OFFCURVE",
"535 1290 OFFCURVE",
"616 1337 CURVE",
"616 1421 LINE",
"349 1280 OFFCURVE",
"211 1123 OFFCURVE",
"142 900 CURVE SMOOTH",
"107 788 OFFCURVE",
"90 653 OFFCURVE",
"90 494 CURVE SMOOTH",
"90 175 OFFCURVE",
"158 -40 OFFCURVE",
"307 -206 CURVE SMOOTH",
"381 -289 OFFCURVE",
"484 -366 OFFCURVE",
"616 -436 CURVE",
"616 -352 LINE",
"465 -265 OFFCURVE",
"365 -126 OFFCURVE",
"318 80 CURVE SMOOTH",
"295 183 OFFCURVE",
"283 321 OFFCURVE",
"283 494 CURVE SMOOTH"
);
}
);
width = 682;
}
);
note = parenleft;
unicode = 0028;
},
{
glyphname = parenright;
lastChange = "2025-02-05 21:33:40 +0000";
layers = (
{
layerId = "E3E67A92-B1FB-4433-B88A-D288516649AC";
paths = (
{
closed = 1;
nodes = (
"333 -293 OFFCURVE",
"471 -137 OFFCURVE",
"540 88 CURVE SMOOTH",
"575 200 OFFCURVE",
"592 335 OFFCURVE",
"592 494 CURVE SMOOTH",
"592 811 OFFCURVE",
"525 1026 OFFCURVE",
"377 1191 CURVE SMOOTH",
"303 1273 OFFCURVE",
"199 1350 OFFCURVE",
"66 1421 CURVE",
"66 1337 LINE",
"229 1244 OFFCURVE",
"321 1097 OFFCURVE",
"366 902 CURVE SMOOTH",
"388 805 OFFCURVE",
"399 669 OFFCURVE",
"399 494 CURVE SMOOTH",
"399 149 OFFCURVE",
"354 -38 OFFCURVE",
"254 -180 CURVE SMOOTH",
"204 -251 OFFCURVE",
"141 -309 OFFCURVE",
"66 -352 CURVE",
"66 -436 LINE"
);
}
);
width = 682;
}
);
note = parenright;
unicode = 0029;
},
{
glyphname = asterisk;
lastChange = "2025-02-05 21:33:40 +0000";
layers = (
{
layerId = "E3E67A92-B1FB-4433-B88A-D288516649AC";
paths = (
{
closed = 1;
nodes = (
"428 965 LINE",
"100 866 LINE",
"164 723 LINE",
"479 918 LINE",
"436 590 LINE",
"592 590 LINE",
"545 915 LINE",
"862 727 LINE",
"926 868 LINE",
"594 965 LINE",
"926 1063 LINE",
"862 1204 LINE",
"545 1014 LINE",
"592 1341 LINE",
"436 1341 LINE",
"479 1014 LINE",
"164 1208 LINE",
"100 1065 LINE"
);
}
);
width = 1024;
}
);
note = asterisk;
unicode = 002A;
},
{
glyphname = plus;
lastChange = "2025-02-05 21:33:40 +0000";
layers = (
{
layerId = "E3E67A92-B1FB-4433-B88A-D288516649AC";
paths = (
{
closed = 1;
nodes = (
"1055 629 LINE",
"1055 731 LINE",
"629 731 LINE",
"629 1157 LINE",
"526 1157 LINE",
"526 731 LINE",
"102 731 LINE",
"102 629 LINE",
"526 629 LINE",
"526 203 LINE",
"629 203 LINE",
"629 629 LINE"
);
}
);
width = 1155;
}
);
note = plus;
unicode = 002B;
},
{
glyphname = comma;
lastChange = "2025-02-05 21:33:40 +0000";
layers = (
{
layerId = "E3E67A92-B1FB-4433-B88A-D288516649AC";
paths = (
{
closed = 1;
nodes = (
"383 142 OFFCURVE",
"325 211 OFFCURVE",
"240 211 CURVE SMOOTH",
"169 211 OFFCURVE",
"119 172 OFFCURVE",
"119 100 CURVE SMOOTH",
"119 57 OFFCURVE",
"142 24 OFFCURVE",
"187 1 CURVE SMOOTH",
"236 -24 OFFCURVE",
"254 -43 OFFCURVE",
"254 -70 CURVE SMOOTH",
"254 -145 OFFCURVE",
"195 -201 OFFCURVE",
"78 -238 CURVE",
"78 -315 LINE",
"273 -259 OFFCURVE",
"383 -134 OFFCURVE",
"383 49 CURVE SMOOTH"
);
}
);
width = 512;
}
);
note = comma;
unicode = 002C;
},
{
glyphname = hyphen;
lastChange = "2025-02-05 21:33:40 +0000";
layers = (
{
layerId = "E3E67A92-B1FB-4433-B88A-D288516649AC";
paths = (
{
closed = 1;
nodes = (
"608 406 LINE",
"608 559 LINE",
"76 559 LINE",
"76 406 LINE"
);
}
);
width = 682;
}
);
note = hyphen;
unicode = "002D,00AD";
},
{
glyphname = period;
lastChange = "2025-02-05 21:33:40 +0000";
layers = (
{
layerId = "E3E67A92-B1FB-4433-B88A-D288516649AC";
paths = (
{
closed = 1;
nodes = (
"377 160 OFFCURVE",
"324 213 OFFCURVE",
"256 213 CURVE SMOOTH",
"188 213 OFFCURVE",
"135 160 OFFCURVE",
"135 92 CURVE SMOOTH",
"135 27 OFFCURVE",
"187 -29 OFFCURVE",
"256 -29 CURVE SMOOTH",
"325 -29 OFFCURVE",
"377 27 OFFCURVE",
"377 92 CURVE SMOOTH"
);
}
);
width = 512;
}
);
note = period;
unicode = 002E;
},
{
glyphname = slash;
lastChange = "2025-02-05 21:33:40 +0000";
layers = (
{
layerId = "E3E67A92-B1FB-4433-B88A-D288516649AC";
paths = (
{
closed = 1;
nodes = (
"569 1350 LINE",
"471 1350 LINE",
"0 -20 LINE",
"100 -20 LINE"
);
}
);
width = 569;
}
);
note = slash;
unicode = 002F;
},
{
glyphname = zero;
lastChange = "2025-02-05 21:33:40 +0000";
layers = (
{
layerId = "E3E67A92-B1FB-4433-B88A-D288516649AC";
paths = (
{
closed = 1;
nodes = (
"946 1125 OFFCURVE",
"797 1362 OFFCURVE",
"514 1362 CURVE SMOOTH",
"221 1362 OFFCURVE",
"78 1120 OFFCURVE",
"78 676 CURVE SMOOTH",
"78 223 OFFCURVE",
"223 -20 OFFCURVE",
"506 -20 CURVE SMOOTH",
"799 -20 OFFCURVE",
"946 212 OFFCURVE",
"946 676 CURVE SMOOTH"
);
},
{
closed = 1;
nodes = (
"762 459 OFFCURVE",
"741 302 OFFCURVE",
"700 205 CURVE SMOOTH",
"659 108 OFFCURVE",
"594 59 OFFCURVE",
"506 59 CURVE SMOOTH",
"421 59 OFFCURVE",
"359 105 OFFCURVE",
"320 198 CURVE SMOOTH",
"281 290 OFFCURVE",
"262 449 OFFCURVE",
"262 676 CURVE SMOOTH",
"262 901 OFFCURVE",
"281 1059 OFFCURVE",
"319 1148 CURVE SMOOTH",
"357 1237 OFFCURVE",
"419 1282 OFFCURVE",
"506 1282 CURVE SMOOTH",
"595 1282 OFFCURVE",
"660 1235 OFFCURVE",
"701 1140 CURVE SMOOTH",
"742 1045 OFFCURVE",
"762 891 OFFCURVE",
"762 676 CURVE SMOOTH"
);
}
);
width = 1024;
}
);
note = zero;
unicode = 0030;
},
{
glyphname = one;
lastChange = "2025-02-05 21:33:40 +0000";
layers = (
{
layerId = "E3E67A92-B1FB-4433-B88A-D288516649AC";
paths = (
{
closed = 1;
nodes = (
"627 1352 LINE",
"575 1352 LINE",
"184 1130 LINE",
"184 1077 LINE",
"455 1174 LINE",
"455 80 LINE",
"180 53 LINE",
"180 0 LINE",
"901 0 LINE",
"901 53 LINE",
"627 80 LINE"
);
}
);
width = 1024;
}
);
note = one;
unicode = 0031;
},
{
glyphname = two;
lastChange = "2025-02-05 21:33:40 +0000";
layers = (
{
layerId = "E3E67A92-B1FB-4433-B88A-D288516649AC";
paths = (
{
closed = 1;
nodes = (
"911 154 LINE",
"221 154 LINE",
"288 215 OFFCURVE",
"351 270 OFFCURVE",
"410 321 CURVE SMOOTH",
"687 557 OFFCURVE",
"784 662 OFFCURVE",
"842 795 CURVE SMOOTH",
"871 861 OFFCURVE",
"885 931 OFFCURVE",
"885 1006 CURVE SMOOTH",
"885 1229 OFFCURVE",
"737 1356 OFFCURVE",
"444 1356 CURVE SMOOTH",
"359 1356 OFFCURVE",
"256 1342 OFFCURVE",
"135 1313 CURVE",
"135 1055 LINE",
"201 1055 LINE",
"236 1219 LINE",
"293 1251 OFFCURVE",
"373 1272 OFFCURVE",
"444 1272 CURVE SMOOTH",
"623 1272 OFFCURVE",
"696 1179 OFFCURVE",
"696 1006 CURVE SMOOTH",
"696 829 OFFCURVE",
"651 699 OFFCURVE",
"539 570 CURVE SMOOTH",
"483 505 OFFCURVE",
"395 421 OFFCURVE",
"276 316 CURVE SMOOTH",
"90 147 LINE",
"90 0 LINE",
"911 0 LINE"
);
}
);
width = 1024;
}
);
note = two;
unicode = 0032;
},
{
glyphname = three;
lastChange = "2025-02-05 21:33:40 +0000";
layers = (
{
layerId = "E3E67A92-B1FB-4433-B88A-D288516649AC";
paths = (
{
closed = 1;
nodes = (
"944 564 OFFCURVE",
"833 674 OFFCURVE",
"590 702 CURVE",
"777 729 OFFCURVE",
"883 841 OFFCURVE",
"883 1026 CURVE SMOOTH",
"883 1246 OFFCURVE",
"740 1356 OFFCURVE",
"453 1356 CURVE SMOOTH",
"358 1356 OFFCURVE",
"271 1348 OFFCURVE",
"139 1313 CURVE",
"139 1055 LINE",
"205 1055 LINE",
"240 1219 LINE",
"299 1251 OFFCURVE",
"382 1272 OFFCURVE",
"453 1272 CURVE SMOOTH",
"624 1272 OFFCURVE",
"698 1194 OFFCURVE",
"698 1014 CURVE SMOOTH",
"698 841 OFFCURVE",
"628 758 OFFCURVE",
"477 750 CURVE SMOOTH",
"334 741 LINE",
"334 659 LINE",
"477 651 LINE SMOOTH",
"670 642 OFFCURVE",
"760 551 OFFCURVE",
"760 375 CURVE SMOOTH",
"760 151 OFFCURVE",
"662 63 OFFCURVE",
"453 63 CURVE SMOOTH",
"370 63 OFFCURVE",
"261 88 OFFCURVE",
"209 117 CURVE",
"164 305 LINE",
"98 305 LINE",
"109 23 LINE",
"222 -6 OFFCURVE",
"342 -20 OFFCURVE",
"469 -20 CURVE SMOOTH",
"772 -20 OFFCURVE",
"944 124 OFFCURVE",
"944 365 CURVE SMOOTH"
);
}
);
width = 1024;
}
);
note = three;
unicode = 0033;
},
{
glyphname = four;
lastChange = "2025-02-05 21:33:40 +0000";
layers = (
{
layerId = "E3E67A92-B1FB-4433-B88A-D288516649AC";
paths = (
{
closed = 1;
nodes = (
"992 295 LINE",
"992 438 LINE",
"810 438 LINE",
"810 1348 LINE",
"695 1348 LINE",
"40 428 LINE",
"40 295 LINE",
"638 295 LINE",
"638 0 LINE",
"810 0 LINE",
"810 295 LINE"
);
},
{
closed = 1;
nodes = (
"638 438 LINE",
"153 438 LINE",
"633 1113 LINE",
"638 1113 LINE"
);
}
);
width = 1024;
}
);
note = four;
unicode = 0034;
},
{
glyphname = five;
lastChange = "2025-02-05 21:33:40 +0000";
layers = (
{
layerId = "E3E67A92-B1FB-4433-B88A-D288516649AC";
paths = (
{
closed = 1;
nodes = (
"403 784 OFFCURVE",
"326 776 OFFCURVE",
"254 760 CURVE",
"254 1188 LINE",
"844 1188 LINE",
"844 1341 LINE",
"164 1341 LINE",
"164 676 LINE",
"260 676 LINE",
"318 692 OFFCURVE",
"377 700 OFFCURVE",
"438 700 CURVE SMOOTH",
"595 700 OFFCURVE",
"685 661 OFFCURVE",
"728 577 CURVE SMOOTH",
"749 534 OFFCURVE",
"760 472 OFFCURVE",
"760 389 CURVE SMOOTH",
"760 153 OFFCURVE",
"664 63 OFFCURVE",
"453 63 CURVE SMOOTH",
"378 63 OFFCURVE",
"289 85 OFFCURVE",
"230 117 CURVE",
"185 305 LINE",
"119 305 LINE",
"130 23 LINE",
"229 -6 OFFCURVE",
"342 -20 OFFCURVE",
"469 -20 CURVE SMOOTH",
"774 -20 OFFCURVE",
"944 130 OFFCURVE",
"944 399 CURVE SMOOTH",
"944 659 OFFCURVE",
"794 784 OFFCURVE",
"485 784 CURVE SMOOTH"
);
}
);
width = 1024;
}
);
note = five;
unicode = 0035;
},
{
glyphname = six;
lastChange = "2025-02-05 21:33:40 +0000";
layers = (
{
layerId = "E3E67A92-B1FB-4433-B88A-D288516649AC";
paths = (
{
closed = 1;
nodes = (
"963 667 OFFCURVE",
"836 803 OFFCURVE",
"600 803 CURVE SMOOTH",
"491 803 OFFCURVE",
"382 774 OFFCURVE",
"273 717 CURVE",
"284 1080 OFFCURVE",
"395 1272 OFFCURVE",
"590 1272 CURVE SMOOTH",
"650 1272 OFFCURVE",
"736 1251 OFFCURVE",
"780 1227 CURVE",
"815 1090 LINE",
"881 1090 LINE",
"881 1321 LINE",
"784 1344 OFFCURVE",
"687 1356 OFFCURVE",
"590 1356 CURVE SMOOTH",
"391 1356 OFFCURVE",
"235 1244 OFFCURVE",
"151 1035 CURVE SMOOTH",
"109 930 OFFCURVE",
"88 806 OFFCURVE",
"88 662 CURVE SMOOTH",
"88 222 OFFCURVE",
"252 -20 OFFCURVE",
"553 -20 CURVE SMOOTH",
"818 -20 OFFCURVE",
"963 137 OFFCURVE",
"963 416 CURVE SMOOTH"
);
},
{
closed = 1;
nodes = (
"456 59 OFFCURVE",
"387 108 OFFCURVE",
"341 206 CURVE SMOOTH",
"295 303 OFFCURVE",
"272 454 OFFCURVE",
"272 657 CURVE",
"375 690 OFFCURVE",
"472 707 OFFCURVE",
"563 707 CURVE SMOOTH",
"712 707 OFFCURVE",
"778 616 OFFCURVE",
"778 397 CURVE SMOOTH",
"778 156 OFFCURVE",
"710 59 OFFCURVE",
"549 59 CURVE SMOOTH"
);
}
);
width = 1024;
}
);
note = six;
unicode = 0036;
},
{
glyphname = seven;
lastChange = "2025-02-05 21:33:40 +0000";
layers = (
{
layerId = "E3E67A92-B1FB-4433-B88A-D288516649AC";
paths = (
{
closed = 1;
nodes = (
"236 1188 LINE",
"825 1188 LINE",
"238 0 LINE",
"367 0 LINE",
"965 1264 LINE",
"965 1341 LINE",
"135 1341 LINE",
"135 1024 LINE",
"201 1024 LINE"
);
}
);
width = 1024;
}
);
note = seven;
unicode = 0037;
},
{
glyphname = eight;
lastChange = "2025-02-05 21:33:40 +0000";
layers = (
{
layerId = "E3E67A92-B1FB-4433-B88A-D288516649AC";
paths = (
{
closed = 1;
nodes = (
"905 1237 OFFCURVE",
"762 1362 OFFCURVE",
"514 1362 CURVE SMOOTH",
"258 1362 OFFCURVE",
"119 1235 OFFCURVE",
"119 1014 CURVE SMOOTH",
"119 866 OFFCURVE",
"199 764 OFFCURVE",
"315 711 CURVE",
"170 656 OFFCURVE",
"78 539 OFFCURVE",
"78 362 CURVE SMOOTH",
"78 107 OFFCURVE",
"221 -20 OFFCURVE",
"506 -20 CURVE SMOOTH",
"807 -20 OFFCURVE",
"946 109 OFFCURVE",
"946 362 CURVE SMOOTH",
"946 533 OFFCURVE",
"859 655 OFFCURVE",
"707 711 CURVE",
"828 764 OFFCURVE",
"905 867 OFFCURVE",
"905 1014 CURVE SMOOTH"
);
},
{
closed = 1;
nodes = (
"766 143 OFFCURVE",
"683 59 OFFCURVE",
"506 59 CURVE SMOOTH",
"333 59 OFFCURVE",
"258 137 OFFCURVE",
"258 362 CURVE SMOOTH",
"258 585 OFFCURVE",
"330 666 OFFCURVE",
"506 666 CURVE SMOOTH",
"686 666 OFFCURVE",
"766 575 OFFCURVE",
"766 362 CURVE SMOOTH"
);
},
{
closed = 1;
nodes = (
"725 831 OFFCURVE",
"657 754 OFFCURVE",
"508 754 CURVE SMOOTH",
"363 754 OFFCURVE",
"299 829 OFFCURVE",
"299 1014 CURVE SMOOTH",
"299 1203 OFFCURVE",
"367 1282 OFFCURVE",
"508 1282 CURVE SMOOTH",
"653 1282 OFFCURVE",
"725 1198 OFFCURVE",
"725 1014 CURVE SMOOTH"
);
}
);
width = 1024;
}
);
note = eight;
unicode = 0038;
},
{
glyphname = nine;
lastChange = "2025-02-05 21:33:40 +0000";
layers = (
{
layerId = "E3E67A92-B1FB-4433-B88A-D288516649AC";
paths = (
{
closed = 1;
nodes = (
"66 680 OFFCURVE",
"210 532 OFFCURVE",
"446 532 CURVE SMOOTH",
"551 532 OFFCURVE",
"654 560 OFFCURVE",
"755 617 CURVE",
"743 253 OFFCURVE",
"627 63 OFFCURVE",
"414 63 CURVE SMOOTH",
"341 63 OFFCURVE",
"262 82 OFFCURVE",
"219 102 CURVE",
"184 246 LINE",
"119 246 LINE",
"119 14 LINE",
"210 -9 OFFCURVE",
"309 -20 OFFCURVE",
"418 -20 CURVE SMOOTH",
"749 -20 OFFCURVE",
"940 225 OFFCURVE",
"940 674 CURVE SMOOTH",
"940 1143 OFFCURVE",
"803 1356 OFFCURVE",
"498 1356 CURVE SMOOTH",
"223 1356 OFFCURVE",
"66 1201 OFFCURVE",
"66 932 CURVE SMOOTH"
);
},
{
closed = 1;
nodes = (
"590 1276 OFFCURVE",
"655 1228 OFFCURVE",
"696 1133 CURVE SMOOTH",
"736 1037 OFFCURVE",
"756 887 OFFCURVE",
"756 682 CURVE",
"669 647 OFFCURVE",
"582 629 OFFCURVE",
"496 629 CURVE SMOOTH",
"328 629 OFFCURVE",
"250 724 OFFCURVE",
"250 928 CURVE SMOOTH",
"250 1160 OFFCURVE",
"333 1276 OFFCURVE",
"500 1276 CURVE SMOOTH"
);
}
);
width = 1024;
}
);
note = nine;
unicode = 0039;
},
{
glyphname = colon;
lastChange = "2025-02-05 21:33:40 +0000";
layers = (
{
layerId = "E3E67A92-B1FB-4433-B88A-D288516649AC";
paths = (
{
closed = 1;
nodes = (
"403 161 OFFCURVE",
"350 213 OFFCURVE",
"283 213 CURVE SMOOTH",
"215 213 OFFCURVE",
"162 160 OFFCURVE",
"162 92 CURVE SMOOTH",
"162 27 OFFCURVE",
"214 -29 OFFCURVE",
"283 -29 CURVE SMOOTH",
"351 -29 OFFCURVE",
"403 27 OFFCURVE",
"403 92 CURVE SMOOTH"
);
},
{
closed = 1;
nodes = (
"403 905 OFFCURVE",
"351 961 OFFCURVE",
"283 961 CURVE SMOOTH",
"214 961 OFFCURVE",
"162 905 OFFCURVE",
"162 840 CURVE SMOOTH",
"162 772 OFFCURVE",
"215 719 OFFCURVE",
"283 719 CURVE SMOOTH",
"350 719 OFFCURVE",
"403 772 OFFCURVE",
"403 840 CURVE SMOOTH"
);
}
);
width = 569;
}
);
note = colon;
unicode = 003A;
},
{
glyphname = semicolon;
lastChange = "2025-02-05 21:33:40 +0000";
layers = (
{
layerId = "E3E67A92-B1FB-4433-B88A-D288516649AC";
paths = (
{
closed = 1;
nodes = (
"403 905 OFFCURVE",
"351 961 OFFCURVE",
"283 961 CURVE SMOOTH",
"214 961 OFFCURVE",
"162 905 OFFCURVE",
"162 840 CURVE SMOOTH",
"162 772 OFFCURVE",
"215 719 OFFCURVE",
"283 719 CURVE SMOOTH",
"350 719 OFFCURVE",
"403 772 OFFCURVE",
"403 840 CURVE SMOOTH"
);
},
{
closed = 1;
nodes = (
"412 144 OFFCURVE",
"353 211 OFFCURVE",
"268 211 CURVE SMOOTH",
"199 211 OFFCURVE",
"147 172 OFFCURVE",
"147 100 CURVE SMOOTH",
"147 57 OFFCURVE",
"170 24 OFFCURVE",
"215 1 CURVE SMOOTH",
"263 -23 OFFCURVE",
"283 -42 OFFCURVE",
"283 -70 CURVE SMOOTH",
"283 -145 OFFCURVE",
"224 -201 OFFCURVE",
"106 -238 CURVE",
"106 -315 LINE",
"302 -259 OFFCURVE",
"412 -134 OFFCURVE",
"412 49 CURVE SMOOTH"
);
}
);
width = 569;
}
);
note = semicolon;
unicode = "003B,037E";
},
{
glyphname = less;
lastChange = "2025-02-05 21:33:40 +0000";
layers = (
{
layerId = "E3E67A92-B1FB-4433-B88A-D288516649AC";
paths = (
{
closed = 1;
nodes = (
"1055 186 LINE",
"1055 289 LINE",
"246 680 LINE",
"1055 1071 LINE",
"1055 1174 LINE",
"102 705 LINE",
"102 655 LINE"
);
}
);
width = 1155;
}
);
note = less;
unicode = 003C;
},
{
glyphname = equal;
lastChange = "2025-02-05 21:33:40 +0000";
layers = (
{
layerId = "E3E67A92-B1FB-4433-B88A-D288516649AC";
paths = (
{
closed = 1;
nodes = (
"102 526 LINE",
"102 424 LINE",
"1055 424 LINE",
"1055 526 LINE"
);
},
{
closed = 1;
nodes = (
"102 936 LINE",
"102 834 LINE",
"1055 834 LINE",
"1055 936 LINE"
);
}
);
width = 1155;
}
);
note = equal;
unicode = 003D;
},
{
glyphname = greater;
lastChange = "2025-02-05 21:33:40 +0000";
layers = (
{
layerId = "E3E67A92-B1FB-4433-B88A-D288516649AC";
paths = (
{
closed = 1;
nodes = (
"1057 655 LINE",
"1057 705 LINE",
"104 1174 LINE",
"104 1071 LINE",
"913 680 LINE",
"104 289 LINE",
"104 186 LINE"
);
}
);
width = 1155;
}
);
note = greater;
unicode = 003E;
},
{
glyphname = question;
lastChange = "2025-02-05 21:33:40 +0000";
layers = (
{
layerId = "E3E67A92-B1FB-4433-B88A-D288516649AC";
paths = (
{
closed = 1;
nodes = (
"453 610 LINE",
"510 623 LINE SMOOTH",
"715 666 OFFCURVE",
"825 799 OFFCURVE",
"825 1016 CURVE SMOOTH",
"825 1243 OFFCURVE",
"684 1356 OFFCURVE",
"401 1356 CURVE SMOOTH",
"310 1356 OFFCURVE",
"211 1342 OFFCURVE",
"106 1313 CURVE",
"106 1059 LINE",
"172 1059 LINE",
"207 1223 LINE",
"262 1256 OFFCURVE",
"326 1272 OFFCURVE",
"401 1272 CURVE SMOOTH",
"580 1272 OFFCURVE",
"641 1200 OFFCURVE",
"641 1004 CURVE SMOOTH",
"641 825 OFFCURVE",
"592 736 OFFCURVE",
"477 713 CURVE SMOOTH",
"334 684 LINE",
"360 350 LINE",
"440 350 LINE"
);
},
{
closed = 1;
nodes = (
"530 161 OFFCURVE",
"477 213 OFFCURVE",
"410 213 CURVE SMOOTH",
"342 213 OFFCURVE",
"289 160 OFFCURVE",
"289 92 CURVE SMOOTH",
"289 27 OFFCURVE",
"341 -29 OFFCURVE",
"410 -29 CURVE SMOOTH",
"478 -29 OFFCURVE",
"530 27 OFFCURVE",
"530 92 CURVE SMOOTH"
);
}
);
width = 909;
}
);
note = question;
unicode = 003F;
},
{
glyphname = at;
lastChange = "2025-02-05 21:33:40 +0000";
layers = (
{
layerId = "E3E67A92-B1FB-4433-B88A-D288516649AC";
paths = (
{
closed = 1;
nodes = (
"1425 -133 LINE",
"1248 -260 OFFCURVE",
"1092 -305 OFFCURVE",
"895 -305 CURVE SMOOTH",
"628 -305 OFFCURVE",
"427 -185 OFFCURVE",
"324 18 CURVE SMOOTH",
"272 119 OFFCURVE",
"246 235 OFFCURVE",
"246 365 CURVE SMOOTH",
"246 713 OFFCURVE",
"399 1017 OFFCURVE",
"648 1169 CURVE SMOOTH",
"772 1244 OFFCURVE",
"912 1282 OFFCURVE",
"1067 1282 CURVE SMOOTH",
"1432 1282 OFFCURVE",
"1653 1086 OFFCURVE",
"1653 750 CURVE SMOOTH",
"1653 545 OFFCURVE",
"1573 333 OFFCURVE",
"1445 225 CURVE SMOOTH",
"1381 170 OFFCURVE",
"1310 143 OFFCURVE",
"1233 143 CURVE SMOOTH",
"1184 143 OFFCURVE",
"1159 156 OFFCURVE",
"1159 205 CURVE SMOOTH",
"1159 238 OFFCURVE",
"1171 332 OFFCURVE",
"1182 379 CURVE SMOOTH",
"1296 909 LINE",
"1264 913 OFFCURVE",
"1235 915 OFFCURVE",
"1210 915 CURVE SMOOTH",
"1174 915 LINE SMOOTH",
"1001 915 OFFCURVE",
"912 891 OFFCURVE",
"801 809 CURVE SMOOTH",
"745 768 OFFCURVE",
"699 718 OFFCURVE",
"662 659 CURVE SMOOTH",
"588 542 OFFCURVE",
"545 384 OFFCURVE",
"545 225 CURVE SMOOTH",
"545 104 OFFCURVE",
"600 25 OFFCURVE",
"696 25 CURVE SMOOTH",
"785 25 OFFCURVE",
"902 85 OFFCURVE",
"1018 201 CURVE",
"1013 151 OFFCURVE",
"1010 109 OFFCURVE",
"1010 76 CURVE SMOOTH",
"1010 42 OFFCURVE",
"1032 25 OFFCURVE",
"1075 25 CURVE SMOOTH",
"1314 25 OFFCURVE",
"1552 171 OFFCURVE",
"1681 395 CURVE SMOOTH",
"1746 506 OFFCURVE",
"1778 625 OFFCURVE",
"1778 752 CURVE SMOOTH",
"1778 1139 OFFCURVE",
"1521 1364 OFFCURVE",
"1073 1364 CURVE SMOOTH",
"713 1364 OFFCURVE",
"402 1183 OFFCURVE",
"235 876 CURVE SMOOTH",
"151 723 OFFCURVE",
"109 551 OFFCURVE",
"109 362 CURVE SMOOTH",
"109 71 OFFCURVE",
"239 -168 OFFCURVE",
"468 -294 CURVE SMOOTH",
"582 -357 OFFCURVE",
"714 -389 OFFCURVE",
"864 -389 CURVE SMOOTH",
"1085 -389 OFFCURVE",
"1270 -331 OFFCURVE",
"1458 -184 CURVE"
);
},
{
closed = 1;
nodes = (
"1024 274 LINE",
"943 205 OFFCURVE",
"835 160 OFFCURVE",
"760 160 CURVE SMOOTH",
"707 160 OFFCURVE",
"680 210 OFFCURVE",
"680 309 CURVE SMOOTH",
"680 508 OFFCURVE",
"756 707 OFFCURVE",
"873 767 CURVE SMOOTH",
"931 796 OFFCURVE",
"1003 811 OFFCURVE",
"1090 811 CURVE",
"1139 807 LINE"
);
}
);
width = 1886;
}
);
note = at;
unicode = 0040;
},
{
glyphname = A;
lastChange = "2025-02-05 21:33:40 +0000";
layers = (
{
layerId = "E3E67A92-B1FB-4433-B88A-D288516649AC";
paths = (
{
closed = 1;
nodes = (
"281 80 LINE",
"416 467 LINE",
"944 467 LINE",
"1077 80 LINE",
"897 53 LINE",
"897 0 LINE",
"1464 0 LINE",
"1464 53 LINE",
"1294 80 LINE",
"819 1352 LINE",
"629 1352 LINE",
"172 80 LINE",
"20 53 LINE",
"20 0 LINE",
"461 0 LINE",
"461 53 LINE"
);
},
{
closed = 1;
nodes = (
"913 557 LINE",
"446 557 LINE",
"676 1208 LINE"
);
}
);
width = 1479;
}
);
note = A;
unicode = 0041;
},
{
glyphname = B;
lastChange = "2025-02-05 21:33:40 +0000";
layers = (
{
layerId = "E3E67A92-B1FB-4433-B88A-D288516649AC";
paths = (
{
closed = 1;
nodes = (
"958 824 OFFCURVE",
"859 744 OFFCURVE",
"643 744 CURVE SMOOTH",
"424 744 LINE",
"424 1251 LINE",
"631 1251 LINE SMOOTH",
"862 1251 OFFCURVE",
"958 1180 OFFCURVE",
"958 1016 CURVE SMOOTH"
);
},
{
closed = 1;
nodes = (
"1059 178 OFFCURVE",
"946 84 OFFCURVE",
"718 84 CURVE SMOOTH",
"614 84 OFFCURVE",
"516 86 OFFCURVE",
"424 90 CURVE",
"424 654 LINE",
"664 654 LINE SMOOTH",
"940 654 OFFCURVE",
"1059 570 OFFCURVE",
"1059 382 CURVE SMOOTH"
);
},
{
closed = 1;
nodes = (
"315 0 LINE",
"743 -6 LINE SMOOTH",
"1084 -6 OFFCURVE",
"1266 129 OFFCURVE",
"1266 386 CURVE SMOOTH",
"1266 567 OFFCURVE",
"1128 689 OFFCURVE",
"887 714 CURVE",
"1062 751 OFFCURVE",
"1163 869 OFFCURVE",
"1163 1026 CURVE SMOOTH",
"1163 1245 OFFCURVE",
"1012 1341 OFFCURVE",
"672 1341 CURVE SMOOTH",
"59 1341 LINE",
"59 1288 LINE",
"231 1262 LINE",
"231 80 LINE",
"59 53 LINE",
"59 0 LINE"
);
}
);
width = 1366;
}
);
note = B;
unicode = 0042;
},
{
glyphname = C;
lastChange = "2025-02-05 21:33:40 +0000";
layers = (
{
layerId = "E3E67A92-B1FB-4433-B88A-D288516649AC";
paths = (
{
closed = 1;
nodes = (
"943 -20 OFFCURVE",
"1100 1 OFFCURVE",
"1247 43 CURVE",
"1253 358 LINE",
"1188 358 LINE",
"1151 158 LINE",
"1072 97 OFFCURVE",
"928 57 OFFCURVE",
"776 57 CURVE SMOOTH",
"461 57 OFFCURVE",
"293 268 OFFCURVE",
"293 657 CURVE SMOOTH",
"293 1080 OFFCURVE",
"443 1276 OFFCURVE",
"786 1276 CURVE SMOOTH",
"914 1276 OFFCURVE",
"1044 1243 OFFCURVE",
"1137 1186 CURVE",
"1167 1012 LINE",
"1233 1012 LINE",
"1227 1305 LINE",
"1067 1339 OFFCURVE",
"917 1356 OFFCURVE",
"778 1356 CURVE SMOOTH",
"319 1356 OFFCURVE",
"84 1116 OFFCURVE",
"84 655 CURVE SMOOTH",
"84 228 OFFCURVE",
"339 -20 OFFCURVE",
"774 -20 CURVE SMOOTH"
);
}
);
width = 1366;
}
);
note = C;
unicode = 0043;
},
{
glyphname = D;
lastChange = "2025-02-05 21:33:40 +0000";
layers = (
{
layerId = "E3E67A92-B1FB-4433-B88A-D288516649AC";
paths = (
{
closed = 1;
nodes = (
"1188 275 OFFCURVE",
"1037 86 OFFCURVE",
"709 86 CURVE SMOOTH",
"599 86 OFFCURVE",
"504 89 OFFCURVE",
"424 94 CURVE",
"424 1251 LINE",
"604 1251 LINE SMOOTH",
"979 1251 OFFCURVE",
"1188 1055 OFFCURVE",
"1188 680 CURVE SMOOTH"
);
},
{
closed = 1;
nodes = (
"59 1341 LINE",
"59 1288 LINE",
"231 1262 LINE",
"231 80 LINE",
"59 53 LINE",
"59 0 LINE",
"709 -4 LINE SMOOTH",
"1166 -4 OFFCURVE",
"1397 230 OFFCURVE",
"1397 678 CURVE SMOOTH",
"1397 1121 OFFCURVE",
"1163 1341 OFFCURVE",
"668 1341 CURVE SMOOTH"
);
}
);
width = 1479;
}
);
note = D;
unicode = 0044;
},
{
glyphname = E;
lastChange = "2025-02-05 21:33:40 +0000";
layers = (
{
layerId = "E3E67A92-B1FB-4433-B88A-D288516649AC";
paths = (
{
closed = 1;
nodes = (
"59 0 LINE",
"1130 0 LINE",
"1149 354 LINE",
"1083 354 LINE",
"1026 106 LINE",
"973 95 OFFCURVE",
"860 90 OFFCURVE",
"688 90 CURVE SMOOTH",
"424 90 LINE",
"424 637 LINE",
"786 637 LINE",
"817 475 LINE",
"881 475 LINE",
"881 887 LINE",
"817 887 LINE",
"786 727 LINE",
"424 727 LINE",
"424 1251 LINE",
"643 1251 LINE SMOOTH",
"784 1251 OFFCURVE",
"892 1246 OFFCURVE",
"967 1237 CURVE",
"999 1020 LINE",
"1065 1020 LINE",
"1065 1341 LINE",
"59 1341 LINE",
"59 1288 LINE",
"231 1262 LINE",
"231 80 LINE",
"59 53 LINE"
);
}
);
width = 1251;
}
);
note = E;
unicode = 0045;
},
{
glyphname = F;
lastChange = "2025-02-05 21:33:40 +0000";
layers = (
{
layerId = "E3E67A92-B1FB-4433-B88A-D288516649AC";
paths = (
{
closed = 1;
nodes = (
"819 602 LINE",
"850 440 LINE",
"911 440 LINE",
"911 852 LINE",
"850 852 LINE",
"819 692 LINE",
"424 692 LINE",
"424 1251 LINE",
"643 1251 LINE SMOOTH",
"784 1251 OFFCURVE",
"892 1246 OFFCURVE",
"967 1237 CURVE",
"999 1020 LINE",
"1065 1020 LINE",
"1065 1341 LINE",
"59 1341 LINE",
"59 1288 LINE",
"231 1262 LINE",
"231 80 LINE",
"72 53 LINE",
"72 0 LINE",
"647 0 LINE",
"647 53 LINE",
"424 80 LINE",
"424 602 LINE"
);
}
);
width = 1139;
}
);
note = F;
unicode = 0046;
},
{
glyphname = G;
lastChange = "2025-02-05 21:33:40 +0000";
layers = (
{
layerId = "E3E67A92-B1FB-4433-B88A-D288516649AC";
paths = (
{
closed = 1;
nodes = (
"1284 506 LINE",
"1415 532 LINE",
"1415 586 LINE",
"920 586 LINE",
"920 532 LINE",
"1092 506 LINE",
"1092 125 LINE",
"1028 88 OFFCURVE",
"888 57 OFFCURVE",
"776 57 CURVE SMOOTH",
"457 57 OFFCURVE",
"293 264 OFFCURVE",
"293 657 CURVE SMOOTH",
"293 1076 OFFCURVE",
"445 1276 OFFCURVE",
"786 1276 CURVE SMOOTH",
"929 1276 OFFCURVE",
"1063 1239 OFFCURVE",
"1155 1174 CURVE",
"1182 1008 LINE",
"1249 1008 LINE",
"1249 1296 LINE",
"1098 1336 OFFCURVE",
"941 1356 OFFCURVE",
"778 1356 CURVE SMOOTH",
"323 1356 OFFCURVE",
"84 1124 OFFCURVE",
"84 655 CURVE SMOOTH",
"84 224 OFFCURVE",
"339 -20 OFFCURVE",
"774 -20 CURVE SMOOTH",
"966 -20 OFFCURVE",
"1129 19 OFFCURVE",
"1284 70 CURVE"
);
}
);
width = 1479;
}
);
note = G;
unicode = 0047;
},
{
glyphname = H;
lastChange = "2025-02-05 21:33:40 +0000";
layers = (
{
layerId = "E3E67A92-B1FB-4433-B88A-D288516649AC";
paths = (
{
closed = 1;
nodes = (
"596 0 LINE",
"596 53 LINE",
"424 80 LINE",
"424 645 LINE",
"1055 645 LINE",
"1055 80 LINE",
"883 53 LINE",
"883 0 LINE",
"1419 0 LINE",
"1419 53 LINE",
"1247 80 LINE",
"1247 1262 LINE",
"1419 1288 LINE",
"1419 1341 LINE",
"883 1341 LINE",
"883 1288 LINE",
"1055 1262 LINE",
"1055 735 LINE",
"424 735 LINE",
"424 1262 LINE",
"596 1288 LINE",
"596 1341 LINE",
"59 1341 LINE",
"59 1288 LINE",
"231 1262 LINE",
"231 80 LINE",
"59 53 LINE",
"59 0 LINE"
);
}
);
width = 1479;
}
);
note = H;
unicode = 0048;
},
{
glyphname = I;
lastChange = "2025-02-05 21:33:40 +0000";
layers = (
{
layerId = "E3E67A92-B1FB-4433-B88A-D288516649AC";
paths = (
{
closed = 1;
nodes = (
"438 1262 LINE",
"610 1288 LINE",
"610 1341 LINE",
"74 1341 LINE",
"74 1288 LINE",
"246 1262 LINE",
"246 80 LINE",
"74 53 LINE",
"74 0 LINE",
"610 0 LINE",
"610 53 LINE",
"438 80 LINE"
);
}
);
width = 682;
}
);
note = I;
unicode = 0049;
},
{
glyphname = J;
lastChange = "2025-02-05 21:33:40 +0000";
layers = (
{
layerId = "E3E67A92-B1FB-4433-B88A-D288516649AC";
paths = (
{
closed = 1;
nodes = (
"410 256 LINE SMOOTH",
"410 129 OFFCURVE",
"363 66 OFFCURVE",
"270 66 CURVE SMOOTH",
"214 66 OFFCURVE",
"164 84 OFFCURVE",
"139 115 CURVE",
"109 254 LINE",
"43 254 LINE",
"43 10 LINE",
"96 -10 OFFCURVE",
"165 -20 OFFCURVE",
"250 -20 CURVE SMOOTH",
"387 -20 OFFCURVE",
"506 64 OFFCURVE",
"561 198 CURVE SMOOTH",
"588 265 OFFCURVE",
"602 343 OFFCURVE",
"602 432 CURVE SMOOTH",
"602 1262 LINE",
"754 1288 LINE",
"754 1341 LINE",
"238 1341 LINE",
"238 1288 LINE",
"410 1262 LINE"
);
}
);
width = 797;
}
);
note = J;
unicode = 004A;
},
{
glyphname = K;
lastChange = "2025-02-05 21:33:40 +0000";
layers = (
{
layerId = "E3E67A92-B1FB-4433-B88A-D288516649AC";
paths = (
{
closed = 1;
nodes = (
"933 1341 LINE",
"933 1288 LINE",
"1066 1262 LINE",
"424 630 LINE",
"424 1262 LINE",
"596 1288 LINE",
"596 1341 LINE",
"59 1341 LINE",
"59 1288 LINE",
"231 1262 LINE",
"231 80 LINE",
"59 53 LINE",
"59 0 LINE",
"616 0 LINE",
"616 53 LINE",
"424 80 LINE",
"424 533 LINE",
"605 678 LINE",
"1130 0 LINE",
"1458 0 LINE",
"1458 53 LINE",
"1313 80 LINE",
"740 814 LINE",
"1198 1262 LINE",
"1353 1288 LINE",
"1353 1341 LINE"
);
}
);
width = 1479;
}
);
note = K;
unicode = 004B;
},
{
glyphname = L;
lastChange = "2025-02-05 21:33:40 +0000";
layers = (
{
layerId = "E3E67A92-B1FB-4433-B88A-D288516649AC";
paths = (
{
closed = 1;
nodes = (
"631 1341 LINE",
"59 1341 LINE",
"59 1288 LINE",
"231 1262 LINE",
"231 80 LINE",
"59 53 LINE",
"59 0 LINE",
"1110 0 LINE",
"1128 385 LINE",
"1063 385 LINE",
"1001 106 LINE",
"934 93 OFFCURVE",
"830 86 OFFCURVE",
"688 86 CURVE SMOOTH",
"424 86 LINE",
"424 1262 LINE",
"631 1288 LINE"
);
}
);
width = 1251;
}
);
note = L;
unicode = 004C;
},
{
glyphname = M;
lastChange = "2025-02-05 21:33:40 +0000";
layers = (
{
layerId = "E3E67A92-B1FB-4433-B88A-D288516649AC";
paths = (
{
closed = 1;
nodes = (
"1397 1153 LINE",
"1397 80 LINE",
"1217 53 LINE",
"1217 0 LINE",
"1761 0 LINE",
"1761 53 LINE",
"1589 80 LINE",
"1589 1262 LINE",
"1761 1288 LINE",
"1761 1341 LINE",
"1377 1341 LINE",
"901 321 LINE",
"465 1341 LINE",
"59 1341 LINE",
"59 1288 LINE",
"231 1262 LINE",
"231 80 LINE",
"59 53 LINE",
"59 0 LINE",
"516 0 LINE",
"516 53 LINE",
"336 80 LINE",
"336 1153 LINE",
"827 0 LINE",
"862 0 LINE"
);
}
);
width = 1821;
}
);
note = M;
unicode = 004D;
},
{
glyphname = N;
lastChange = "2025-02-05 21:33:40 +0000";
layers = (
{
layerId = "E3E67A92-B1FB-4433-B88A-D288516649AC";
paths = (
{
closed = 1;
nodes = (
"1155 348 LINE",
"465 1341 LINE",
"59 1341 LINE",
"59 1288 LINE",
"231 1262 LINE",
"231 80 LINE",
"59 53 LINE",
"59 0 LINE",
"516 0 LINE",
"516 53 LINE",
"336 80 LINE",
"336 1206 LINE",
"1163 0 LINE",
"1260 0 LINE",
"1260 1262 LINE",
"1432 1288 LINE",
"1432 1341 LINE",
"975 1341 LINE",
"975 1288 LINE",
"1155 1262 LINE"
);
}
);
width = 1479;
}
);
note = N;
unicode = 004E;
},
{
glyphname = O;
lastChange = "2025-02-05 21:33:40 +0000";
layers = (
{
layerId = "E3E67A92-B1FB-4433-B88A-D288516649AC";
paths = (
{
closed = 1;
nodes = (
"293 1100 OFFCURVE",
"431 1276 OFFCURVE",
"739 1276 CURVE SMOOTH",
"1046 1276 OFFCURVE",
"1186 1100 OFFCURVE",
"1186 672 CURVE SMOOTH",
"1186 241 OFFCURVE",
"1044 59 OFFCURVE",
"739 59 CURVE SMOOTH",
"432 59 OFFCURVE",
"293 241 OFFCURVE",
"293 672 CURVE SMOOTH"
);
},
{
closed = 1;
nodes = (
"84 215 OFFCURVE",
"314 -20 OFFCURVE",
"739 -20 CURVE SMOOTH",
"1166 -20 OFFCURVE",
"1395 216 OFFCURVE",
"1395 672 CURVE SMOOTH",
"1395 1121 OFFCURVE",
"1171 1356 OFFCURVE",
"739 1356 CURVE SMOOTH",
"302 1356 OFFCURVE",
"84 1128 OFFCURVE",
"84 672 CURVE SMOOTH"
);
}
);
width = 1479;
}
);
note = O;
unicode = 004F;
},
{
glyphname = P;
lastChange = "2025-02-05 21:33:40 +0000";
layers = (
{
layerId = "E3E67A92-B1FB-4433-B88A-D288516649AC";
paths = (
{
closed = 1;
nodes = (
"858 712 OFFCURVE",
"753 616 OFFCURVE",
"528 616 CURVE SMOOTH",
"424 616 LINE",
"424 1251 LINE",
"522 1251 LINE SMOOTH",
"765 1251 OFFCURVE",
"858 1164 OFFCURVE",
"858 944 CURVE SMOOTH"
);
},
{
closed = 1;
nodes = (
"575 526 LINE SMOOTH",
"886 526 OFFCURVE",
"1057 671 OFFCURVE",
"1057 946 CURVE SMOOTH",
"1057 1209 OFFCURVE",
"893 1341 OFFCURVE",
"565 1341 CURVE SMOOTH",
"59 1341 LINE",
"59 1288 LINE",
"231 1262 LINE",
"231 80 LINE",
"72 53 LINE",
"72 0 LINE",
"637 0 LINE",
"637 53 LINE",
"424 80 LINE",
"424 526 LINE"
);
}
);
width = 1139;
}
);
note = P;
unicode = 0050;
},
{
glyphname = Q;
lastChange = "2025-02-05 21:33:40 +0000";
layers = (
{
layerId = "E3E67A92-B1FB-4433-B88A-D288516649AC";
paths = (
{
closed = 1;
nodes = (
"293 1098 OFFCURVE",
"432 1276 OFFCURVE",
"739 1276 CURVE SMOOTH",
"1043 1276 OFFCURVE",
"1186 1101 OFFCURVE",
"1186 670 CURVE SMOOTH",
"1186 237 OFFCURVE",
"1044 59 OFFCURVE",
"739 59 CURVE SMOOTH",
"432 59 OFFCURVE",
"293 239 OFFCURVE",
"293 670 CURVE SMOOTH"
);
},
{
closed = 1;
nodes = (
"84 218 OFFCURVE",
"311 -20 OFFCURVE",
"739 -20 CURVE SMOOTH",
"771 -20 OFFCURVE",
"799 -19 OFFCURVE",
"823 -16 CURVE",
"910 -127 OFFCURVE",
"973 -199 OFFCURVE",
"1010 -233 CURVE SMOOTH",
"1085 -302 OFFCURVE",
"1152 -332 OFFCURVE",
"1247 -332 CURVE SMOOTH",
"1310 -332 OFFCURVE",
"1413 -308 OFFCURVE",
"1444 -295 CURVE",
"1444 -229 LINE",
"1362 -233 LINE SMOOTH",
"1282 -233 OFFCURVE",
"1207 -176 OFFCURVE",
"1090 -29 CURVE SMOOTH",
"1040 33 LINE",
"1277 130 OFFCURVE",
"1395 343 OFFCURVE",
"1395 670 CURVE SMOOTH",
"1395 1122 OFFCURVE",
"1168 1356 OFFCURVE",
"739 1356 CURVE SMOOTH",
"302 1356 OFFCURVE",
"84 1127 OFFCURVE",
"84 670 CURVE SMOOTH"
);
}
);
width = 1479;
}
);
note = Q;
unicode = 0051;
},
{
glyphname = R;
lastChange = "2025-02-05 21:33:40 +0000";
layers = (
{
layerId = "E3E67A92-B1FB-4433-B88A-D288516649AC";
paths = (
{
closed = 1;
nodes = (
"665 588 LINE",
"1042 0 LINE",
"1363 0 LINE",
"1363 53 LINE",
"1218 80 LINE",
"855 616 LINE",
"1027 667 OFFCURVE",
"1130 804 OFFCURVE",
"1130 983 CURVE SMOOTH",
"1130 1234 OFFCURVE",
"974 1341 OFFCURVE",
"638 1341 CURVE SMOOTH",
"59 1341 LINE",
"59 1288 LINE",
"231 1262 LINE",
"231 80 LINE",
"72 53 LINE",
"72 0 LINE",
"627 0 LINE",
"627 53 LINE",
"424 80 LINE",
"424 588 LINE"
);
},
{
closed = 1;
nodes = (
"931 758 OFFCURVE",
"840 678 OFFCURVE",
"601 678 CURVE SMOOTH",
"424 678 LINE",
"424 1251 LINE",
"595 1251 LINE SMOOTH",
"844 1251 OFFCURVE",
"931 1173 OFFCURVE",
"931 969 CURVE SMOOTH"
);
}
);
width = 1366;
}
);
note = R;
unicode = 0052;
},
{
glyphname = S;
lastChange = "2025-02-05 21:33:40 +0000";
layers = (
{
layerId = "E3E67A92-B1FB-4433-B88A-D288516649AC";
paths = (
{
closed = 1;
nodes = (
"139 51 LINE",
"252 7 OFFCURVE",
"406 -20 OFFCURVE",
"550 -20 CURVE SMOOTH",
"849 -20 OFFCURVE",
"1012 128 OFFCURVE",
"1012 387 CURVE SMOOTH",
"1012 643 OFFCURVE",
"834 726 OFFCURVE",
"659 788 CURVE SMOOTH",
"489 847 OFFCURVE",
"305 891 OFFCURVE",
"305 1067 CURVE SMOOTH",
"305 1195 OFFCURVE",
"411 1272 OFFCURVE",
"590 1272 CURVE SMOOTH",
"690 1272 OFFCURVE",
"774 1247 OFFCURVE",
"842 1198 CURVE",
"877 1034 LINE",
"942 1034 LINE",
"942 1313 LINE",
"815 1342 OFFCURVE",
"698 1356 OFFCURVE",
"590 1356 CURVE SMOOTH",
"306 1356 OFFCURVE",
"137 1227 OFFCURVE",
"137 1014 CURVE SMOOTH",
"137 766 OFFCURVE",
"313 690 OFFCURVE",
"490 629 CURVE SMOOTH",
"666 568 OFFCURVE",
"842 521 OFFCURVE",
"842 330 CURVE SMOOTH",
"842 162 OFFCURVE",
"732 61 OFFCURVE",
"545 61 CURVE SMOOTH",
"428 61 OFFCURVE",
"288 117 OFFCURVE",
"239 180 CURVE",
"204 361 LINE",
"139 361 LINE"
);
}
);
width = 1139;
}
);
note = S;
unicode = 0053;
},
{
glyphname = T;
lastChange = "2025-02-05 21:33:40 +0000";
layers = (
{
layerId = "E3E67A92-B1FB-4433-B88A-D288516649AC";
paths = (
{
closed = 1;
nodes = (
"934 0 LINE",
"934 53 LINE",
"721 80 LINE",
"721 1253 LINE",
"770 1253 LINE SMOOTH",
"930 1253 OFFCURVE",
"1082 1244 OFFCURVE",
"1122 1235 CURVE",
"1149 1026 LINE",
"1217 1026 LINE",
"1217 1341 LINE",
"37 1341 LINE",
"37 1026 LINE",
"104 1026 LINE",
"131 1235 LINE",
"193 1248 OFFCURVE",
"308 1255 OFFCURVE",
"477 1255 CURVE SMOOTH",
"528 1255 LINE",
"528 80 LINE",
"315 53 LINE",
"315 0 LINE"
);
}
);
width = 1251;
}
);
note = T;
unicode = 0054;
},
{
glyphname = U;
lastChange = "2025-02-05 21:33:40 +0000";
layers = (
{
layerId = "E3E67A92-B1FB-4433-B88A-D288516649AC";
paths = (
{
closed = 1;
nodes = (
"1159 453 LINE SMOOTH",
"1159 214 OFFCURVE",
"1018 92 OFFCURVE",
"762 92 CURVE SMOOTH",
"525 92 OFFCURVE",
"407 214 OFFCURVE",
"407 457 CURVE SMOOTH",
"407 1262 LINE",
"579 1288 LINE",
"579 1341 LINE",
"43 1341 LINE",
"43 1288 LINE",
"215 1262 LINE",
"215 442 LINE SMOOTH",
"215 147 OFFCURVE",
"391 -20 OFFCURVE",
"747 -20 CURVE SMOOTH",
"1083 -20 OFFCURVE",
"1264 140 OFFCURVE",
"1264 461 CURVE SMOOTH",
"1264 1262 LINE",
"1436 1288 LINE",
"1436 1341 LINE",
"979 1341 LINE",
"979 1288 LINE",
"1159 1262 LINE"
);
}
);
width = 1479;
}
);
note = U;
unicode = 0055;
},
{
glyphname = V;
lastChange = "2025-02-05 21:33:40 +0000";
layers = (
{
layerId = "E3E67A92-B1FB-4433-B88A-D288516649AC";
paths = (
{
closed = 1;
nodes = (
"1020 1341 LINE",
"1020 1288 LINE",
"1196 1262 LINE",
"791 275 LINE",
"385 1262 LINE",
"565 1288 LINE",
"565 1341 LINE",
"23 1341 LINE",
"23 1288 LINE",
"174 1262 LINE",
"719 -31 LINE",
"770 -31 LINE",
"1309 1262 LINE",
"1456 1288 LINE",
"1456 1341 LINE"
);
}
);
width = 1479;
}
);
note = V;
unicode = 0056;
},
{
glyphname = W;
lastChange = "2025-02-05 21:33:40 +0000";
layers = (
{
layerId = "E3E67A92-B1FB-4433-B88A-D288516649AC";
paths = (
{
closed = 1;
nodes = (
"1812 1262 LINE",
"1929 1288 LINE",
"1929 1341 LINE",
"1485 1341 LINE",
"1485 1288 LINE",
"1694 1262 LINE",
"1390 317 LINE",
"1042 1247 LINE",
"997 1247 LINE",
"636 317 LINE",
"317 1262 LINE",
"514 1288 LINE",
"514 1341 LINE",
"2 1341 LINE",
"2 1288 LINE",
"119 1262 LINE",
"563 -31 LINE",
"616 -31 LINE",
"973 893 LINE",
"1321 -31 LINE",
"1374 -31 LINE"
);
}
);
width = 1933;
}
);
note = W;
unicode = 0057;
},
{
glyphname = X;
lastChange = "2025-02-05 21:33:40 +0000";
layers = (
{
layerId = "E3E67A92-B1FB-4433-B88A-D288516649AC";
paths = (
{
closed = 1;
nodes = (
"707 600 LINE",
"1059 80 LINE",
"889 53 LINE",
"889 0 LINE",
"1442 0 LINE",
"1442 53 LINE",
"1290 80 LINE",
"829 760 LINE",
"1206 1262 LINE",
"1354 1288 LINE",
"1354 1341 LINE",
"915 1341 LINE",
"915 1288 LINE",
"1081 1262 LINE",
"770 848 LINE",
"492 1262 LINE",
"662 1288 LINE",
"662 1341 LINE",
"109 1341 LINE",
"109 1288 LINE",
"260 1262 LINE",
"649 686 LINE",
"193 80 LINE",
"45 53 LINE",
"45 0 LINE",
"483 0 LINE",
"483 53 LINE",
"317 80 LINE"
);
}
);
width = 1479;
}
);
note = X;
unicode = 0058;
},
{
glyphname = Y;
lastChange = "2025-02-05 21:33:40 +0000";
layers = (
{
layerId = "E3E67A92-B1FB-4433-B88A-D288516649AC";
paths = (
{
closed = 1;
nodes = (
"1280 1262 LINE",
"1427 1288 LINE",
"1427 1341 LINE",
"991 1341 LINE",
"991 1288 LINE",
"1161 1262 LINE",
"795 643 LINE",
"410 1262 LINE",
"590 1288 LINE",
"590 1341 LINE",
"23 1341 LINE",
"23 1288 LINE",
"174 1262 LINE",
"645 522 LINE",
"645 80 LINE",
"432 53 LINE",
"432 0 LINE",
"1051 0 LINE",
"1051 53 LINE",
"838 80 LINE",
"838 528 LINE"
);
}
);
width = 1479;
}
);
note = Y;
unicode = 0059;
},
{
glyphname = Z;
lastChange = "2025-02-05 21:33:40 +0000";
layers = (
{
layerId = "E3E67A92-B1FB-4433-B88A-D288516649AC";
paths = (
{
closed = 1;
nodes = (
"98 0 LINE",
"1112 0 LINE",
"1139 373 LINE",
"1069 373 LINE",
"1010 117 LINE",
"945 102 OFFCURVE",
"761 84 OFFCURVE",
"606 84 CURVE SMOOTH",
"316 84 LINE",
"1073 1255 LINE",
"1073 1341 LINE",
"160 1341 LINE",
"160 1024 LINE",
"229 1024 LINE",
"260 1235 LINE",
"322 1248 OFFCURVE",
"435 1255 OFFCURVE",
"600 1255 CURVE SMOOTH",
"850 1255 LINE",
"98 94 LINE"
);
}
);
width = 1251;
}
);
note = Z;
unicode = 005A;
},
{
glyphname = bracketleft;
lastChange = "2025-02-05 21:33:40 +0000";
layers = (
{
layerId = "E3E67A92-B1FB-4433-B88A-D288516649AC";
paths = (
{
closed = 1;
nodes = (
"608 -274 LINE",
"608 -227 LINE",
"311 -186 LINE",
"311 1333 LINE",
"608 1374 LINE",
"608 1421 LINE",
"152 1421 LINE",
"152 -274 LINE"
);
}
);
width = 682;
}
);
note = bracketleft;
unicode = 005B;
},
{
glyphname = backslash;
lastChange = "2025-02-05 21:33:40 +0000";
layers = (
{
layerId = "E3E67A92-B1FB-4433-B88A-D288516649AC";
paths = (
{
closed = 1;
nodes = (
"469 -20 LINE",
"569 -20 LINE",
"98 1350 LINE",
"0 1350 LINE"
);
}
);
width = 569;
}
);
note = backslash;
unicode = 005C;
},
{
glyphname = bracketright;
lastChange = "2025-02-05 21:33:40 +0000";
layers = (
{
layerId = "E3E67A92-B1FB-4433-B88A-D288516649AC";
paths = (
{
closed = 1;
nodes = (
"530 -274 LINE",
"530 1421 LINE",
"74 1421 LINE",
"74 1374 LINE",
"371 1333 LINE",
"371 -186 LINE",
"74 -227 LINE",
"74 -274 LINE"
);
}
);
width = 682;
}
);
note = bracketright;
unicode = 005D;
},
{
glyphname = asciicircum;
lastChange = "2025-02-05 21:33:40 +0000";
layers = (
{
layerId = "E3E67A92-B1FB-4433-B88A-D288516649AC";
paths = (
{
closed = 1;
nodes = (
"29 389 LINE",
"131 389 LINE",
"481 1198 LINE",
"831 389 LINE",
"934 389 LINE",
"506 1341 LINE",
"457 1341 LINE"
);
}
);
width = 961;
}
);
note = asciicircum;
unicode = 005E;
},
{
glyphname = underscore;
lastChange = "2025-02-05 21:33:40 +0000";
layers = (
{
layerId = "E3E67A92-B1FB-4433-B88A-D288516649AC";
paths = (
{
closed = 1;
nodes = (
"1040 -264 LINE",
"1040 -162 LINE",
"-16 -162 LINE",
"-16 -264 LINE"
);
}
);
width = 1024;
}
);
note = underscore;
unicode = 005F;
},
{
glyphname = grave;
lastChange = "2025-02-05 21:33:40 +0000";
layers = (
{
layerId = "E3E67A92-B1FB-4433-B88A-D288516649AC";
paths = (
{
closed = 1;
nodes = (
"528 1119 LINE",
"528 1152 LINE",
"332 1424 LINE",
"119 1424 LINE",
"119 1387 LINE",
"473 1119 LINE"
);
}
);
width = 682;
}
);
note = grave;
unicode = 0060;
},
{
glyphname = a;
lastChange = "2025-02-05 21:33:40 +0000";
layers = (
{
layerId = "E3E67A92-B1FB-4433-B88A-D288516649AC";
paths = (
{
closed = 1;
nodes = (
"383 961 OFFCURVE",
"288 949 OFFCURVE",
"180 926 CURVE",
"180 721 LINE",
"236 721 LINE",
"270 838 LINE",
"325 869 OFFCURVE",
"386 885 OFFCURVE",
"453 885 CURVE SMOOTH",
"552 885 OFFCURVE",
"598 825 OFFCURVE",
"598 696 CURVE SMOOTH",
"598 549 LINE",
"457 545 LINE SMOOTH",
"254 541 OFFCURVE",
"157 498 OFFCURVE",
"109 416 CURVE SMOOTH",
"84 375 OFFCURVE",
"72 323 OFFCURVE",
"72 260 CURVE SMOOTH",
"72 73 OFFCURVE",
"152 -20 OFFCURVE",
"313 -20 CURVE SMOOTH",
"431 -20 OFFCURVE",
"528 18 OFFCURVE",
"604 94 CURVE",
"623 0 LINE",
"881 0 LINE",
"881 45 LINE",
"764 70 LINE",
"764 705 LINE SMOOTH",
"764 878 OFFCURVE",
"670 961 OFFCURVE",
"465 961 CURVE SMOOTH"
);
},
{
closed = 1;
nodes = (
"598 145 LINE",
"531 113 OFFCURVE",
"472 90 OFFCURVE",
"381 90 CURVE SMOOTH",
"286 90 OFFCURVE",
"238 149 OFFCURVE",
"238 266 CURVE SMOOTH",
"238 413 OFFCURVE",
"288 468 OFFCURVE",
"467 475 CURVE SMOOTH",
"598 479 LINE"
);
}
);
width = 909;
}
);
note = a;
unicode = 0061;
},
{
glyphname = b;
lastChange = "2025-02-05 21:33:40 +0000";
layers = (
{
layerId = "E3E67A92-B1FB-4433-B88A-D288516649AC";
paths = (
{
closed = 1;
nodes = (
"766 211 OFFCURVE",
"688 66 OFFCURVE",
"504 66 CURVE SMOOTH",
"426 66 OFFCURVE",
"359 71 OFFCURVE",
"303 82 CURVE",
"303 827 LINE",
"338 843 OFFCURVE",
"425 860 OFFCURVE",
"504 860 CURVE SMOOTH",
"683 860 OFFCURVE",
"766 741 OFFCURVE",
"766 496 CURVE SMOOTH"
);
},
{
closed = 1;
nodes = (
"137 49 LINE",
"241 8 OFFCURVE",
"393 -20 OFFCURVE",
"508 -20 CURVE SMOOTH",
"792 -20 OFFCURVE",
"946 159 OFFCURVE",
"946 496 CURVE SMOOTH",
"946 811 OFFCURVE",
"805 965 OFFCURVE",
"549 965 CURVE SMOOTH",
"448 965 OFFCURVE",
"364 939 OFFCURVE",
"297 887 CURVE",
"301 983 OFFCURVE",
"303 1049 OFFCURVE",
"303 1085 CURVE SMOOTH",
"303 1421 LINE",
"0 1421 LINE",
"0 1376 LINE",
"137 1352 LINE"
);
}
);
width = 1024;
}
);
note = b;
unicode = 0062;
},
{
glyphname = c;
lastChange = "2025-02-05 21:33:40 +0000";
layers = (
{
layerId = "E3E67A92-B1FB-4433-B88A-D288516649AC";
paths = (
{
closed = 1;
nodes = (
"846 117 LINE",
"774 95 OFFCURVE",
"689 84 OFFCURVE",
"592 84 CURVE SMOOTH",
"364 84 OFFCURVE",
"258 194 OFFCURVE",
"258 477 CURVE SMOOTH",
"258 749 OFFCURVE",
"347 885 OFFCURVE",
"526 885 CURVE SMOOTH",
"603 885 OFFCURVE",
"670 869 OFFCURVE",
"725 838 CURVE",
"768 672 LINE",
"823 672 LINE",
"823 934 LINE",
"716 955 OFFCURVE",
"618 965 OFFCURVE",
"528 965 CURVE SMOOTH",
"239 965 OFFCURVE",
"78 790 OFFCURVE",
"78 477 CURVE SMOOTH",
"78 146 OFFCURVE",
"230 -20 OFFCURVE",
"535 -20 CURVE SMOOTH",
"655 -20 OFFCURVE",
"781 9 OFFCURVE",
"846 57 CURVE"
);
}
);
width = 909;
}
);
note = c;
unicode = 0063;
},
{
glyphname = d;
lastChange = "2025-02-05 21:33:40 +0000";
layers = (
{
layerId = "E3E67A92-B1FB-4433-B88A-D288516649AC";
paths = (
{
closed = 1;
nodes = (
"735 0 LINE",
"999 0 LINE",
"999 45 LINE",
"883 70 LINE",
"883 1421 LINE",
"559 1421 LINE",
"559 1376 LINE",
"717 1352 LINE",
"717 1108 LINE SMOOTH",
"717 1019 OFFCURVE",
"719 964 OFFCURVE",
"723 942 CURVE",
"649 957 OFFCURVE",
"576 965 OFFCURVE",
"504 965 CURVE SMOOTH",
"221 965 OFFCURVE",
"74 790 OFFCURVE",
"74 461 CURVE SMOOTH",
"74 140 OFFCURVE",
"202 -20 OFFCURVE",
"459 -20 CURVE SMOOTH",
"560 -20 OFFCURVE",
"648 10 OFFCURVE",
"723 70 CURVE"
);
},
{
closed = 1;
nodes = (
"254 742 OFFCURVE",
"341 883 OFFCURVE",
"514 883 CURVE SMOOTH",
"590 883 OFFCURVE",
"658 877 OFFCURVE",
"717 866 CURVE",
"717 123 LINE",
"657 97 OFFCURVE",
"589 84 OFFCURVE",
"514 84 CURVE SMOOTH",
"338 84 OFFCURVE",
"254 208 OFFCURVE",
"254 461 CURVE SMOOTH"
);
}
);
width = 1024;
}
);
note = d;
unicode = 0064;
},
{
glyphname = e;
lastChange = "2025-02-05 21:33:40 +0000";
layers = (
{
layerId = "E3E67A92-B1FB-4433-B88A-D288516649AC";
paths = (
{
closed = 1;
nodes = (
"838 473 LINE",
"838 555 LINE SMOOTH",
"838 828 OFFCURVE",
"718 965 OFFCURVE",
"477 965 CURVE SMOOTH",
"222 965 OFFCURVE",
"80 805 OFFCURVE",
"80 477 CURVE SMOOTH",
"80 129 OFFCURVE",
"210 -20 OFFCURVE",
"502 -20 CURVE SMOOTH",
"617 -20 OFFCURVE",
"737 16 OFFCURVE",
"801 57 CURVE",
"801 113 LINE",
"737 98 OFFCURVE",
"623 84 OFFCURVE",
"551 84 CURVE SMOOTH",
"344 84 OFFCURVE",
"260 201 OFFCURVE",
"260 455 CURVE SMOOTH",
"260 473 LINE"
);
},
{
closed = 1;
nodes = (
"604 885 OFFCURVE",
"664 792 OFFCURVE",
"664 553 CURVE",
"262 553 LINE",
"262 772 OFFCURVE",
"338 885 OFFCURVE",
"477 885 CURVE SMOOTH"
);
}
);
width = 909;
}
);
note = e;
unicode = 0065;
},
{
glyphname = f;
lastChange = "2025-02-05 21:33:40 +0000";
layers = (
{
layerId = "E3E67A92-B1FB-4433-B88A-D288516649AC";
paths = (
{
closed = 1;
nodes = (
"225 78 LINE",
"86 45 LINE",
"86 0 LINE",
"594 0 LINE",
"594 45 LINE",
"391 78 LINE",
"391 856 LINE",
"641 856 LINE",
"641 940 LINE",
"391 940 LINE",
"391 1096 LINE SMOOTH",
"391 1199 OFFCURVE",
"400 1269 OFFCURVE",
"417 1306 CURVE SMOOTH",
"434 1343 OFFCURVE",
"464 1362 OFFCURVE",
"506 1362 CURVE SMOOTH",
"538 1362 OFFCURVE",
"565 1355 OFFCURVE",
"588 1341 CURVE",
"633 1218 LINE",
"682 1218 LINE",
"682 1423 LINE",
"638 1436 OFFCURVE",
"590 1442 OFFCURVE",
"539 1442 CURVE SMOOTH",
"340 1442 OFFCURVE",
"225 1287 OFFCURVE",
"225 1010 CURVE SMOOTH",
"225 944 LINE",
"63 905 LINE",
"63 856 LINE",
"225 856 LINE"
);
}
);
width = 682;
}
);
note = f;
unicode = 0066;
},
{
glyphname = g;
lastChange = "2025-02-05 21:33:40 +0000";
layers = (
{
layerId = "E3E67A92-B1FB-4433-B88A-D288516649AC";
paths = (
{
closed = 1;
nodes = (
"870 740 OFFCURVE",
"848 814 OFFCURVE",
"803 864 CURVE",
"942 1008 LINE",
"907 1051 LINE",
"686 940 LINE",
"645 953 OFFCURVE",
"551 965 OFFCURVE",
"502 965 CURVE SMOOTH",
"254 965 OFFCURVE",
"121 848 OFFCURVE",
"121 643 CURVE SMOOTH",
"121 498 OFFCURVE",
"174 401 OFFCURVE",
"279 352 CURVE",
"121 174 LINE",
"121 103 OFFCURVE",
"180 35 OFFCURVE",
"256 10 CURVE",
"128 -82 OFFCURVE",
"88 -144 OFFCURVE",
"88 -215 CURVE SMOOTH",
"88 -360 OFFCURVE",
"225 -442 OFFCURVE",
"481 -442 CURVE SMOOTH",
"696 -442 OFFCURVE",
"849 -383 OFFCURVE",
"927 -279 CURVE SMOOTH",
"966 -227 OFFCURVE",
"985 -166 OFFCURVE",
"985 -96 CURVE SMOOTH",
"985 59 OFFCURVE",
"889 152 OFFCURVE",
"686 152 CURVE SMOOTH",
"408 152 LINE SMOOTH",
"372 152 OFFCURVE",
"342 157 OFFCURVE",
"318 167 CURVE SMOOTH",
"294 177 OFFCURVE",
"281 188 OFFCURVE",
"279 199 CURVE",
"342 330 LINE",
"389 320 OFFCURVE",
"439 315 OFFCURVE",
"494 315 CURVE SMOOTH",
"737 315 OFFCURVE",
"870 427 OFFCURVE",
"870 643 CURVE SMOOTH"
);
},
{
closed = 1;
nodes = (
"829 -275 OFFCURVE",
"704 -362 OFFCURVE",
"481 -362 CURVE SMOOTH",
"310 -362 OFFCURVE",
"229 -316 OFFCURVE",
"229 -201 CURVE SMOOTH",
"229 -137 OFFCURVE",
"268 -54 OFFCURVE",
"324 -6 CURVE",
"688 -6 LINE SMOOTH",
"783 -6 OFFCURVE",
"829 -51 OFFCURVE",
"829 -127 CURVE SMOOTH"
);
},
{
closed = 1;
nodes = (
"356 391 OFFCURVE",
"295 467 OFFCURVE",
"295 643 CURVE SMOOTH",
"295 819 OFFCURVE",
"358 889 OFFCURVE",
"498 889 CURVE SMOOTH",
"637 889 OFFCURVE",
"696 820 OFFCURVE",
"696 643 CURVE SMOOTH",
"696 474 OFFCURVE",
"641 391 OFFCURVE",
"496 391 CURVE SMOOTH"
);
}
);
width = 1024;
}
);
note = g;
unicode = 0067;
},
{
glyphname = h;
lastChange = "2025-02-05 21:33:40 +0000";
layers = (
{
layerId = "E3E67A92-B1FB-4433-B88A-D288516649AC";
paths = (
{
closed = 1;
nodes = (
"326 1421 LINE",
"20 1421 LINE",
"20 1376 LINE",
"160 1352 LINE",
"160 70 LINE",
"41 45 LINE",
"41 0 LINE",
"453 0 LINE",
"453 45 LINE",
"326 70 LINE",
"326 819 LINE",
"413 838 OFFCURVE",
"488 848 OFFCURVE",
"551 848 CURVE SMOOTH",
"662 848 OFFCURVE",
"717 791 OFFCURVE",
"717 676 CURVE SMOOTH",
"717 70 LINE",
"592 45 LINE",
"592 0 LINE",
"997 0 LINE",
"997 45 LINE",
"883 70 LINE",
"883 688 LINE SMOOTH",
"883 868 OFFCURVE",
"800 965 OFFCURVE",
"637 965 CURVE SMOOTH",
"553 965 OFFCURVE",
"415 919 OFFCURVE",
"319 864 CURVE",
"324 895 OFFCURVE",
"326 945 OFFCURVE",
"326 1014 CURVE SMOOTH"
);
}
);
width = 1024;
}
);
note = h;
unicode = 0068;
},
{
glyphname = i;
lastChange = "2025-02-05 21:33:40 +0000";
layers = (
{
layerId = "E3E67A92-B1FB-4433-B88A-D288516649AC";
paths = (
{
closed = 1;
nodes = (
"379 1307 OFFCURVE",
"330 1356 OFFCURVE",
"270 1356 CURVE SMOOTH",
"211 1356 OFFCURVE",
"162 1307 OFFCURVE",
"162 1247 CURVE SMOOTH",
"162 1188 OFFCURVE",
"211 1139 OFFCURVE",
"270 1139 CURVE SMOOTH",
"330 1139 OFFCURVE",
"379 1188 OFFCURVE",
"379 1247 CURVE SMOOTH"
);
},
{
closed = 1;
nodes = (
"369 940 LINE",
"70 940 LINE",
"70 895 LINE",
"203 870 LINE",
"203 70 LINE",
"43 45 LINE",
"43 0 LINE",
"530 0 LINE",
"530 45 LINE",
"369 70 LINE"
);
}
);
width = 569;
}
);
note = i;
unicode = 0069;
},
{
glyphname = j;
lastChange = "2025-02-05 21:33:40 +0000";
layers = (
{
layerId = "E3E67A92-B1FB-4433-B88A-D288516649AC";
paths = (
{
closed = 1;
nodes = (
"393 1307 OFFCURVE",
"344 1356 OFFCURVE",
"285 1356 CURVE SMOOTH",
"225 1356 OFFCURVE",
"176 1307 OFFCURVE",
"176 1247 CURVE SMOOTH",
"176 1188 OFFCURVE",
"225 1139 OFFCURVE",
"285 1139 CURVE SMOOTH",
"344 1139 OFFCURVE",
"393 1188 OFFCURVE",
"393 1247 CURVE SMOOTH"
);
},
{
closed = 1;
nodes = (
"383 940 LINE",
"76 940 LINE",
"76 895 LINE",
"217 870 LINE",
"217 -90 LINE SMOOTH",
"217 -183 OFFCURVE",
"207 -251 OFFCURVE",
"187 -293 CURVE SMOOTH",
"167 -335 OFFCURVE",
"137 -356 OFFCURVE",
"98 -356 CURVE SMOOTH",
"65 -356 OFFCURVE",
"37 -347 OFFCURVE",
"15 -328 CURVE",
"-12 -219 LINE",
"-59 -219 LINE",
"-59 -418 LINE",
"-4 -430 OFFCURVE",
"45 -436 OFFCURVE",
"86 -436 CURVE SMOOTH",
"281 -436 OFFCURVE",
"383 -299 OFFCURVE",
"383 -39 CURVE SMOOTH"
);
}
);
width = 569;
}
);
note = j;
unicode = 006A;
},
{
glyphname = k;
lastChange = "2025-02-05 21:33:40 +0000";
layers = (
{
layerId = "E3E67A92-B1FB-4433-B88A-D288516649AC";
paths = (
{
closed = 1;
nodes = (
"344 1421 LINE",
"39 1421 LINE",
"39 1376 LINE",
"178 1352 LINE",
"178 70 LINE",
"59 45 LINE",
"59 0 LINE",
"444 0 LINE",
"444 45 LINE",
"344 70 LINE",
"344 340 LINE",
"467 475 LINE",
"725 70 LINE",
"639 45 LINE",
"639 0 LINE",
"1024 0 LINE",
"1024 45 LINE",
"922 68 LINE",
"578 598 LINE",
"846 872 LINE",
"963 895 LINE",
"963 940 LINE",
"631 940 LINE",
"631 895 LINE",
"729 868 LINE",
"344 453 LINE"
);
}
);
width = 1024;
}
);
note = k;
unicode = 006B;
},
{
glyphname = l;
lastChange = "2025-02-05 21:33:40 +0000";
layers = (
{
layerId = "E3E67A92-B1FB-4433-B88A-D288516649AC";
paths = (
{
closed = 1;
nodes = (
"367 1421 LINE",
"41 1421 LINE",
"41 1376 LINE",
"201 1352 LINE",
"201 70 LINE",
"41 45 LINE",
"41 0 LINE",
"528 0 LINE",
"528 45 LINE",
"367 70 LINE"
);
}
);
width = 569;
}
);
note = l;
unicode = 006C;
},
{
glyphname = m;
lastChange = "2025-02-05 21:33:40 +0000";
layers = (
{
layerId = "E3E67A92-B1FB-4433-B88A-D288516649AC";
paths = (
{
closed = 1;
nodes = (
"318 940 LINE",
"43 940 LINE",
"43 895 LINE",
"162 870 LINE",
"162 70 LINE",
"43 45 LINE",
"43 0 LINE",
"469 0 LINE",
"469 45 LINE",
"328 70 LINE",
"328 813 LINE",
"415 832 OFFCURVE",
"488 842 OFFCURVE",
"547 842 CURVE SMOOTH",
"660 842 OFFCURVE",
"717 781 OFFCURVE",
"717 670 CURVE SMOOTH",
"717 70 LINE",
"578 45 LINE",
"578 0 LINE",
"1024 0 LINE",
"1024 45 LINE",
"883 70 LINE",
"883 688 LINE SMOOTH",
"883 731 OFFCURVE",
"877 771 OFFCURVE",
"866 807 CURVE",
"921 818 OFFCURVE",
"1039 842 OFFCURVE",
"1114 842 CURVE SMOOTH",
"1221 842 OFFCURVE",
"1274 785 OFFCURVE",
"1274 670 CURVE SMOOTH",
"1274 70 LINE",
"1134 45 LINE",
"1134 0 LINE",
"1561 0 LINE",
"1561 45 LINE",
"1440 70 LINE",
"1440 688 LINE SMOOTH",
"1440 873 OFFCURVE",
"1360 965 OFFCURVE",
"1200 965 CURVE SMOOTH",
"1109 965 OFFCURVE",
"951 913 OFFCURVE",
"848 856 CURVE",
"809 932 OFFCURVE",
"725 965 OFFCURVE",
"633 965 CURVE SMOOTH",
"548 965 OFFCURVE",
"426 921 OFFCURVE",
"326 864 CURVE"
);
}
);
width = 1593;
}
);
note = m;
unicode = 006D;
},
{
glyphname = n;
lastChange = "2025-02-05 21:33:40 +0000";
layers = (
{
layerId = "E3E67A92-B1FB-4433-B88A-D288516649AC";
paths = (
{
closed = 1;
nodes = (
"315 940 LINE",
"47 940 LINE",
"47 895 LINE",
"160 870 LINE",
"160 70 LINE",
"47 45 LINE",
"47 0 LINE",
"453 0 LINE",
"453 45 LINE",
"326 70 LINE",
"326 819 LINE",
"413 838 OFFCURVE",
"487 848 OFFCURVE",
"547 848 CURVE SMOOTH",
"660 848 OFFCURVE",
"713 781 OFFCURVE",
"713 670 CURVE SMOOTH",
"713 70 LINE",
"588 45 LINE",
"588 0 LINE",
"993 0 LINE",
"993 45 LINE",
"879 70 LINE",
"879 688 LINE SMOOTH",
"879 868 OFFCURVE",
"796 965 OFFCURVE",
"633 965 CURVE SMOOTH",
"556 965 OFFCURVE",
"427 923 OFFCURVE",
"324 864 CURVE"
);
}
);
width = 1024;
}
);
note = n;
unicode = 006E;
},
{
glyphname = o;
lastChange = "2025-02-05 21:33:40 +0000";
layers = (
{
layerId = "E3E67A92-B1FB-4433-B88A-D288516649AC";
paths = (
{
closed = 1;
nodes = (
"946 799 OFFCURVE",
"799 965 OFFCURVE",
"514 965 CURVE SMOOTH",
"221 965 OFFCURVE",
"78 792 OFFCURVE",
"78 475 CURVE SMOOTH",
"78 154 OFFCURVE",
"223 -20 OFFCURVE",
"506 -20 CURVE SMOOTH",
"799 -20 OFFCURVE",
"946 145 OFFCURVE",
"946 475 CURVE SMOOTH"
);
},
{
closed = 1;
nodes = (
"766 182 OFFCURVE",
"682 59 OFFCURVE",
"506 59 CURVE SMOOTH",
"334 59 OFFCURVE",
"258 172 OFFCURVE",
"258 475 CURVE SMOOTH",
"258 774 OFFCURVE",
"331 885 OFFCURVE",
"506 885 CURVE SMOOTH",
"685 885 OFFCURVE",
"766 763 OFFCURVE",
"766 475 CURVE SMOOTH"
);
}
);
width = 1024;
}
);
note = o;
unicode = 006F;
},
{
glyphname = p;
lastChange = "2025-02-05 21:33:40 +0000";
layers = (
{
layerId = "E3E67A92-B1FB-4433-B88A-D288516649AC";
paths = (
{
closed = 1;
nodes = (
"152 -365 LINE",
"33 -389 LINE",
"33 -436 LINE",
"481 -436 LINE",
"481 -389 LINE",
"317 -365 LINE",
"317 -111 LINE SMOOTH",
"317 -84 OFFCURVE",
"315 -46 OFFCURVE",
"311 2 CURVE",
"379 -13 OFFCURVE",
"451 -20 OFFCURVE",
"526 -20 CURVE SMOOTH",
"797 -20 OFFCURVE",
"944 162 OFFCURVE",
"944 481 CURVE SMOOTH",
"944 793 OFFCURVE",
"807 965 OFFCURVE",
"567 965 CURVE SMOOTH",
"470 965 OFFCURVE",
"367 933 OFFCURVE",
"311 885 CURVE",
"309 940 LINE",
"45 940 LINE",
"45 895 LINE",
"152 870 LINE"
);
},
{
closed = 1;
nodes = (
"764 200 OFFCURVE",
"680 59 OFFCURVE",
"512 59 CURVE SMOOTH",
"441 59 OFFCURVE",
"376 65 OFFCURVE",
"317 76 CURVE",
"317 827 LINE",
"369 849 OFFCURVE",
"434 860 OFFCURVE",
"512 860 CURVE SMOOTH",
"681 860 OFFCURVE",
"764 737 OFFCURVE",
"764 481 CURVE SMOOTH"
);
}
);
width = 1024;
}
);
note = p;
unicode = 0070;
},
{
glyphname = q;
lastChange = "2025-02-05 21:33:40 +0000";
layers = (
{
layerId = "E3E67A92-B1FB-4433-B88A-D288516649AC";
paths = (
{
closed = 1;
nodes = (
"723 942 LINE",
"649 957 OFFCURVE",
"575 965 OFFCURVE",
"500 965 CURVE SMOOTH",
"221 965 OFFCURVE",
"74 788 OFFCURVE",
"74 467 CURVE SMOOTH",
"74 142 OFFCURVE",
"202 -20 OFFCURVE",
"459 -20 CURVE SMOOTH",
"566 -20 OFFCURVE",
"656 8 OFFCURVE",
"727 63 CURVE",
"720 16 OFFCURVE",
"717 -39 OFFCURVE",
"717 -104 CURVE SMOOTH",
"717 -365 LINE",
"588 -389 LINE",
"588 -436 LINE",
"987 -436 LINE",
"987 -389 LINE",
"883 -365 LINE",
"883 985 LINE",
"813 985 LINE"
);
},
{
closed = 1;
nodes = (
"254 744 OFFCURVE",
"341 883 OFFCURVE",
"514 883 CURVE SMOOTH",
"590 883 OFFCURVE",
"658 877 OFFCURVE",
"717 866 CURVE",
"717 117 LINE",
"678 100 OFFCURVE",
"593 84 OFFCURVE",
"514 84 CURVE SMOOTH",
"337 84 OFFCURVE",
"254 212 OFFCURVE",
"254 467 CURVE SMOOTH"
);
}
);
width = 1024;
}
);
note = q;
unicode = 0071;
},
{
glyphname = r;
lastChange = "2025-02-05 21:33:40 +0000";
layers = (
{
layerId = "E3E67A92-B1FB-4433-B88A-D288516649AC";
paths = (
{
closed = 1;
nodes = (
"649 965 LINE SMOOTH",
"569 965 OFFCURVE",
"404 890 OFFCURVE",
"324 823 CURVE",
"315 940 LINE",
"41 940 LINE",
"41 895 LINE",
"160 870 LINE",
"160 70 LINE",
"41 45 LINE",
"41 0 LINE",
"487 0 LINE",
"487 45 LINE",
"326 70 LINE",
"326 772 LINE",
"393 801 OFFCURVE",
"496 821 OFFCURVE",
"563 821 CURVE",
"621 711 LINE",
"664 711 LINE",
"664 965 LINE"
);
}
);
width = 682;
}
);
note = r;
unicode = 0072;
},
{
glyphname = s;
lastChange = "2025-02-05 21:33:40 +0000";
layers = (
{
layerId = "E3E67A92-B1FB-4433-B88A-D288516649AC";
paths = (
{
closed = 1;
nodes = (
"723 348 OFFCURVE",
"699 402 OFFCURVE",
"657 447 CURVE SMOOTH",
"636 469 OFFCURVE",
"610 488 OFFCURVE",
"580 503 CURVE SMOOTH",
"550 518 OFFCURVE",
"486 543 OFFCURVE",
"388 576 CURVE SMOOTH",
"284 611 OFFCURVE",
"233 661 OFFCURVE",
"233 737 CURVE SMOOTH",
"233 828 OFFCURVE",
"291 885 OFFCURVE",
"399 885 CURVE SMOOTH",
"475 885 OFFCURVE",
"531 869 OFFCURVE",
"566 838 CURVE",
"608 729 LINE",
"655 729 LINE",
"655 934 LINE",
"552 955 OFFCURVE",
"466 965 OFFCURVE",
"397 965 CURVE SMOOTH",
"205 965 OFFCURVE",
"84 863 OFFCURVE",
"84 698 CURVE SMOOTH",
"84 549 OFFCURVE",
"163 482 OFFCURVE",
"327 428 CURVE SMOOTH",
"416 399 LINE SMOOTH",
"518 364 OFFCURVE",
"569 306 OFFCURVE",
"569 225 CURVE SMOOTH",
"569 114 OFFCURVE",
"504 59 OFFCURVE",
"375 59 CURVE SMOOTH",
"295 59 OFFCURVE",
"230 82 OFFCURVE",
"180 127 CURVE",
"131 258 LINE",
"86 258 LINE",
"86 27 LINE",
"150 3 OFFCURVE",
"280 -20 OFFCURVE",
"373 -20 CURVE SMOOTH",
"604 -20 OFFCURVE",
"723 77 OFFCURVE",
"723 264 CURVE SMOOTH"
);
}
);
width = 797;
}
);
note = s;
unicode = 0073;
},
{
glyphname = t;
lastChange = "2025-02-05 21:33:40 +0000";
layers = (
{
layerId = "E3E67A92-B1FB-4433-B88A-D288516649AC";
paths = (
{
closed = 1;
nodes = (
"409 -20 OFFCURVE",
"510 3 OFFCURVE",
"557 35 CURVE",
"557 100 LINE",
"502 89 OFFCURVE",
"455 84 OFFCURVE",
"416 84 CURVE SMOOTH",
"352 84 OFFCURVE",
"309 128 OFFCURVE",
"309 215 CURVE SMOOTH",
"309 856 LINE",
"524 856 LINE",
"524 940 LINE",
"309 940 LINE",
"309 1153 LINE",
"246 1153 LINE",
"145 940 LINE",
"20 901 LINE",
"20 856 LINE",
"143 856 LINE",
"143 197 LINE SMOOTH",
"143 60 OFFCURVE",
"206 -20 OFFCURVE",
"334 -20 CURVE SMOOTH"
);
}
);
width = 569;
}
);
note = t;
unicode = 0074;
},
{
glyphname = u;
lastChange = "2025-02-05 21:33:40 +0000";
layers = (
{
layerId = "E3E67A92-B1FB-4433-B88A-D288516649AC";
paths = (
{
closed = 1;
nodes = (
"313 940 LINE",
"27 940 LINE",
"27 895 LINE",
"147 870 LINE",
"147 256 LINE SMOOTH",
"147 72 OFFCURVE",
"227 -20 OFFCURVE",
"387 -20 CURVE SMOOTH",
"471 -20 OFFCURVE",
"612 24 OFFCURVE",
"707 76 CURVE",
"715 0 LINE",
"989 0 LINE",
"989 45 LINE",
"870 70 LINE",
"870 940 LINE",
"563 940 LINE",
"563 895 LINE",
"705 870 LINE",
"705 127 LINE",
"633 106 OFFCURVE",
"556 96 OFFCURVE",
"473 96 CURVE SMOOTH",
"366 96 OFFCURVE",
"313 153 OFFCURVE",
"313 268 CURVE SMOOTH"
);
}
);
width = 1024;
}
);
note = u;
unicode = 0075;
},
{
glyphname = v;
lastChange = "2025-02-05 21:33:40 +0000";
layers = (
{
layerId = "E3E67A92-B1FB-4433-B88A-D288516649AC";
paths = (
{
closed = 1;
nodes = (
"934 874 LINE",
"1024 895 LINE",
"1024 940 LINE",
"676 940 LINE",
"676 895 LINE",
"825 870 LINE",
"563 219 LINE",
"289 868 LINE",
"438 895 LINE",
"438 940 LINE",
"0 940 LINE",
"0 895 LINE",
"96 870 LINE",
"483 -20 LINE",
"557 -20 LINE"
);
}
);
width = 1024;
}
);
note = v;
unicode = 0076;
},
{
glyphname = w;
lastChange = "2025-02-05 21:33:40 +0000";
layers = (
{
layerId = "E3E67A92-B1FB-4433-B88A-D288516649AC";
paths = (
{
closed = 1;
nodes = (
"1366 874 LINE",
"1470 895 LINE",
"1470 940 LINE",
"1112 940 LINE",
"1112 895 LINE",
"1266 870 LINE",
"1053 229 LINE",
"827 846 LINE",
"743 846 LINE",
"516 233 LINE",
"293 868 LINE",
"449 895 LINE",
"449 940 LINE",
"2 940 LINE",
"2 895 LINE",
"113 870 LINE",
"438 -20 LINE",
"512 -20 LINE",
"741 600 LINE",
"973 -20 LINE",
"1051 -20 LINE"
);
}
);
width = 1479;
}
);
note = w;
unicode = 0077;
},
{
glyphname = x;
lastChange = "2025-02-05 21:33:40 +0000";
layers = (
{
layerId = "E3E67A92-B1FB-4433-B88A-D288516649AC";
paths = (
{
closed = 1;
nodes = (
"889 66 LINE",
"580 532 LINE",
"844 874 LINE",
"952 895 LINE",
"952 940 LINE",
"614 940 LINE",
"614 895 LINE",
"743 870 LINE",
"535 598 LINE",
"354 868 LINE",
"479 895 LINE",
"479 940 LINE",
"53 940 LINE",
"53 895 LINE",
"164 870 LINE",
"436 469 LINE",
"127 61 LINE",
"18 45 LINE",
"18 0 LINE",
"356 0 LINE",
"356 45 LINE",
"227 66 LINE",
"481 401 LINE",
"698 68 LINE",
"573 45 LINE",
"573 0 LINE",
"999 0 LINE",
"999 45 LINE"
);
}
);
width = 1024;
}
);
note = x;
unicode = 0078;
},
{
glyphname = y;
lastChange = "2025-02-05 21:33:40 +0000";
layers = (
{
layerId = "E3E67A92-B1FB-4433-B88A-D288516649AC";
paths = (
{
closed = 1;
nodes = (
"299 -442 OFFCURVE",
"374 -392 OFFCURVE",
"438 -296 CURVE SMOOTH",
"470 -248 OFFCURVE",
"508 -169 OFFCURVE",
"551 -59 CURVE SMOOTH",
"918 874 LINE",
"1016 895 LINE",
"1016 940 LINE",
"666 940 LINE",
"666 895 LINE",
"813 870 LINE",
"567 211 LINE",
"313 868 LINE",
"461 895 LINE",
"461 940 LINE",
"25 940 LINE",
"25 895 LINE",
"121 870 LINE",
"479 -10 LINE",
"442 -111 OFFCURVE",
"412 -182 OFFCURVE",
"388 -221 CURVE SMOOTH",
"339 -300 OFFCURVE",
"280 -340 OFFCURVE",
"211 -340 CURVE SMOOTH",
"174 -340 OFFCURVE",
"146 -332 OFFCURVE",
"125 -317 CURVE",
"92 -221 LINE",
"45 -221 LINE",
"45 -424 LINE",
"96 -436 OFFCURVE",
"147 -442 OFFCURVE",
"199 -442 CURVE SMOOTH"
);
}
);
width = 1024;
}
);
note = y;
unicode = 0079;
},
{
glyphname = z;
lastChange = "2025-02-05 21:33:40 +0000";
layers = (
{
layerId = "E3E67A92-B1FB-4433-B88A-D288516649AC";
paths = (
{
closed = 1;
nodes = (
"827 0 LINE",
"852 324 LINE",
"805 324 LINE",
"754 127 LINE",
"719 100 OFFCURVE",
"621 80 OFFCURVE",
"545 80 CURVE SMOOTH",
"270 80 LINE",
"786 891 LINE",
"786 940 LINE",
"92 940 LINE",
"92 690 LINE",
"139 690 LINE",
"170 825 LINE",
"197 846 OFFCURVE",
"275 860 OFFCURVE",
"350 860 CURVE SMOOTH",
"571 860 LINE",
"55 45 LINE",
"55 0 LINE"
);
}
);
width = 909;
}
);
note = z;
unicode = 007A;
},
{
glyphname = braceleft;
lastChange = "2025-02-05 21:33:40 +0000";
layers = (
{
layerId = "E3E67A92-B1FB-4433-B88A-D288516649AC";
paths = (
{
closed = 1;
nodes = (
"797 -274 LINE",
"797 -227 LINE",
"735 -227 LINE SMOOTH",
"614 -227 OFFCURVE",
"567 -153 OFFCURVE",
"567 -12 CURVE SMOOTH",
"567 322 LINE SMOOTH",
"567 451 OFFCURVE",
"494 547 OFFCURVE",
"375 575 CURVE",
"375 578 LINE",
"492 603 OFFCURVE",
"567 702 OFFCURVE",
"567 829 CURVE SMOOTH",
"567 1159 LINE SMOOTH",
"567 1300 OFFCURVE",
"614 1374 OFFCURVE",
"735 1374 CURVE SMOOTH",
"797 1374 LINE",
"797 1421 LINE",
"662 1421 LINE SMOOTH",
"487 1421 OFFCURVE",
"401 1316 OFFCURVE",
"401 1128 CURVE SMOOTH",
"401 834 LINE SMOOTH",
"401 679 OFFCURVE",
"329 601 OFFCURVE",
"186 598 CURVE",
"186 553 LINE",
"333 548 OFFCURVE",
"401 471 OFFCURVE",
"401 315 CURVE SMOOTH",
"401 20 LINE SMOOTH",
"401 -167 OFFCURVE",
"494 -274 OFFCURVE",
"662 -274 CURVE SMOOTH"
);
}
);
width = 983;
}
);
note = braceleft;
unicode = 007B;
},
{
glyphname = bar;
lastChange = "2025-02-05 21:33:40 +0000";
layers = (
{
layerId = "E3E67A92-B1FB-4433-B88A-D288516649AC";
paths = (
{
closed = 1;
nodes = (
"256 -442 LINE",
"256 1421 LINE",
"154 1421 LINE",
"154 -442 LINE"
);
}
);
width = 410;
}
);
note = bar;
unicode = 007C;
},
{
glyphname = braceright;
lastChange = "2025-02-05 21:33:40 +0000";
layers = (
{
layerId = "E3E67A92-B1FB-4433-B88A-D288516649AC";
paths = (
{
closed = 1;
nodes = (
"322 -274 LINE SMOOTH",
"489 -274 OFFCURVE",
"582 -165 OFFCURVE",
"582 20 CURVE SMOOTH",
"582 315 LINE SMOOTH",
"582 472 OFFCURVE",
"653 548 OFFCURVE",
"797 553 CURVE",
"797 598 LINE",
"654 601 OFFCURVE",
"582 679 OFFCURVE",
"582 834 CURVE SMOOTH",
"582 1128 LINE SMOOTH",
"582 1316 OFFCURVE",
"495 1421 OFFCURVE",
"322 1421 CURVE SMOOTH",
"186 1421 LINE",
"186 1374 LINE",
"248 1374 LINE SMOOTH",
"369 1374 OFFCURVE",
"416 1300 OFFCURVE",
"416 1159 CURVE SMOOTH",
"416 829 LINE SMOOTH",
"416 704 OFFCURVE",
"491 603 OFFCURVE",
"608 578 CURVE",
"608 575 LINE",
"488 547 OFFCURVE",
"416 451 OFFCURVE",
"416 322 CURVE SMOOTH",
"416 -12 LINE SMOOTH",
"416 -153 OFFCURVE",
"369 -227 OFFCURVE",
"248 -227 CURVE SMOOTH",
"186 -227 LINE",
"186 -274 LINE"
);
}
);
width = 983;
}
);
note = braceright;
unicode = 007D;
},
{
glyphname = asciitilde;
lastChange = "2025-02-05 21:33:40 +0000";
layers = (
{
layerId = "E3E67A92-B1FB-4433-B88A-D288516649AC";
paths = (
{
closed = 1;
nodes = (
"889 502 OFFCURVE",
"957 555 OFFCURVE",
"1000 647 CURVE SMOOTH",
"1021 693 OFFCURVE",
"1038 759 OFFCURVE",
"1049 846 CURVE",
"946 846 LINE",
"921 663 OFFCURVE",
"872 604 OFFCURVE",
"780 604 CURVE SMOOTH",
"757 604 OFFCURVE",
"731 612 OFFCURVE",
"704 629 CURVE SMOOTH",
"676 645 OFFCURVE",
"633 677 OFFCURVE",
"576 725 CURVE SMOOTH",
"476 809 OFFCURVE",
"401 846 OFFCURVE",
"326 846 CURVE SMOOTH",
"169 846 OFFCURVE",
"81 751 OFFCURVE",
"57 502 CURVE",
"158 502 LINE",
"175 678 OFFCURVE",
"223 743 OFFCURVE",
"326 743 CURVE SMOOTH",
"377 743 OFFCURVE",
"436 707 OFFCURVE",
"535 623 CURVE SMOOTH",
"628 542 OFFCURVE",
"709 502 OFFCURVE",
"780 502 CURVE SMOOTH"
);
}
);
width = 1108;
}
);
note = asciitilde;
unicode = 007E;
},
{
glyphname = dagger;
lastChange = "2025-02-05 21:33:40 +0000";
layers = (
{
layerId = "E3E67A92-B1FB-4433-B88A-D288516649AC";
paths = (
{
closed = 1;
nodes = (
"545 940 LINE",
"961 893 LINE",
"961 1049 LINE",
"545 1006 LINE",
"592 1421 LINE",
"436 1421 LINE",
"479 1006 LINE",
"63 1049 LINE",
"63 893 LINE",
"479 940 LINE",
"416 780 LINE",
"489 -240 LINE",
"535 -240 LINE",
"612 780 LINE"
);
}
);
width = 1024;
}
);
note = dagger;
unicode = 2020;
},
{
glyphname = degree;
lastChange = "2025-02-05 21:33:40 +0000";
layers = (
{
layerId = "E3E67A92-B1FB-4433-B88A-D288516649AC";
paths = (
{
closed = 1;
nodes = (
"98 878 OFFCURVE",
"235 741 OFFCURVE",
"408 741 CURVE SMOOTH",
"517 741 OFFCURVE",
"620 798 OFFCURVE",
"677 895 CURVE SMOOTH",
"705 943 OFFCURVE",
"719 995 OFFCURVE",
"719 1051 CURVE SMOOTH",
"719 1163 OFFCURVE",
"659 1265 OFFCURVE",
"563 1321 CURVE SMOOTH",
"515 1348 OFFCURVE",
"463 1362 OFFCURVE",
"408 1362 CURVE SMOOTH",
"297 1362 OFFCURVE",
"194 1302 OFFCURVE",
"139 1206 CURVE SMOOTH",
"112 1158 OFFCURVE",
"98 1106 OFFCURVE",
"98 1051 CURVE SMOOTH"
);
},
{
closed = 1;
nodes = (
"200 1171 OFFCURVE",
"295 1262 OFFCURVE",
"408 1262 CURVE SMOOTH",
"525 1262 OFFCURVE",
"617 1170 OFFCURVE",
"617 1051 CURVE SMOOTH",
"617 934 OFFCURVE",
"525 841 OFFCURVE",
"408 841 CURVE SMOOTH",
"295 841 OFFCURVE",
"200 932 OFFCURVE",
"200 1051 CURVE SMOOTH"
);
}
);
width = 819;
}
);
note = degree;
unicode = 00B0;
},
{
glyphname = cent;
lastChange = "2025-02-05 21:33:40 +0000";
layers = (
{
layerId = "E3E67A92-B1FB-4433-B88A-D288516649AC";
paths = (
{
closed = 1;
nodes = (
"536 0 LINE",
"618 0 LINE",
"618 186 LINE",
"751 195 OFFCURVE",
"848 227 OFFCURVE",
"895 264 CURVE",
"895 324 LINE",
"823 302 OFFCURVE",
"738 291 OFFCURVE",
"641 291 CURVE SMOOTH",
"618 291 LINE",
"618 1090 LINE",
"678 1083 OFFCURVE",
"730 1068 OFFCURVE",
"774 1044 CURVE",
"817 879 LINE",
"872 879 LINE",
"872 1141 LINE",
"793 1157 OFFCURVE",
"708 1167 OFFCURVE",
"618 1171 CURVE",
"618 1341 LINE",
"536 1341 LINE",
"536 1169 LINE",
"272 1154 OFFCURVE",
"127 979 OFFCURVE",
"127 684 CURVE SMOOTH",
"127 368 OFFCURVE",
"260 203 OFFCURVE",
"536 186 CURVE"
);
},
{
closed = 1;
nodes = (
"307 935 OFFCURVE",
"383 1071 OFFCURVE",
"536 1090 CURVE",
"536 301 LINE",
"377 333 OFFCURVE",
"307 447 OFFCURVE",
"307 684 CURVE SMOOTH"
);
}
);
width = 1024;
}
);
note = cent;
unicode = 00A2;
},
{
glyphname = sterling;
lastChange = "2025-02-05 21:33:40 +0000";
layers = (
{
layerId = "E3E67A92-B1FB-4433-B88A-D288516649AC";
paths = (
{
closed = 1;
nodes = (
"271 154 LINE",
"387 253 OFFCURVE",
"430 340 OFFCURVE",
"430 459 CURVE SMOOTH",
"430 500 OFFCURVE",
"425 556 OFFCURVE",
"414 629 CURVE",
"676 629 LINE",
"676 711 LINE",
"398 711 LINE",
"379 816 OFFCURVE",
"369 915 OFFCURVE",
"369 1006 CURVE SMOOTH",
"369 1183 OFFCURVE",
"445 1272 OFFCURVE",
"598 1272 CURVE SMOOTH",
"665 1272 OFFCURVE",
"729 1254 OFFCURVE",
"791 1219 CURVE",
"826 1055 LINE",
"891 1055 LINE",
"891 1313 LINE",
"732 1350 OFFCURVE",
"673 1356 OFFCURVE",
"598 1356 CURVE SMOOTH",
"321 1356 OFFCURVE",
"181 1230 OFFCURVE",
"181 1006 CURVE SMOOTH",
"181 913 OFFCURVE",
"203 815 OFFCURVE",
"248 711 CURVE",
"121 711 LINE",
"121 629 LINE",
"283 629 LINE",
"312 557 OFFCURVE",
"338 493 OFFCURVE",
"338 430 CURVE SMOOTH",
"338 347 OFFCURVE",
"290 264 OFFCURVE",
"195 181 CURVE SMOOTH",
"123 117 LINE",
"123 0 LINE",
"961 0 LINE",
"961 154 LINE"
);
}
);
width = 1024;
}
);
note = sterling;
unicode = 00A3;
},
{
glyphname = section;
lastChange = "2025-02-05 21:33:40 +0000";
layers = (
{
layerId = "E3E67A92-B1FB-4433-B88A-D288516649AC";
paths = (
{
closed = 1;
nodes = (
"842 171 OFFCURVE",
"765 255 OFFCURVE",
"614 342 CURVE",
"777 377 OFFCURVE",
"872 482 OFFCURVE",
"872 623 CURVE SMOOTH",
"872 764 OFFCURVE",
"780 846 OFFCURVE",
"607 925 CURVE SMOOTH",
"518 966 OFFCURVE",
"459 996 OFFCURVE",
"432 1015 CURVE SMOOTH",
"376 1052 OFFCURVE",
"342 1097 OFFCURVE",
"342 1161 CURVE SMOOTH",
"342 1252 OFFCURVE",
"399 1309 OFFCURVE",
"508 1309 CURVE SMOOTH",
"587 1309 OFFCURVE",
"652 1290 OFFCURVE",
"684 1262 CURVE",
"717 1153 LINE",
"764 1153 LINE",
"764 1364 LINE",
"669 1381 OFFCURVE",
"583 1389 OFFCURVE",
"506 1389 CURVE SMOOTH",
"314 1389 OFFCURVE",
"193 1287 OFFCURVE",
"193 1122 CURVE SMOOTH",
"193 1002 OFFCURVE",
"255 911 OFFCURVE",
"399 838 CURVE",
"259 810 OFFCURVE",
"162 710 OFFCURVE",
"162 582 CURVE SMOOTH",
"162 405 OFFCURVE",
"293 326 OFFCURVE",
"425 255 CURVE SMOOTH",
"558 183 OFFCURVE",
"688 124 OFFCURVE",
"688 -10 CURVE SMOOTH",
"688 -118 OFFCURVE",
"614 -176 OFFCURVE",
"483 -176 CURVE SMOOTH",
"403 -176 OFFCURVE",
"308 -146 OFFCURVE",
"268 -109 CURVE",
"229 23 LINE",
"184 23 LINE",
"184 -209 LINE",
"233 -228 OFFCURVE",
"376 -256 OFFCURVE",
"481 -256 CURVE SMOOTH",
"714 -256 OFFCURVE",
"842 -155 OFFCURVE",
"842 29 CURVE SMOOTH"
);
},
{
closed = 1;
nodes = (
"719 479 OFFCURVE",
"645 408 OFFCURVE",
"522 393 CURVE",
"449 433 OFFCURVE",
"402 462 OFFCURVE",
"380 480 CURVE SMOOTH",
"336 516 OFFCURVE",
"311 557 OFFCURVE",
"311 618 CURVE SMOOTH",
"311 711 OFFCURVE",
"393 783 OFFCURVE",
"506 788 CURVE",
"627 733 OFFCURVE",
"670 700 OFFCURVE",
"698 656 CURVE SMOOTH",
"712 634 OFFCURVE",
"719 609 OFFCURVE",
"719 580 CURVE SMOOTH"
);
}
);
width = 1024;
}
);
note = section;
unicode = 00A7;
},
{
glyphname = bullet;
lastChange = "2025-02-05 21:33:40 +0000";
layers = (
{
layerId = "E3E67A92-B1FB-4433-B88A-D288516649AC";
paths = (
{
closed = 1;
nodes = (
"602 814 OFFCURVE",
"494 922 OFFCURVE",
"358 922 CURVE SMOOTH",
"223 922 OFFCURVE",
"115 814 OFFCURVE",
"115 678 CURVE SMOOTH",
"115 542 OFFCURVE",
"223 434 OFFCURVE",
"358 434 CURVE SMOOTH",
"494 434 OFFCURVE",
"602 542 OFFCURVE",
"602 678 CURVE SMOOTH"
);
}
);
width = 717;
}
);
note = bullet;
unicode = 2022;
},
{
glyphname = paragraph;
lastChange = "2025-02-05 21:33:40 +0000";
layers = (
{
layerId = "E3E67A92-B1FB-4433-B88A-D288516649AC";
paths = (
{
closed = 1;
nodes = (
"905 1288 LINE",
"905 1341 LINE",
"442 1341 LINE SMOOTH",
"162 1341 OFFCURVE",
"8 1207 OFFCURVE",
"8 963 CURVE SMOOTH",
"8 714 OFFCURVE",
"176 565 OFFCURVE",
"455 565 CURVE",
"453 -258 LINE",
"547 -258 LINE",
"547 1266 LINE",
"717 1266 LINE",
"717 -258 LINE",
"811 -258 LINE",
"811 1266 LINE"
);
}
);
width = 928;
}
);
note = paragraph;
unicode = 00B6;
},
{
glyphname = germandbls;
lastChange = "2025-02-05 21:33:40 +0000";
layers = (
{
layerId = "E3E67A92-B1FB-4433-B88A-D288516649AC";
paths = (
{
closed = 1;
nodes = (
"877 1308 OFFCURVE",
"769 1442 OFFCURVE",
"520 1442 CURVE SMOOTH",
"281 1442 OFFCURVE",
"160 1312 OFFCURVE",
"160 1061 CURVE SMOOTH",
"160 70 LINE",
"20 45 LINE",
"20 0 LINE",
"326 0 LINE",
"326 1110 LINE SMOOTH",
"326 1278 OFFCURVE",
"391 1362 OFFCURVE",
"520 1362 CURVE SMOOTH",
"663 1362 OFFCURVE",
"713 1270 OFFCURVE",
"713 1047 CURVE",
"548 1019 OFFCURVE",
"463 928 OFFCURVE",
"463 784 CURVE SMOOTH",
"463 652 OFFCURVE",
"520 561 OFFCURVE",
"631 485 CURVE SMOOTH",
"747 406 OFFCURVE",
"799 333 OFFCURVE",
"799 225 CURVE SMOOTH",
"799 114 OFFCURVE",
"749 59 OFFCURVE",
"649 59 CURVE SMOOTH",
"581 59 OFFCURVE",
"527 88 OFFCURVE",
"496 125 CURVE",
"463 219 LINE",
"418 219 LINE",
"418 27 LINE",
"463 -1 OFFCURVE",
"568 -20 OFFCURVE",
"651 -20 CURVE SMOOTH",
"848 -20 OFFCURVE",
"952 73 OFFCURVE",
"952 256 CURVE SMOOTH",
"952 395 OFFCURVE",
"897 490 OFFCURVE",
"782 571 CURVE SMOOTH",
"661 656 OFFCURVE",
"612 722 OFFCURVE",
"612 819 CURVE SMOOTH",
"612 975 OFFCURVE",
"759 984 OFFCURVE",
"877 997 CURVE"
);
}
);
width = 1024;
}
);
note = germandbls;
unicode = 00DF;
},
{
glyphname = registered;
lastChange = "2025-02-05 21:33:40 +0000";
layers = (
{
layerId = "E3E67A92-B1FB-4433-B88A-D288516649AC";
paths = (
{
closed = 1;
nodes = (
"88 422 OFFCURVE",
"219 195 OFFCURVE",
"432 72 CURVE SMOOTH",
"539 11 OFFCURVE",
"654 -20 OFFCURVE",
"778 -20 CURVE SMOOTH",
"1031 -20 OFFCURVE",
"1259 115 OFFCURVE",
"1380 327 CURVE SMOOTH",
"1440 432 OFFCURVE",
"1470 547 OFFCURVE",
"1470 670 CURVE SMOOTH",
"1470 922 OFFCURVE",
"1338 1147 OFFCURVE",
"1125 1270 CURVE SMOOTH",
"1018 1331 OFFCURVE",
"903 1362 OFFCURVE",
"778 1362 CURVE SMOOTH",
"530 1362 OFFCURVE",
"306 1234 OFFCURVE",
"182 1020 CURVE SMOOTH",
"119 913 OFFCURVE",
"88 796 OFFCURVE",
"88 670 CURVE SMOOTH"
);
},
{
closed = 1;
nodes = (
"158 891 OFFCURVE",
"275 1097 OFFCURVE",
"467 1209 CURVE SMOOTH",
"563 1264 OFFCURVE",
"667 1292 OFFCURVE",
"778 1292 CURVE SMOOTH",
"1001 1292 OFFCURVE",
"1203 1176 OFFCURVE",
"1316 983 CURVE SMOOTH",
"1373 886 OFFCURVE",
"1401 782 OFFCURVE",
"1401 670 CURVE SMOOTH",
"1401 446 OFFCURVE",
"1281 242 OFFCURVE",
"1089 132 CURVE SMOOTH",
"993 77 OFFCURVE",
"889 49 OFFCURVE",
"778 49 CURVE SMOOTH",
"557 49 OFFCURVE",
"353 166 OFFCURVE",
"242 359 CURVE SMOOTH",
"186 455 OFFCURVE",
"158 559 OFFCURVE",
"158 670 CURVE SMOOTH"
);
},
{
closed = 1;
nodes = (
"758 625 LINE",
"987 276 LINE",
"1192 276 LINE",
"1192 319 LINE",
"1108 336 LINE",
"895 643 LINE",
"1012 680 OFFCURVE",
"1073 757 OFFCURVE",
"1073 860 CURVE SMOOTH",
"1073 1001 OFFCURVE",
"966 1081 OFFCURVE",
"758 1081 CURVE SMOOTH",
"428 1081 LINE",
"428 1040 LINE",
"532 1024 LINE",
"532 336 LINE",
"436 319 LINE",
"436 276 LINE",
"782 276 LINE",
"782 319 LINE",
"668 336 LINE",
"668 625 LINE"
);
},
{
closed = 1;
nodes = (
"932 730 OFFCURVE",
"876 688 OFFCURVE",
"735 688 CURVE SMOOTH",
"668 688 LINE",
"668 1020 LINE",
"731 1020 LINE SMOOTH",
"884 1020 OFFCURVE",
"932 977 OFFCURVE",
"932 858 CURVE SMOOTH"
);
}
);
width = 1556;
}
);
note = registered;
unicode = 00AE;
},
{
glyphname = copyright;
lastChange = "2025-02-05 21:33:40 +0000";
layers = (
{
layerId = "E3E67A92-B1FB-4433-B88A-D288516649AC";
paths = (
{
closed = 1;
nodes = (
"88 422 OFFCURVE",
"219 195 OFFCURVE",
"432 72 CURVE SMOOTH",
"539 11 OFFCURVE",
"654 -20 OFFCURVE",
"778 -20 CURVE SMOOTH",
"1031 -20 OFFCURVE",
"1259 115 OFFCURVE",
"1380 327 CURVE SMOOTH",
"1440 432 OFFCURVE",
"1470 547 OFFCURVE",
"1470 670 CURVE SMOOTH",
"1470 922 OFFCURVE",
"1338 1147 OFFCURVE",
"1125 1270 CURVE SMOOTH",
"1018 1331 OFFCURVE",
"903 1362 OFFCURVE",
"778 1362 CURVE SMOOTH",
"530 1362 OFFCURVE",
"306 1234 OFFCURVE",
"182 1020 CURVE SMOOTH",
"119 913 OFFCURVE",
"88 796 OFFCURVE",
"88 670 CURVE SMOOTH"
);
},
{
closed = 1;
nodes = (
"158 891 OFFCURVE",
"275 1097 OFFCURVE",
"467 1209 CURVE SMOOTH",
"563 1264 OFFCURVE",
"667 1292 OFFCURVE",
"778 1292 CURVE SMOOTH",
"1001 1292 OFFCURVE",
"1203 1176 OFFCURVE",
"1316 983 CURVE SMOOTH",
"1373 886 OFFCURVE",
"1401 782 OFFCURVE",
"1401 670 CURVE SMOOTH",
"1401 446 OFFCURVE",
"1281 242 OFFCURVE",
"1089 132 CURVE SMOOTH",
"993 77 OFFCURVE",
"889 49 OFFCURVE",
"778 49 CURVE SMOOTH",
"557 49 OFFCURVE",
"353 166 OFFCURVE",
"242 359 CURVE SMOOTH",
"186 455 OFFCURVE",
"158 559 OFFCURVE",
"158 670 CURVE SMOOTH"
);
},
{
closed = 1;
nodes = (
"900 258 OFFCURVE",
"994 271 OFFCURVE",
"1077 297 CURVE",
"1081 496 LINE",
"1032 496 LINE",
"1010 377 LINE",
"961 337 OFFCURVE",
"889 317 OFFCURVE",
"795 317 CURVE SMOOTH",
"616 317 OFFCURVE",
"526 433 OFFCURVE",
"526 666 CURVE SMOOTH",
"526 917 OFFCURVE",
"605 1024 OFFCURVE",
"801 1024 CURVE SMOOTH",
"880 1024 OFFCURVE",
"946 1007 OFFCURVE",
"1001 973 CURVE",
"1020 868 LINE",
"1069 868 LINE",
"1065 1055 LINE",
"963 1075 OFFCURVE",
"874 1085 OFFCURVE",
"797 1085 CURVE SMOOTH",
"521 1085 OFFCURVE",
"379 943 OFFCURVE",
"379 664 CURVE SMOOTH",
"379 407 OFFCURVE",
"535 258 OFFCURVE",
"795 258 CURVE SMOOTH"
);
}
);
width = 1556;
}
);
note = copyright;
unicode = 00A9;
},
{
glyphname = trademark;
lastChange = "2025-02-05 21:33:40 +0000";
layers = (
{
layerId = "E3E67A92-B1FB-4433-B88A-D288516649AC";
paths = (
{
closed = 1;
nodes = (
"645 537 LINE",
"645 580 LINE",
"518 596 LINE",
"518 1278 LINE",
"547 1278 LINE SMOOTH",
"652 1278 OFFCURVE",
"719 1275 OFFCURVE",
"748 1268 CURVE",
"764 1143 LINE",
"805 1143 LINE",
"805 1341 LINE",
"96 1341 LINE",
"96 1143 LINE",
"137 1143 LINE",
"154 1268 LINE",
"187 1276 OFFCURVE",
"253 1280 OFFCURVE",
"350 1280 CURVE SMOOTH",
"381 1280 LINE",
"381 596 LINE",
"254 580 LINE",
"254 537 LINE"
);
},
{
closed = 1;
nodes = (
"1683 1204 LINE",
"1683 596 LINE",
"1575 580 LINE",
"1575 537 LINE",
"1923 537 LINE",
"1923 580 LINE",
"1821 596 LINE",
"1821 1284 LINE",
"1923 1300 LINE",
"1923 1341 LINE",
"1669 1341 LINE",
"1405 758 LINE",
"1161 1341 LINE",
"891 1341 LINE",
"891 1300 LINE",
"995 1284 LINE",
"995 596 LINE",
"891 580 LINE",
"891 537 LINE",
"1176 537 LINE",
"1176 580 LINE",
"1067 596 LINE",
"1067 1206 LINE",
"1352 537 LINE",
"1380 537 LINE"
);
}
);
width = 2007;
}
);
note = trademark;
unicode = 2122;
},
{
glyphname = acute;
lastChange = "2025-02-05 21:33:40 +0000";
layers = (
{
layerId = "E3E67A92-B1FB-4433-B88A-D288516649AC";
paths = (
{
closed = 1;
nodes = (
"211 1119 LINE",
"565 1387 LINE",
"565 1424 LINE",
"352 1424 LINE",
"156 1152 LINE",
"156 1119 LINE"
);
}
);
width = 682;
}
);
note = acute;
unicode = 00B4;
},
{
glyphname = dieresis;
lastChange = "2025-02-05 21:33:40 +0000";
layers = (
{
layerId = "E3E67A92-B1FB-4433-B88A-D288516649AC";
paths = (
{
closed = 1;
nodes = (
"618 1250 OFFCURVE",
"576 1294 OFFCURVE",
"520 1294 CURVE SMOOTH",
"464 1294 OFFCURVE",
"420 1250 OFFCURVE",
"420 1194 CURVE SMOOTH",
"420 1142 OFFCURVE",
"464 1093 OFFCURVE",
"520 1093 CURVE SMOOTH",
"576 1093 OFFCURVE",
"618 1138 OFFCURVE",
"618 1194 CURVE SMOOTH"
);
},
{
closed = 1;
nodes = (
"262 1250 OFFCURVE",
"220 1294 OFFCURVE",
"164 1294 CURVE SMOOTH",
"112 1294 OFFCURVE",
"63 1250 OFFCURVE",
"63 1194 CURVE SMOOTH",
"63 1139 OFFCURVE",
"109 1093 OFFCURVE",
"164 1093 CURVE SMOOTH",
"220 1093 OFFCURVE",
"262 1138 OFFCURVE",
"262 1194 CURVE SMOOTH"
);
}
);
width = 682;
}
);
note = dieresis;
unicode = 00A8;
},
{
glyphname = notequal;
lastChange = "2025-02-05 21:33:40 +0000";
layers = (
{
layerId = "E3E67A92-B1FB-4433-B88A-D288516649AC";
paths = (
{
closed = 1;
nodes = (
"1001 1220 LINE",
"876 1220 LINE",
"678 936 LINE",
"85 936 LINE",
"85 834 LINE",
"607 834 LINE",
"392 526 LINE",
"85 526 LINE",
"85 424 LINE",
"321 424 LINE",
"123 140 LINE",
"246 140 LINE",
"444 424 LINE",
"1038 424 LINE",
"1038 526 LINE",
"516 526 LINE",
"731 834 LINE",
"1038 834 LINE",
"1038 936 LINE",
"802 936 LINE"
);
}
);
width = 1124;
}
);
note = notequal;
unicode = 2260;
},
{
glyphname = AE;
lastChange = "2025-02-05 21:33:40 +0000";
layers = (
{
layerId = "E3E67A92-B1FB-4433-B88A-D288516649AC";
paths = (
{
closed = 1;
nodes = (
"731 0 LINE",
"1700 0 LINE",
"1718 354 LINE",
"1653 354 LINE",
"1595 106 LINE",
"1542 95 OFFCURVE",
"1429 90 OFFCURVE",
"1257 90 CURVE SMOOTH",
"1075 90 LINE",
"1075 637 LINE",
"1356 637 LINE",
"1386 475 LINE",
"1450 475 LINE",
"1450 887 LINE",
"1386 887 LINE",
"1356 727 LINE",
"1075 727 LINE",
"1075 1251 LINE",
"1212 1251 LINE SMOOTH",
"1353 1251 OFFCURVE",
"1461 1246 OFFCURVE",
"1536 1237 CURVE",
"1569 1020 LINE",
"1634 1020 LINE",
"1634 1341 LINE",
"639 1341 LINE",
"639 1288 LINE",
"803 1270 LINE",
"156 80 LINE",
"20 53 LINE",
"20 0 LINE",
"422 0 LINE",
"422 53 LINE",
"264 80 LINE",
"471 467 LINE",
"883 467 LINE",
"883 80 LINE",
"731 53 LINE"
);
},
{
closed = 1;
nodes = (
"520 557 LINE",
"883 1231 LINE",
"883 557 LINE"
);
}
);
width = 1821;
}
);
note = AE;
unicode = 00C6;
},
{
glyphname = Oslash;
lastChange = "2025-02-05 21:33:40 +0000";
layers = (
{
layerId = "E3E67A92-B1FB-4433-B88A-D288516649AC";
paths = (
{
closed = 1;
nodes = (
"84 441 OFFCURVE",
"141 267 OFFCURVE",
"256 150 CURVE",
"86 -55 LINE",
"205 -55 LINE",
"326 90 LINE",
"429 17 OFFCURVE",
"566 -20 OFFCURVE",
"739 -20 CURVE SMOOTH",
"1166 -20 OFFCURVE",
"1395 216 OFFCURVE",
"1395 672 CURVE SMOOTH",
"1395 896 OFFCURVE",
"1338 1067 OFFCURVE",
"1225 1186 CURVE",
"1395 1391 LINE",
"1280 1391 LINE",
"1157 1243 LINE",
"1051 1318 OFFCURVE",
"912 1356 OFFCURVE",
"739 1356 CURVE SMOOTH",
"302 1356 OFFCURVE",
"84 1128 OFFCURVE",
"84 672 CURVE SMOOTH"
);
},
{
closed = 1;
nodes = (
"293 1100 OFFCURVE",
"431 1276 OFFCURVE",
"739 1276 CURVE SMOOTH",
"890 1276 OFFCURVE",
"1001 1230 OFFCURVE",
"1073 1139 CURVE",
"358 274 LINE",
"315 371 OFFCURVE",
"293 503 OFFCURVE",
"293 672 CURVE SMOOTH"
);
},
{
closed = 1;
nodes = (
"1186 241 OFFCURVE",
"1044 59 OFFCURVE",
"739 59 CURVE SMOOTH",
"590 59 OFFCURVE",
"481 104 OFFCURVE",
"410 193 CURVE",
"1122 1059 LINE",
"1165 964 OFFCURVE",
"1186 835 OFFCURVE",
"1186 672 CURVE SMOOTH"
);
}
);
width = 1479;
}
);
note = Oslash;
unicode = 00D8;
},
{
glyphname = infinity;
lastChange = "2025-02-05 21:33:40 +0000";
layers = (
{
layerId = "E3E67A92-B1FB-4433-B88A-D288516649AC";
paths = (
{
closed = 1;
nodes = (
"1382 819 OFFCURVE",
"1258 977 OFFCURVE",
"1069 977 CURVE SMOOTH",
"929 977 OFFCURVE",
"828 892 OFFCURVE",
"743 725 CURVE",
"656 898 OFFCURVE",
"535 983 OFFCURVE",
"395 983 CURVE SMOOTH",
"208 983 OFFCURVE",
"77 821 OFFCURVE",
"77 596 CURVE SMOOTH",
"77 363 OFFCURVE",
"206 209 OFFCURVE",
"395 209 CURVE SMOOTH",
"519 209 OFFCURVE",
"631 298 OFFCURVE",
"716 467 CURVE",
"810 291 OFFCURVE",
"927 203 OFFCURVE",
"1067 203 CURVE SMOOTH",
"1248 203 OFFCURVE",
"1382 370 OFFCURVE",
"1382 590 CURVE SMOOTH"
);
},
{
closed = 1;
nodes = (
"1217 872 OFFCURVE",
"1307 752 OFFCURVE",
"1307 592 CURVE SMOOTH",
"1307 425 OFFCURVE",
"1218 307 OFFCURVE",
"1090 307 CURVE SMOOTH",
"975 307 OFFCURVE",
"891 402 OFFCURVE",
"811 590 CURVE",
"896 779 OFFCURVE",
"981 872 OFFCURVE",
"1088 872 CURVE SMOOTH"
);
},
{
closed = 1;
nodes = (
"564 407 OFFCURVE",
"477 313 OFFCURVE",
"369 313 CURVE SMOOTH",
"237 313 OFFCURVE",
"153 426 OFFCURVE",
"153 594 CURVE SMOOTH",
"153 759 OFFCURVE",
"241 879 OFFCURVE",
"365 879 CURVE SMOOTH",
"485 879 OFFCURVE",
"569 783 OFFCURVE",
"645 596 CURVE"
);
}
);
width = 1460;
}
);
note = infinity;
unicode = 221E;
},
{
glyphname = plusminus;
lastChange = "2025-02-05 21:33:40 +0000";
layers = (
{
layerId = "E3E67A92-B1FB-4433-B88A-D288516649AC";
paths = (
{
closed = 1;
nodes = (
"1038 629 LINE",
"1038 731 LINE",
"612 731 LINE",
"612 1157 LINE",
"509 1157 LINE",
"509 731 LINE",
"85 731 LINE",
"85 629 LINE",
"509 629 LINE",
"509 203 LINE",
"612 203 LINE",
"612 629 LINE"
);
},
{
closed = 1;
nodes = (
"85 102 LINE",
"85 0 LINE",
"1038 0 LINE",
"1038 102 LINE"
);
}
);
width = 1124;
}
);
note = plusminus;
unicode = 00B1;
},
{
glyphname = lessequal;
lastChange = "2025-02-05 21:33:40 +0000";
layers = (
{
layerId = "E3E67A92-B1FB-4433-B88A-D288516649AC";
paths = (
{
closed = 1;
nodes = (
"1038 186 LINE",
"1038 289 LINE",
"229 680 LINE",
"1038 1071 LINE",
"1038 1174 LINE",
"85 705 LINE",
"85 655 LINE"
);
},
{
closed = 1;
nodes = (
"85 102 LINE",
"85 0 LINE",
"1038 0 LINE",
"1038 102 LINE"
);
}
);
width = 1124;
}
);
note = lessequal;
unicode = 2264;
},
{
glyphname = greaterequal;
lastChange = "2025-02-05 21:33:40 +0000";
layers = (
{
layerId = "E3E67A92-B1FB-4433-B88A-D288516649AC";
paths = (
{
closed = 1;
nodes = (
"1039 655 LINE",
"1039 705 LINE",
"86 1174 LINE",
"86 1071 LINE",
"895 680 LINE",
"86 289 LINE",
"86 186 LINE"
);
},
{
closed = 1;
nodes = (
"84 102 LINE",
"84 0 LINE",
"1037 0 LINE",
"1037 102 LINE"
);
}
);
width = 1124;
}
);
note = greaterequal;
unicode = 2265;
},
{
glyphname = yen;
lastChange = "2025-02-05 21:33:40 +0000";
layers = (
{
layerId = "E3E67A92-B1FB-4433-B88A-D288516649AC";
paths = (
{
closed = 1;
nodes = (
"606 393 LINE",
"606 528 LINE",
"618 557 LINE",
"885 557 LINE",
"885 639 LINE",
"653 639 LINE",
"918 1262 LINE",
"1022 1288 LINE",
"1022 1341 LINE",
"686 1341 LINE",
"686 1288 LINE",
"809 1262 LINE",
"563 643 LINE",
"324 1262 LINE",
"455 1288 LINE",
"455 1341 LINE",
"2 1341 LINE",
"2 1288 LINE",
"102 1262 LINE",
"365 639 LINE",
"135 639 LINE",
"135 557 LINE",
"399 557 LINE",
"414 522 LINE",
"414 393 LINE",
"135 393 LINE",
"135 311 LINE",
"414 311 LINE",
"414 80 LINE",
"242 53 LINE",
"242 0 LINE",
"778 0 LINE",
"778 53 LINE",
"606 80 LINE",
"606 311 LINE",
"885 311 LINE",
"885 393 LINE"
);
}
);
width = 1024;
}
);
note = yen;
unicode = 00A5;
},
{
glyphname = uni00B5;
lastChange = "2025-02-05 21:33:40 +0000";
layers = (
{
layerId = "E3E67A92-B1FB-4433-B88A-D288516649AC";
paths = (
{
closed = 1;
nodes = (
"835 0 LINE",
"1113 0 LINE",
"1113 45 LINE",
"976 70 LINE",
"976 940 LINE",
"669 940 LINE",
"669 895 LINE",
"811 870 LINE",
"811 183 LINE",
"739 131 OFFCURVE",
"647 96 OFFCURVE",
"579 96 CURVE SMOOTH",
"451 96 OFFCURVE",
"372 172 OFFCURVE",
"372 288 CURVE SMOOTH",
"372 940 LINE",
"66 940 LINE",
"66 895 LINE",
"206 870 LINE",
"206 69 LINE SMOOTH",
"206 -90 OFFCURVE",
"182 -302 OFFCURVE",
"154 -391 CURVE",
"154 -436 LINE",
"332 -436 LINE",
"355 -299 OFFCURVE",
"366 -134 OFFCURVE",
"366 58 CURVE",
"407 6 OFFCURVE",
"467 -20 OFFCURVE",
"546 -20 CURVE SMOOTH",
"622 -20 OFFCURVE",
"695 10 OFFCURVE",
"816 121 CURVE"
);
}
);
width = 1180;
}
);
note = uni00B5;
unicode = 00B5;
},
{
glyphname = partialdiff;
lastChange = "2025-02-05 21:33:40 +0000";
layers = (
{
layerId = "E3E67A92-B1FB-4433-B88A-D288516649AC";
paths = (
{
closed = 1;
nodes = (
"928 1287 OFFCURVE",
"793 1477 OFFCURVE",
"549 1477 CURVE SMOOTH",
"497 1477 OFFCURVE",
"445 1465 OFFCURVE",
"392 1442 CURVE",
"287 1292 LINE",
"323 1259 LINE",
"404 1315 OFFCURVE",
"480 1343 OFFCURVE",
"551 1343 CURVE SMOOTH",
"740 1343 OFFCURVE",
"842 1177 OFFCURVE",
"842 874 CURVE",
"838 758 LINE",
"834 758 LINE",
"789 869 OFFCURVE",
"688 940 OFFCURVE",
"564 940 CURVE SMOOTH",
"383 940 OFFCURVE",
"231 839 OFFCURVE",
"138 638 CURVE SMOOTH",
"91 537 OFFCURVE",
"68 435 OFFCURVE",
"68 332 CURVE SMOOTH",
"68 103 OFFCURVE",
"185 -27 OFFCURVE",
"388 -27 CURVE SMOOTH",
"553 -27 OFFCURVE",
"689 69 OFFCURVE",
"785 253 CURVE SMOOTH",
"880 436 OFFCURVE",
"928 711 OFFCURVE",
"928 938 CURVE SMOOTH"
);
},
{
closed = 1;
nodes = (
"784 407 OFFCURVE",
"704 208 OFFCURVE",
"606 114 CURVE SMOOTH",
"557 67 OFFCURVE",
"505 43 OFFCURVE",
"451 43 CURVE SMOOTH",
"332 43 OFFCURVE",
"258 140 OFFCURVE",
"258 305 CURVE SMOOTH",
"258 490 OFFCURVE",
"330 695 OFFCURVE",
"430 787 CURVE SMOOTH",
"480 833 OFFCURVE",
"535 856 OFFCURVE",
"596 856 CURVE SMOOTH",
"700 856 OFFCURVE",
"789 766 OFFCURVE",
"813 643 CURVE"
);
}
);
width = 1012;
}
);
note = partialdiff;
unicode = 2202;
},
{
glyphname = summation;
lastChange = "2025-02-05 21:33:40 +0000";
layers = (
{
layerId = "E3E67A92-B1FB-4433-B88A-D288516649AC";
paths = (
{
closed = 1;
nodes = (
"378 1251 LINE",
"782 1249 LINE",
"922 1249 LINE SMOOTH",
"999 1249 OFFCURVE",
"1070 1245 OFFCURVE",
"1134 1237 CURVE",
"1176 990 LINE",
"1242 990 LINE",
"1242 1341 LINE",
"137 1341 LINE",
"137 1262 LINE",
"670 481 LINE",
"92 -362 LINE",
"92 -436 LINE",
"1298 -436 LINE",
"1317 -22 LINE",
"1251 -22 LINE",
"1194 -250 LINE",
"1174 -254 OFFCURVE",
"1114 -256 OFFCURVE",
"1004 -261 CURVE SMOOTH",
"903 -265 OFFCURVE",
"806 -266 OFFCURVE",
"719 -266 CURVE SMOOTH",
"274 -266 LINE",
"831 548 LINE",
"831 587 LINE"
);
}
);
width = 1460;
}
);
note = summation;
unicode = 2211;
},
{
glyphname = product;
lastChange = "2025-02-05 21:33:40 +0000";
layers = (
{
layerId = "E3E67A92-B1FB-4433-B88A-D288516649AC";
paths = (
{
closed = 1;
nodes = (
"651 -436 LINE",
"651 -383 LINE",
"479 -356 LINE",
"479 1251 LINE",
"1210 1251 LINE",
"1210 -356 LINE",
"1038 -383 LINE",
"1038 -436 LINE",
"1574 -436 LINE",
"1574 -383 LINE",
"1402 -356 LINE",
"1402 1262 LINE",
"1574 1288 LINE",
"1574 1341 LINE",
"114 1341 LINE",
"114 1288 LINE",
"286 1262 LINE",
"286 -356 LINE",
"114 -383 LINE",
"114 -436 LINE"
);
}
);
width = 1686;
}
);
note = product;
unicode = 220F;
},
{
glyphname = integral;
lastChange = "2025-02-05 21:33:40 +0000";
layers = (
{
layerId = "E3E67A92-B1FB-4433-B88A-D288516649AC";
paths = (
{
closed = 1;
nodes = (
"109 -549 OFFCURVE",
"224 -466 OFFCURVE",
"292 -341 CURVE SMOOTH",
"325 -278 OFFCURVE",
"344 -210 OFFCURVE",
"348 -137 CURVE SMOOTH",
"361 307 LINE",
"364 541 LINE",
"360 1079 LINE SMOOTH",
"360 1162 OFFCURVE",
"372 1229 OFFCURVE",
"395 1282 CURVE SMOOTH",
"418 1334 OFFCURVE",
"448 1360 OFFCURVE",
"483 1360 CURVE SMOOTH",
"521 1360 OFFCURVE",
"563 1337 OFFCURVE",
"610 1290 CURVE",
"631 1290 LINE",
"647 1355 LINE",
"665 1421 LINE",
"665 1430 LINE",
"645 1446 OFFCURVE",
"569 1462 OFFCURVE",
"536 1462 CURVE SMOOTH",
"443 1462 OFFCURVE",
"323 1374 OFFCURVE",
"257 1248 CURVE SMOOTH",
"224 1185 OFFCURVE",
"205 1118 OFFCURVE",
"200 1047 CURVE SMOOTH",
"191 865 OFFCURVE",
"186 685 OFFCURVE",
"186 506 CURVE SMOOTH",
"192 -166 LINE SMOOTH",
"192 -248 OFFCURVE",
"180 -315 OFFCURVE",
"157 -367 CURVE SMOOTH",
"134 -420 OFFCURVE",
"104 -446 OFFCURVE",
"69 -446 CURVE SMOOTH",
"30 -446 OFFCURVE",
"-12 -423 OFFCURVE",
"-58 -377 CURVE",
"-78 -377 LINE",
"-83 -408 OFFCURVE",
"-102 -491 OFFCURVE",
"-107 -508 CURVE",
"-107 -516 LINE",
"-91 -529 OFFCURVE",
"-23 -549 OFFCURVE",
"16 -549 CURVE SMOOTH"
);
}
);
width = 561;
}
);
note = integral;
unicode = 222B;
},
{
glyphname = ordfeminine;
lastChange = "2025-02-05 21:33:40 +0000";
layers = (
{
layerId = "E3E67A92-B1FB-4433-B88A-D288516649AC";
paths = (
{
closed = 1;
nodes = (
"215 1362 OFFCURVE",
"155 1355 OFFCURVE",
"100 1341 CURVE",
"100 1219 LINE",
"143 1219 LINE",
"164 1278 LINE",
"196 1297 OFFCURVE",
"233 1307 OFFCURVE",
"274 1307 CURVE SMOOTH",
"339 1307 OFFCURVE",
"371 1270 OFFCURVE",
"371 1196 CURVE SMOOTH",
"371 1116 LINE",
"287 1114 LINE SMOOTH",
"104 1110 OFFCURVE",
"35 1051 OFFCURVE",
"35 942 CURVE SMOOTH",
"35 831 OFFCURVE",
"87 774 OFFCURVE",
"184 774 CURVE SMOOTH",
"255 774 OFFCURVE",
"332 805 OFFCURVE",
"375 848 CURVE",
"387 786 LINE",
"561 786 LINE",
"561 823 LINE",
"492 838 LINE",
"492 1190 LINE SMOOTH",
"492 1301 OFFCURVE",
"428 1362 OFFCURVE",
"281 1362 CURVE SMOOTH"
);
},
{
closed = 1;
nodes = (
"371 889 LINE",
"324 863 OFFCURVE",
"281 850 OFFCURVE",
"242 850 CURVE SMOOTH",
"183 850 OFFCURVE",
"156 874 OFFCURVE",
"156 946 CURVE SMOOTH",
"156 1063 OFFCURVE",
"209 1059 OFFCURVE",
"371 1063 CURVE"
);
}
);
width = 565;
}
);
note = ordfeminine;
unicode = 00AA;
},
{
glyphname = ordmasculine;
lastChange = "2025-02-05 21:33:40 +0000";
layers = (
{
layerId = "E3E67A92-B1FB-4433-B88A-D288516649AC";
paths = (
{
closed = 1;
nodes = (
"598 1252 OFFCURVE",
"496 1362 OFFCURVE",
"319 1362 CURVE SMOOTH",
"142 1362 OFFCURVE",
"37 1261 OFFCURVE",
"37 1069 CURVE SMOOTH",
"37 877 OFFCURVE",
"141 770 OFFCURVE",
"313 770 CURVE SMOOTH",
"496 770 OFFCURVE",
"598 876 OFFCURVE",
"598 1069 CURVE SMOOTH"
);
},
{
closed = 1;
nodes = (
"469 894 OFFCURVE",
"422 829 OFFCURVE",
"313 829 CURVE SMOOTH",
"212 829 OFFCURVE",
"166 889 OFFCURVE",
"166 1069 CURVE SMOOTH",
"166 1248 OFFCURVE",
"210 1305 OFFCURVE",
"313 1305 CURVE SMOOTH",
"422 1305 OFFCURVE",
"469 1241 OFFCURVE",
"469 1069 CURVE SMOOTH"
);
}
);
width = 635;
}
);
note = ordmasculine;
unicode = 00BA;
},
{
glyphname = uni2126;
lastChange = "2025-02-05 21:33:40 +0000";
layers = (
{
layerId = "E3E67A92-B1FB-4433-B88A-D288516649AC";
paths = (
{
closed = 1;
nodes = (
"1087 1276 OFFCURVE",
"1232 1133 OFFCURVE",
"1232 801 CURVE SMOOTH",
"1232 536 OFFCURVE",
"1106 371 OFFCURVE",
"879 343 CURVE",
"852 0 LINE",
"1421 0 LINE",
"1440 330 LINE",
"1374 330 LINE",
"1317 186 LINE",
"1264 175 OFFCURVE",
"1169 170 OFFCURVE",
"1033 170 CURVE SMOOTH",
"961 170 LINE",
"971 271 LINE",
"1256 315 OFFCURVE",
"1441 520 OFFCURVE",
"1441 801 CURVE SMOOTH",
"1441 1164 OFFCURVE",
"1217 1356 OFFCURVE",
"786 1356 CURVE SMOOTH",
"355 1356 OFFCURVE",
"131 1164 OFFCURVE",
"131 801 CURVE SMOOTH",
"131 520 OFFCURVE",
"314 315 OFFCURVE",
"601 271 CURVE",
"611 170 LINE",
"539 170 LINE SMOOTH",
"403 170 OFFCURVE",
"308 175 OFFCURVE",
"255 186 CURVE",
"198 330 LINE",
"132 330 LINE",
"151 0 LINE",
"720 0 LINE",
"693 343 LINE",
"468 371 OFFCURVE",
"340 536 OFFCURVE",
"340 801 CURVE SMOOTH",
"340 1132 OFFCURVE",
"485 1276 OFFCURVE",
"786 1276 CURVE SMOOTH"
);
}
);
width = 1573;
}
);
note = uni2126;
unicode = 2126;
},
{
glyphname = ae;
lastChange = "2025-02-05 21:33:40 +0000";
layers = (
{
layerId = "E3E67A92-B1FB-4433-B88A-D288516649AC";
paths = (
{
closed = 1;
nodes = (
"1298 473 LINE",
"1298 555 LINE SMOOTH",
"1298 824 OFFCURVE",
"1179 965 OFFCURVE",
"946 965 CURVE SMOOTH",
"842 965 OFFCURVE",
"761 939 OFFCURVE",
"702 887 CURVE",
"655 936 OFFCURVE",
"576 961 OFFCURVE",
"465 961 CURVE SMOOTH",
"383 961 OFFCURVE",
"288 949 OFFCURVE",
"180 926 CURVE",
"180 721 LINE",
"236 721 LINE",
"270 838 LINE",
"325 869 OFFCURVE",
"386 885 OFFCURVE",
"453 885 CURVE SMOOTH",
"552 885 OFFCURVE",
"598 825 OFFCURVE",
"598 696 CURVE SMOOTH",
"598 549 LINE",
"457 545 LINE SMOOTH",
"254 541 OFFCURVE",
"157 498 OFFCURVE",
"109 416 CURVE SMOOTH",
"84 375 OFFCURVE",
"72 323 OFFCURVE",
"72 260 CURVE SMOOTH",
"72 73 OFFCURVE",
"152 -20 OFFCURVE",
"313 -20 CURVE SMOOTH",
"442 -20 OFFCURVE",
"554 23 OFFCURVE",
"651 109 CURVE",
"712 23 OFFCURVE",
"820 -20 OFFCURVE",
"973 -20 CURVE SMOOTH",
"1084 -20 OFFCURVE",
"1195 14 OFFCURVE",
"1262 57 CURVE",
"1262 113 LINE",
"1198 98 OFFCURVE",
"1084 84 OFFCURVE",
"1012 84 CURVE SMOOTH",
"830 84 OFFCURVE",
"767 169 OFFCURVE",
"764 383 CURVE SMOOTH",
"764 473 LINE"
);
},
{
closed = 1;
nodes = (
"286 90 OFFCURVE",
"238 149 OFFCURVE",
"238 266 CURVE SMOOTH",
"238 413 OFFCURVE",
"288 468 OFFCURVE",
"467 475 CURVE SMOOTH",
"598 479 LINE",
"598 319 LINE SMOOTH",
"598 255 OFFCURVE",
"613 181 OFFCURVE",
"625 158 CURVE",
"539 113 OFFCURVE",
"458 90 OFFCURVE",
"381 90 CURVE SMOOTH"
);
},
{
closed = 1;
nodes = (
"1067 885 OFFCURVE",
"1124 781 OFFCURVE",
"1124 553 CURVE",
"764 553 LINE",
"764 798 OFFCURVE",
"819 885 OFFCURVE",
"946 885 CURVE SMOOTH"
);
}
);
width = 1366;
}
);
note = ae;
unicode = 00E6;
},
{
glyphname = oslash;
lastChange = "2025-02-05 21:33:40 +0000";
layers = (
{
layerId = "E3E67A92-B1FB-4433-B88A-D288516649AC";
paths = (
{
closed = 1;
nodes = (
"848 1022 LINE",
"764 901 LINE",
"697 944 OFFCURVE",
"613 965 OFFCURVE",
"514 965 CURVE SMOOTH",
"221 965 OFFCURVE",
"78 792 OFFCURVE",
"78 475 CURVE SMOOTH",
"78 304 OFFCURVE",
"118 177 OFFCURVE",
"197 94 CURVE",
"70 -84 LINE",
"178 -84 LINE",
"264 39 LINE",
"329 0 OFFCURVE",
"409 -20 OFFCURVE",
"506 -20 CURVE SMOOTH",
"799 -20 OFFCURVE",
"946 145 OFFCURVE",
"946 475 CURVE SMOOTH",
"946 639 OFFCURVE",
"907 763 OFFCURVE",
"829 848 CURVE",
"952 1022 LINE"
);
},
{
closed = 1;
nodes = (
"258 774 OFFCURVE",
"331 885 OFFCURVE",
"506 885 CURVE SMOOTH",
"589 885 OFFCURVE",
"651 857 OFFCURVE",
"692 801 CURVE",
"287 223 LINE",
"268 284 OFFCURVE",
"258 368 OFFCURVE",
"258 475 CURVE SMOOTH"
);
},
{
closed = 1;
nodes = (
"766 182 OFFCURVE",
"682 59 OFFCURVE",
"506 59 CURVE SMOOTH",
"429 59 OFFCURVE",
"370 84 OFFCURVE",
"330 135 CURVE",
"735 715 LINE",
"756 653 OFFCURVE",
"766 573 OFFCURVE",
"766 475 CURVE SMOOTH"
);
}
);
width = 1024;
}
);
note = oslash;
unicode = 00F8;
},
{
glyphname = questiondown;
lastChange = "2025-02-05 21:33:40 +0000";
layers = (
{
layerId = "E3E67A92-B1FB-4433-B88A-D288516649AC";
paths = (
{
closed = 1;
nodes = (
"457 322 LINE",
"399 309 LINE SMOOTH",
"194 266 OFFCURVE",
"84 131 OFFCURVE",
"84 -84 CURVE SMOOTH",
"84 -311 OFFCURVE",
"225 -424 OFFCURVE",
"508 -424 CURVE SMOOTH",
"606 -424 OFFCURVE",
"704 -410 OFFCURVE",
"803 -381 CURVE",
"803 -127 LINE",
"737 -127 LINE",
"702 -291 LINE",
"647 -324 OFFCURVE",
"583 -340 OFFCURVE",
"508 -340 CURVE SMOOTH",
"332 -340 OFFCURVE",
"268 -269 OFFCURVE",
"268 -72 CURVE SMOOTH",
"268 107 OFFCURVE",
"317 196 OFFCURVE",
"432 219 CURVE SMOOTH",
"575 248 LINE",
"549 582 LINE",
"469 582 LINE"
);
},
{
closed = 1;
nodes = (
"379 772 OFFCURVE",
"432 719 OFFCURVE",
"500 719 CURVE SMOOTH",
"565 719 OFFCURVE",
"621 771 OFFCURVE",
"621 840 CURVE SMOOTH",
"621 907 OFFCURVE",
"567 961 OFFCURVE",
"500 961 CURVE SMOOTH",
"431 961 OFFCURVE",
"379 905 OFFCURVE",
"379 840 CURVE SMOOTH"
);
}
);
width = 909;
}
);
note = questiondown;
unicode = 00BF;
},
{
glyphname = exclamdown;
lastChange = "2025-02-05 21:33:40 +0000";
layers = (
{
layerId = "E3E67A92-B1FB-4433-B88A-D288516649AC";
paths = (
{
closed = 1;
nodes = (
"219 772 OFFCURVE",
"272 719 OFFCURVE",
"340 719 CURVE SMOOTH",
"408 719 OFFCURVE",
"461 772 OFFCURVE",
"461 840 CURVE SMOOTH",
"461 905 OFFCURVE",
"409 961 OFFCURVE",
"340 961 CURVE SMOOTH",
"271 961 OFFCURVE",
"219 905 OFFCURVE",
"219 840 CURVE SMOOTH"
);
},
{
closed = 1;
nodes = (
"387 543 LINE",
"293 543 LINE",
"231 -410 LINE",
"449 -410 LINE"
);
}
);
width = 682;
}
);
note = exclamdown;
unicode = 00A1;
},
{
glyphname = logicalnot;
lastChange = "2025-02-05 21:33:40 +0000";
layers = (
{
layerId = "E3E67A92-B1FB-4433-B88A-D288516649AC";
paths = (
{
closed = 1;
nodes = (
"102 731 LINE",
"102 629 LINE",
"952 629 LINE",
"952 203 LINE",
"1055 203 LINE",
"1055 731 LINE"
);
}
);
width = 1155;
}
);
note = logicalnot;
unicode = 00AC;
},
{
glyphname = radical;
lastChange = "2025-02-05 21:33:40 +0000";
layers = (
{
layerId = "E3E67A92-B1FB-4433-B88A-D288516649AC";
paths = (
{
closed = 1;
nodes = (
"1122 1620 LINE",
"1032 1620 LINE",
"580 158 LINE",
"322 895 LINE",
"51 895 LINE",
"51 815 LINE",
"219 815 LINE",
"516 -14 LINE",
"623 -14 LINE"
);
}
);
width = 1124;
}
);
note = radical;
unicode = 221A;
},
{
glyphname = florin;
lastChange = "2025-02-05 21:33:40 +0000";
layers = (
{
layerId = "E3E67A92-B1FB-4433-B88A-D288516649AC";
paths = (
{
closed = 1;
nodes = (
"362 -285 LINE",
"528 -285 LINE",
"528 702 LINE",
"778 702 LINE",
"778 786 LINE",
"528 786 LINE",
"528 1016 LINE SMOOTH",
"528 1117 OFFCURVE",
"537 1186 OFFCURVE",
"554 1225 CURVE SMOOTH",
"571 1263 OFFCURVE",
"600 1282 OFFCURVE",
"643 1282 CURVE SMOOTH",
"680 1282 OFFCURVE",
"704 1274 OFFCURVE",
"725 1261 CURVE",
"770 1138 LINE",
"819 1138 LINE",
"819 1343 LINE",
"782 1354 OFFCURVE",
"736 1362 OFFCURVE",
"676 1362 CURVE SMOOTH",
"477 1362 OFFCURVE",
"362 1207 OFFCURVE",
"362 930 CURVE SMOOTH",
"362 790 LINE",
"200 751 LINE",
"200 702 LINE",
"362 702 LINE"
);
}
);
width = 1024;
}
);
note = florin;
unicode = 0192;
},
{
glyphname = approxequal;
lastChange = "2025-02-05 21:33:40 +0000";
layers = (
{
layerId = "E3E67A92-B1FB-4433-B88A-D288516649AC";
paths = (
{
closed = 1;
nodes = (
"889 711 OFFCURVE",
"957 764 OFFCURVE",
"1000 856 CURVE SMOOTH",
"1021 902 OFFCURVE",
"1038 968 OFFCURVE",
"1049 1055 CURVE",
"946 1055 LINE",
"921 872 OFFCURVE",
"872 813 OFFCURVE",
"780 813 CURVE SMOOTH",
"757 813 OFFCURVE",
"731 821 OFFCURVE",
"704 838 CURVE SMOOTH",
"676 854 OFFCURVE",
"633 886 OFFCURVE",
"576 934 CURVE SMOOTH",
"476 1018 OFFCURVE",
"401 1055 OFFCURVE",
"326 1055 CURVE SMOOTH",
"169 1055 OFFCURVE",
"81 960 OFFCURVE",
"57 711 CURVE",
"158 711 LINE",
"175 887 OFFCURVE",
"223 952 OFFCURVE",
"326 952 CURVE SMOOTH",
"377 952 OFFCURVE",
"436 916 OFFCURVE",
"535 832 CURVE SMOOTH",
"628 751 OFFCURVE",
"709 711 OFFCURVE",
"780 711 CURVE SMOOTH"
);
},
{
closed = 1;
nodes = (
"889 301 OFFCURVE",
"957 354 OFFCURVE",
"1000 446 CURVE SMOOTH",
"1021 492 OFFCURVE",
"1038 558 OFFCURVE",
"1049 645 CURVE",
"946 645 LINE",
"921 462 OFFCURVE",
"872 403 OFFCURVE",
"780 403 CURVE SMOOTH",
"757 403 OFFCURVE",
"731 411 OFFCURVE",
"704 428 CURVE SMOOTH",
"676 444 OFFCURVE",
"633 476 OFFCURVE",
"576 524 CURVE SMOOTH",
"476 608 OFFCURVE",
"401 645 OFFCURVE",
"326 645 CURVE SMOOTH",
"169 645 OFFCURVE",
"81 550 OFFCURVE",
"57 301 CURVE",
"158 301 LINE",
"175 477 OFFCURVE",
"223 542 OFFCURVE",
"326 542 CURVE SMOOTH",
"377 542 OFFCURVE",
"436 506 OFFCURVE",
"535 422 CURVE SMOOTH",
"628 341 OFFCURVE",
"709 301 OFFCURVE",
"780 301 CURVE SMOOTH"
);
}
);
width = 1124;
}
);
note = approxequal;
unicode = 2248;
},
{
glyphname = uni2206;
lastChange = "2025-02-05 21:33:40 +0000";
layers = (
{
layerId = "E3E67A92-B1FB-4433-B88A-D288516649AC";
paths = (
{
closed = 1;
nodes = (
"1207 80 LINE",
"712 1352 LINE",
"522 1352 LINE",
"45 80 LINE",
"46 0 LINE",
"1207 0 LINE"
);
},
{
closed = 1;
nodes = (
"979 109 LINE",
"173 109 LINE",
"573 1196 LINE"
);
}
);
width = 1253;
}
);
note = uni2206;
unicode = 2206;
},
{
glyphname = guillemotleft;
lastChange = "2025-02-05 21:33:40 +0000";
layers = (
{
layerId = "E3E67A92-B1FB-4433-B88A-D288516649AC";
paths = (
{
closed = 1;
nodes = (
"117 430 LINE",
"451 74 LINE",
"532 74 LINE",
"305 463 LINE",
"532 852 LINE",
"451 852 LINE",
"117 496 LINE"
);
},
{
closed = 1;
nodes = (
"526 430 LINE",
"861 74 LINE",
"942 74 LINE",
"714 463 LINE",
"942 852 LINE",
"861 852 LINE",
"526 496 LINE"
);
}
);
width = 1024;
}
);
note = guillemotleft;
unicode = 00AB;
},
{
glyphname = guillemotright;
lastChange = "2025-02-05 21:33:40 +0000";
layers = (
{
layerId = "E3E67A92-B1FB-4433-B88A-D288516649AC";
paths = (
{
closed = 1;
nodes = (
"907 496 LINE",
"573 852 LINE",
"492 852 LINE",
"719 463 LINE",
"492 74 LINE",
"573 74 LINE",
"907 430 LINE"
);
},
{
closed = 1;
nodes = (
"498 496 LINE",
"163 852 LINE",
"82 852 LINE",
"310 463 LINE",
"82 74 LINE",
"163 74 LINE",
"498 430 LINE"
);
}
);
width = 1024;
}
);
note = guillemotright;
unicode = 00BB;
},
{
glyphname = ellipsis;
lastChange = "2025-02-05 21:33:40 +0000";
layers = (
{
layerId = "E3E67A92-B1FB-4433-B88A-D288516649AC";
paths = (
{
closed = 1;
nodes = (
"459 160 OFFCURVE",
"406 213 OFFCURVE",
"338 213 CURVE SMOOTH",
"270 213 OFFCURVE",
"217 160 OFFCURVE",
"217 92 CURVE SMOOTH",
"217 27 OFFCURVE",
"269 -29 OFFCURVE",
"338 -29 CURVE SMOOTH",
"407 -29 OFFCURVE",
"459 27 OFFCURVE",
"459 92 CURVE SMOOTH"
);
},
{
closed = 1;
nodes = (
"1145 160 OFFCURVE",
"1092 213 OFFCURVE",
"1024 213 CURVE SMOOTH",
"956 213 OFFCURVE",
"903 160 OFFCURVE",
"903 92 CURVE SMOOTH",
"903 27 OFFCURVE",
"955 -29 OFFCURVE",
"1024 -29 CURVE SMOOTH",
"1093 -29 OFFCURVE",
"1145 27 OFFCURVE",
"1145 92 CURVE SMOOTH"
);
},
{
closed = 1;
nodes = (
"1831 160 OFFCURVE",
"1778 213 OFFCURVE",
"1710 213 CURVE SMOOTH",
"1642 213 OFFCURVE",
"1589 160 OFFCURVE",
"1589 92 CURVE SMOOTH",
"1589 27 OFFCURVE",
"1641 -29 OFFCURVE",
"1710 -29 CURVE SMOOTH",
"1779 -29 OFFCURVE",
"1831 27 OFFCURVE",
"1831 92 CURVE SMOOTH"
);
}
);
width = 2048;
}
);
note = ellipsis;
unicode = 2026;
},
{
glyphname = OE;
lastChange = "2025-02-05 21:33:40 +0000";
layers = (
{
layerId = "E3E67A92-B1FB-4433-B88A-D288516649AC";
paths = (
{
closed = 1;
nodes = (
"1700 0 LINE",
"1718 354 LINE",
"1653 354 LINE",
"1595 106 LINE",
"1542 95 OFFCURVE",
"1429 90 OFFCURVE",
"1257 90 CURVE SMOOTH",
"1075 90 LINE",
"1075 637 LINE",
"1356 637 LINE",
"1386 475 LINE",
"1450 475 LINE",
"1450 887 LINE",
"1386 887 LINE",
"1356 727 LINE",
"1075 727 LINE",
"1075 1251 LINE",
"1212 1251 LINE SMOOTH",
"1353 1251 OFFCURVE",
"1461 1246 OFFCURVE",
"1536 1237 CURVE",
"1569 1020 LINE",
"1634 1020 LINE",
"1634 1341 LINE",
"1012 1341 LINE",
"739 1348 LINE",
"298 1348 OFFCURVE",
"84 1124 OFFCURVE",
"84 672 CURVE SMOOTH",
"84 223 OFFCURVE",
"306 -6 OFFCURVE",
"739 -6 CURVE SMOOTH",
"1016 0 LINE"
);
},
{
closed = 1;
nodes = (
"431 74 OFFCURVE",
"293 245 OFFCURVE",
"293 672 CURVE SMOOTH",
"293 1097 OFFCURVE",
"431 1268 OFFCURVE",
"739 1268 CURVE SMOOTH",
"800 1268 OFFCURVE",
"848 1264 OFFCURVE",
"881 1257 CURVE",
"881 84 LINE",
"838 77 OFFCURVE",
"791 74 OFFCURVE",
"739 74 CURVE SMOOTH"
);
}
);
width = 1821;
}
);
note = OE;
unicode = 0152;
},
{
glyphname = oe;
lastChange = "2025-02-05 21:33:40 +0000";
layers = (
{
layerId = "E3E67A92-B1FB-4433-B88A-D288516649AC";
paths = (
{
closed = 1;
nodes = (
"1407 473 LINE",
"1407 555 LINE SMOOTH",
"1407 828 OFFCURVE",
"1292 965 OFFCURVE",
"1063 965 CURVE SMOOTH",
"932 965 OFFCURVE",
"835 920 OFFCURVE",
"772 829 CURVE",
"706 920 OFFCURVE",
"606 965 OFFCURVE",
"473 965 CURVE SMOOTH",
"206 965 OFFCURVE",
"78 792 OFFCURVE",
"78 475 CURVE SMOOTH",
"78 152 OFFCURVE",
"208 -20 OFFCURVE",
"465 -20 CURVE SMOOTH",
"602 -20 OFFCURVE",
"704 24 OFFCURVE",
"770 111 CURVE",
"835 24 OFFCURVE",
"940 -20 OFFCURVE",
"1085 -20 CURVE SMOOTH",
"1189 -20 OFFCURVE",
"1307 14 OFFCURVE",
"1370 57 CURVE",
"1370 113 LINE",
"1313 98 OFFCURVE",
"1205 84 OFFCURVE",
"1137 84 CURVE SMOOTH",
"954 84 OFFCURVE",
"864 188 OFFCURVE",
"864 455 CURVE SMOOTH",
"864 473 LINE"
);
},
{
closed = 1;
nodes = (
"609 885 OFFCURVE",
"677 778 OFFCURVE",
"684 502 CURVE SMOOTH",
"684 475 LINE SMOOTH",
"684 187 OFFCURVE",
"616 59 OFFCURVE",
"465 59 CURVE SMOOTH",
"392 59 OFFCURVE",
"340 91 OFFCURVE",
"307 155 CURVE SMOOTH",
"274 219 OFFCURVE",
"258 326 OFFCURVE",
"258 475 CURVE SMOOTH",
"258 624 OFFCURVE",
"274 729 OFFCURVE",
"307 792 CURVE SMOOTH",
"339 854 OFFCURVE",
"392 885 OFFCURVE",
"465 885 CURVE SMOOTH"
);
},
{
closed = 1;
nodes = (
"1179 885 OFFCURVE",
"1233 788 OFFCURVE",
"1233 553 CURVE",
"866 553 LINE",
"866 772 OFFCURVE",
"935 885 OFFCURVE",
"1063 885 CURVE SMOOTH"
);
}
);
width = 1479;
}
);
note = oe;
unicode = 0153;
},
{
glyphname = endash;
lastChange = "2025-02-05 21:33:40 +0000";
layers = (
{
layerId = "E3E67A92-B1FB-4433-B88A-D288516649AC";
paths = (
{
closed = 1;
nodes = (
"-14 528 LINE",
"-14 426 LINE",
"1038 426 LINE",
"1038 528 LINE"
);
}
);
width = 1024;
}
);
note = endash;
unicode = 2013;
},
{
glyphname = emdash;
lastChange = "2025-02-05 21:33:40 +0000";
layers = (
{
layerId = "E3E67A92-B1FB-4433-B88A-D288516649AC";
paths = (
{
closed = 1;
nodes = (
"-14 528 LINE",
"-14 426 LINE",
"2062 426 LINE",
"2062 528 LINE"
);
}
);
width = 2048;
}
);
note = emdash;
unicode = 2014;
},
{
glyphname = quotedblleft;
lastChange = "2025-02-05 21:33:40 +0000";
layers = (
{
layerId = "E3E67A92-B1FB-4433-B88A-D288516649AC";
paths = (
{
closed = 1;
nodes = (
"518 906 OFFCURVE",
"577 838 OFFCURVE",
"662 838 CURVE SMOOTH",
"731 838 OFFCURVE",
"782 876 OFFCURVE",
"782 948 CURVE SMOOTH",
"782 991 OFFCURVE",
"760 1025 OFFCURVE",
"715 1048 CURVE SMOOTH",
"664 1075 OFFCURVE",
"647 1090 OFFCURVE",
"647 1118 CURVE SMOOTH",
"647 1193 OFFCURVE",
"706 1249 OFFCURVE",
"823 1286 CURVE",
"823 1364 LINE",
"624 1304 OFFCURVE",
"518 1179 OFFCURVE",
"518 999 CURVE SMOOTH"
);
},
{
closed = 1;
nodes = (
"98 906 OFFCURVE",
"157 838 OFFCURVE",
"242 838 CURVE SMOOTH",
"311 838 OFFCURVE",
"362 876 OFFCURVE",
"362 948 CURVE SMOOTH",
"362 991 OFFCURVE",
"340 1025 OFFCURVE",
"295 1048 CURVE SMOOTH",
"244 1075 OFFCURVE",
"227 1090 OFFCURVE",
"227 1118 CURVE SMOOTH",
"227 1193 OFFCURVE",
"286 1249 OFFCURVE",
"403 1286 CURVE",
"403 1364 LINE",
"204 1304 OFFCURVE",
"98 1179 OFFCURVE",
"98 999 CURVE SMOOTH"
);
}
);
width = 909;
}
);
note = quotedblleft;
unicode = 201C;
},
{
glyphname = quotedblright;
lastChange = "2025-02-05 21:33:40 +0000";
layers = (
{
layerId = "E3E67A92-B1FB-4433-B88A-D288516649AC";
paths = (
{
closed = 1;
nodes = (
"391 1300 OFFCURVE",
"329 1362 OFFCURVE",
"248 1362 CURVE SMOOTH",
"177 1362 OFFCURVE",
"127 1323 OFFCURVE",
"127 1251 CURVE SMOOTH",
"127 1208 OFFCURVE",
"150 1175 OFFCURVE",
"195 1152 CURVE SMOOTH",
"244 1127 OFFCURVE",
"262 1108 OFFCURVE",
"262 1081 CURVE SMOOTH",
"262 1006 OFFCURVE",
"203 950 OFFCURVE",
"86 913 CURVE",
"86 836 LINE",
"281 892 OFFCURVE",
"391 1017 OFFCURVE",
"391 1200 CURVE SMOOTH"
);
},
{
closed = 1;
nodes = (
"811 1293 OFFCURVE",
"753 1362 OFFCURVE",
"668 1362 CURVE SMOOTH",
"597 1362 OFFCURVE",
"547 1323 OFFCURVE",
"547 1251 CURVE SMOOTH",
"547 1208 OFFCURVE",
"570 1175 OFFCURVE",
"615 1152 CURVE SMOOTH",
"664 1127 OFFCURVE",
"682 1108 OFFCURVE",
"682 1081 CURVE SMOOTH",
"682 1006 OFFCURVE",
"623 950 OFFCURVE",
"506 913 CURVE",
"506 836 LINE",
"701 892 OFFCURVE",
"811 1017 OFFCURVE",
"811 1200 CURVE SMOOTH"
);
}
);
width = 909;
}
);
note = quotedblright;
unicode = 201D;
},
{
glyphname = quoteleft;
lastChange = "2025-02-05 21:33:40 +0000";
layers = (
{
layerId = "E3E67A92-B1FB-4433-B88A-D288516649AC";
paths = (
{
closed = 1;
nodes = (
"197 900 OFFCURVE",
"259 838 OFFCURVE",
"340 838 CURVE SMOOTH",
"411 838 OFFCURVE",
"461 876 OFFCURVE",
"461 948 CURVE SMOOTH",
"461 991 OFFCURVE",
"439 1025 OFFCURVE",
"394 1048 CURVE SMOOTH",
"343 1075 OFFCURVE",
"326 1090 OFFCURVE",
"326 1118 CURVE SMOOTH",
"326 1193 OFFCURVE",
"385 1249 OFFCURVE",
"502 1286 CURVE",
"502 1364 LINE",
"303 1304 OFFCURVE",
"197 1179 OFFCURVE",
"197 999 CURVE SMOOTH"
);
}
);
width = 682;
}
);
note = quoteleft;
unicode = 2018;
},
{
glyphname = quoteright;
lastChange = "2025-02-05 21:33:40 +0000";
layers = (
{
layerId = "E3E67A92-B1FB-4433-B88A-D288516649AC";
paths = (
{
closed = 1;
nodes = (
"485 1300 OFFCURVE",
"423 1362 OFFCURVE",
"342 1362 CURVE SMOOTH",
"271 1362 OFFCURVE",
"221 1323 OFFCURVE",
"221 1251 CURVE SMOOTH",
"221 1208 OFFCURVE",
"244 1175 OFFCURVE",
"289 1152 CURVE SMOOTH",
"338 1127 OFFCURVE",
"356 1108 OFFCURVE",
"356 1081 CURVE SMOOTH",
"356 1006 OFFCURVE",
"297 950 OFFCURVE",
"180 913 CURVE",
"180 836 LINE",
"375 892 OFFCURVE",
"485 1017 OFFCURVE",
"485 1200 CURVE SMOOTH"
);
}
);
width = 682;
}
);
note = quoteright;
unicode = 2019;
},
{
glyphname = divide;
lastChange = "2025-02-05 21:33:40 +0000";
layers = (
{
layerId = "E3E67A92-B1FB-4433-B88A-D288516649AC";
paths = (
{
closed = 1;
nodes = (
"657 1116 OFFCURVE",
"614 1159 OFFCURVE",
"561 1159 CURVE SMOOTH",
"506 1159 OFFCURVE",
"464 1116 OFFCURVE",
"464 1063 CURVE SMOOTH",
"464 1010 OFFCURVE",
"506 967 OFFCURVE",
"561 967 CURVE SMOOTH",
"614 967 OFFCURVE",
"657 1010 OFFCURVE",
"657 1063 CURVE SMOOTH"
);
},
{
closed = 1;
nodes = (
"657 350 OFFCURVE",
"614 393 OFFCURVE",
"561 393 CURVE SMOOTH",
"506 393 OFFCURVE",
"464 350 OFFCURVE",
"464 297 CURVE SMOOTH",
"464 244 OFFCURVE",
"506 201 OFFCURVE",
"561 201 CURVE SMOOTH",
"614 201 OFFCURVE",
"657 244 OFFCURVE",
"657 297 CURVE SMOOTH"
);
},
{
closed = 1;
nodes = (
"85 731 LINE",
"85 629 LINE",
"1038 629 LINE",
"1038 731 LINE"
);
}
);
width = 1124;
}
);
note = divide;
unicode = 00F7;
},
{
glyphname = lozenge;
lastChange = "2025-02-05 21:33:40 +0000";
layers = (
{
layerId = "E3E67A92-B1FB-4433-B88A-D288516649AC";
paths = (
{
closed = 1;
nodes = (
"1006 721 LINE",
"547 1440 LINE",
"465 1440 LINE",
"8 719 LINE",
"465 0 LINE",
"547 0 LINE"
);
},
{
closed = 1;
nodes = (
"860 721 LINE",
"508 147 LINE",
"154 721 LINE",
"508 1286 LINE"
);
}
);
width = 1012;
}
);
note = lozenge;
unicode = 25CA;
},
{
glyphname = fraction;
lastChange = "2025-02-05 21:33:40 +0000";
layers = (
{
layerId = "E3E67A92-B1FB-4433-B88A-D288516649AC";
paths = (
{
closed = 1;
nodes = (
"702 1341 LINE",
"602 1341 LINE",
"-362 0 LINE",
"-260 0 LINE"
);
}
);
width = 342;
}
);
note = fraction;
unicode = "2044,2215";
},
{
glyphname = Euro;
lastChange = "2025-02-05 21:33:40 +0000";
layers = (
{
layerId = "E3E67A92-B1FB-4433-B88A-D288516649AC";
paths = (
{
closed = 1;
nodes = (
"31 829 LINE",
"31 748 LINE",
"137 748 LINE",
"136 733 OFFCURVE",
"135 702 OFFCURVE",
"135 655 CURVE SMOOTH",
"137 584 LINE",
"31 584 LINE",
"31 502 LINE",
"143 502 LINE",
"184 166 OFFCURVE",
"364 -20 OFFCURVE",
"641 -20 CURVE SMOOTH",
"761 -20 OFFCURVE",
"877 1 OFFCURVE",
"989 43 CURVE",
"993 317 LINE",
"926 317 LINE",
"901 158 LINE",
"850 98 OFFCURVE",
"760 57 OFFCURVE",
"657 57 CURVE SMOOTH",
"486 57 OFFCURVE",
"377 201 OFFCURVE",
"350 502 CURVE",
"700 502 LINE",
"700 584 LINE",
"346 584 LINE",
"345 595 OFFCURVE",
"344 620 OFFCURVE",
"344 657 CURVE SMOOTH",
"346 748 LINE",
"700 748 LINE",
"700 829 LINE",
"350 829 LINE",
"374 1128 OFFCURVE",
"470 1276 OFFCURVE",
"662 1276 CURVE SMOOTH",
"742 1276 OFFCURVE",
"825 1243 OFFCURVE",
"885 1186 CURVE",
"905 1053 LINE",
"973 1053 LINE",
"969 1305 LINE",
"832 1345 OFFCURVE",
"740 1356 OFFCURVE",
"641 1356 CURVE SMOOTH",
"360 1356 OFFCURVE",
"184 1188 OFFCURVE",
"143 829 CURVE"
);
}
);
width = 1024;
}
);
note = Euro;
unicode = 20AC;
},
{
glyphname = guilsinglleft;
lastChange = "2025-02-05 21:33:40 +0000";
layers = (
{
layerId = "E3E67A92-B1FB-4433-B88A-D288516649AC";
paths = (
{
closed = 1;
nodes = (
"133 430 LINE",
"467 74 LINE",
"549 74 LINE",
"321 463 LINE",
"549 852 LINE",
"467 852 LINE",
"133 496 LINE"
);
}
);
width = 682;
}
);
note = guilsinglleft;
unicode = 2039;
},
{
glyphname = guilsinglright;
lastChange = "2025-02-05 21:33:40 +0000";
layers = (
{
layerId = "E3E67A92-B1FB-4433-B88A-D288516649AC";
paths = (
{
closed = 1;
nodes = (
"549 496 LINE",
"215 852 LINE",
"133 852 LINE",
"361 463 LINE",
"133 74 LINE",
"215 74 LINE",
"549 430 LINE"
);
}
);
width = 682;
}
);
note = guilsinglright;
unicode = 203A;
},
{
glyphname = uniFB01;
lastChange = "2025-02-05 21:33:40 +0000";
layers = (
{
layerId = "E3E67A92-B1FB-4433-B88A-D288516649AC";
paths = (
{
closed = 1;
nodes = (
"938 940 LINE",
"391 940 LINE",
"391 1053 LINE SMOOTH",
"391 1258 OFFCURVE",
"467 1362 OFFCURVE",
"600 1362 CURVE SMOOTH",
"667 1362 OFFCURVE",
"726 1348 OFFCURVE",
"776 1319 CURVE",
"834 1208 LINE",
"885 1208 LINE",
"885 1405 LINE",
"792 1430 OFFCURVE",
"707 1442 OFFCURVE",
"631 1442 CURVE SMOOTH",
"360 1442 OFFCURVE",
"225 1298 OFFCURVE",
"225 1010 CURVE SMOOTH",
"225 944 LINE",
"63 905 LINE",
"63 856 LINE",
"225 856 LINE",
"225 78 LINE",
"86 45 LINE",
"86 0 LINE",
"532 0 LINE",
"532 45 LINE",
"391 78 LINE",
"391 856 LINE",
"772 856 LINE",
"772 70 LINE",
"633 45 LINE",
"633 0 LINE",
"1100 0 LINE",
"1100 45 LINE",
"938 70 LINE"
);
}
);
width = 1139;
}
);
note = uniFB01;
unicode = "F001,FB01";
},
{
glyphname = uniFB02;
lastChange = "2025-02-05 21:33:40 +0000";
layers = (
{
layerId = "E3E67A92-B1FB-4433-B88A-D288516649AC";
paths = (
{
closed = 1;
nodes = (
"936 1421 LINE",
"815 1421 LINE",
"587 1438 LINE",
"567 1438 LINE SMOOTH",
"355 1438 OFFCURVE",
"225 1283 OFFCURVE",
"225 1020 CURVE SMOOTH",
"225 944 LINE",
"63 905 LINE",
"63 856 LINE",
"225 856 LINE",
"225 78 LINE",
"86 45 LINE",
"86 0 LINE",
"532 0 LINE",
"532 45 LINE",
"391 78 LINE",
"391 856 LINE",
"641 856 LINE",
"641 940 LINE",
"391 940 LINE",
"391 1096 LINE SMOOTH",
"391 1281 OFFCURVE",
"432 1358 OFFCURVE",
"524 1358 CURVE SMOOTH",
"597 1358 OFFCURVE",
"679 1337 OFFCURVE",
"770 1296 CURVE",
"770 70 LINE",
"631 45 LINE",
"631 0 LINE",
"1098 0 LINE",
"1098 45 LINE",
"936 70 LINE"
);
}
);
width = 1139;
}
);
note = uniFB02;
unicode = "F002,FB02";
},
{
glyphname = daggerdbl;
lastChange = "2025-02-05 21:33:40 +0000";
layers = (
{
layerId = "E3E67A92-B1FB-4433-B88A-D288516649AC";
paths = (
{
closed = 1;
nodes = (
"479 242 LINE",
"63 289 LINE",
"63 133 LINE",
"479 176 LINE",
"436 -240 LINE",
"592 -240 LINE",
"545 176 LINE",
"961 133 LINE",
"961 289 LINE",
"545 242 LINE",
"612 401 LINE",
"535 590 LINE",
"612 780 LINE",
"545 940 LINE",
"961 893 LINE",
"961 1049 LINE",
"545 1006 LINE",
"592 1421 LINE",
"436 1421 LINE",
"479 1006 LINE",
"63 1049 LINE",
"63 893 LINE",
"479 940 LINE",
"416 780 LINE",
"489 590 LINE",
"416 401 LINE"
);
}
);
width = 1024;
}
);
note = daggerdbl;
unicode = 2021;
},
{
glyphname = periodcentered;
lastChange = "2025-02-05 21:33:40 +0000";
layers = (
{
layerId = "E3E67A92-B1FB-4433-B88A-D288516649AC";
paths = (
{
closed = 1;
nodes = (
"377 743 OFFCURVE",
"325 799 OFFCURVE",
"256 799 CURVE SMOOTH",
"187 799 OFFCURVE",
"135 743 OFFCURVE",
"135 678 CURVE SMOOTH",
"135 610 OFFCURVE",
"188 557 OFFCURVE",
"256 557 CURVE SMOOTH",
"324 557 OFFCURVE",
"377 610 OFFCURVE",
"377 678 CURVE SMOOTH"
);
}
);
width = 512;
}
);
note = periodcentered;
unicode = 2219;
},
{
glyphname = quotesinglbase;
lastChange = "2025-02-05 21:33:40 +0000";
layers = (
{
layerId = "E3E67A92-B1FB-4433-B88A-D288516649AC";
paths = (
{
closed = 1;
nodes = (
"483 149 OFFCURVE",
"421 211 OFFCURVE",
"340 211 CURVE SMOOTH",
"269 211 OFFCURVE",
"219 172 OFFCURVE",
"219 100 CURVE SMOOTH",
"219 57 OFFCURVE",
"242 24 OFFCURVE",
"287 1 CURVE SMOOTH",
"336 -24 OFFCURVE",
"354 -43 OFFCURVE",
"354 -70 CURVE SMOOTH",
"354 -145 OFFCURVE",
"295 -201 OFFCURVE",
"178 -238 CURVE",
"178 -315 LINE",
"373 -259 OFFCURVE",
"483 -134 OFFCURVE",
"483 49 CURVE SMOOTH"
);
}
);
width = 682;
}
);
note = quotesinglbase;
unicode = 201A;
},
{
glyphname = quotedblbase;
lastChange = "2025-02-05 21:33:40 +0000";
layers = (
{
layerId = "E3E67A92-B1FB-4433-B88A-D288516649AC";
paths = (
{
closed = 1;
nodes = (
"391 149 OFFCURVE",
"329 211 OFFCURVE",
"248 211 CURVE SMOOTH",
"177 211 OFFCURVE",
"127 172 OFFCURVE",
"127 100 CURVE SMOOTH",
"127 57 OFFCURVE",
"150 24 OFFCURVE",
"195 1 CURVE SMOOTH",
"244 -24 OFFCURVE",
"262 -43 OFFCURVE",
"262 -70 CURVE SMOOTH",
"262 -145 OFFCURVE",
"203 -201 OFFCURVE",
"86 -238 CURVE",
"86 -315 LINE",
"281 -259 OFFCURVE",
"391 -134 OFFCURVE",
"391 49 CURVE SMOOTH"
);
},
{
closed = 1;
nodes = (
"811 142 OFFCURVE",
"753 211 OFFCURVE",
"668 211 CURVE SMOOTH",
"597 211 OFFCURVE",
"547 172 OFFCURVE",
"547 100 CURVE SMOOTH",
"547 57 OFFCURVE",
"570 24 OFFCURVE",
"615 1 CURVE SMOOTH",
"664 -24 OFFCURVE",
"682 -43 OFFCURVE",
"682 -70 CURVE SMOOTH",
"682 -145 OFFCURVE",
"623 -201 OFFCURVE",
"506 -238 CURVE",
"506 -315 LINE",
"701 -259 OFFCURVE",
"811 -134 OFFCURVE",
"811 49 CURVE SMOOTH"
);
}
);
width = 909;
}
);
note = quotedblbase;
unicode = 201E;
},
{
glyphname = perthousand;
lastChange = "2025-02-05 21:33:40 +0000";
layers = (
{
layerId = "E3E67A92-B1FB-4433-B88A-D288516649AC";
paths = (
{
closed = 1;
nodes = (
"676 1247 OFFCURVE",
"575 1362 OFFCURVE",
"373 1362 CURVE SMOOTH",
"152 1362 OFFCURVE",
"45 1253 OFFCURVE",
"45 1016 CURVE SMOOTH",
"45 781 OFFCURVE",
"152 664 OFFCURVE",
"367 664 CURVE SMOOTH",
"579 664 OFFCURVE",
"676 780 OFFCURVE",
"676 1016 CURVE SMOOTH"
);
},
{
closed = 1;
nodes = (
"520 833 OFFCURVE",
"480 737 OFFCURVE",
"367 737 CURVE SMOOTH",
"250 737 OFFCURVE",
"201 809 OFFCURVE",
"201 1016 CURVE SMOOTH",
"201 1220 OFFCURVE",
"248 1288 OFFCURVE",
"367 1288 CURVE SMOOTH",
"480 1288 OFFCURVE",
"520 1201 OFFCURVE",
"520 1016 CURVE SMOOTH"
);
},
{
closed = 1;
nodes = (
"1323 565 OFFCURVE",
"1217 670 OFFCURVE",
"1020 670 CURVE SMOOTH",
"799 670 OFFCURVE",
"692 561 OFFCURVE",
"692 324 CURVE SMOOTH",
"692 89 OFFCURVE",
"799 -29 OFFCURVE",
"1014 -29 CURVE SMOOTH",
"1226 -29 OFFCURVE",
"1323 88 OFFCURVE",
"1323 324 CURVE SMOOTH"
);
},
{
closed = 1;
nodes = (
"1167 141 OFFCURVE",
"1127 45 OFFCURVE",
"1014 45 CURVE SMOOTH",
"897 45 OFFCURVE",
"848 117 OFFCURVE",
"848 324 CURVE SMOOTH",
"848 528 OFFCURVE",
"895 596 OFFCURVE",
"1014 596 CURVE SMOOTH",
"1127 596 OFFCURVE",
"1167 509 OFFCURVE",
"1167 324 CURVE SMOOTH"
);
},
{
closed = 1;
nodes = (
"2001 555 OFFCURVE",
"1900 670 OFFCURVE",
"1698 670 CURVE SMOOTH",
"1477 670 OFFCURVE",
"1370 561 OFFCURVE",
"1370 324 CURVE SMOOTH",
"1370 89 OFFCURVE",
"1477 -29 OFFCURVE",
"1692 -29 CURVE SMOOTH",
"1904 -29 OFFCURVE",
"2001 88 OFFCURVE",
"2001 324 CURVE SMOOTH"
);
},
{
closed = 1;
nodes = (
"1845 141 OFFCURVE",
"1805 45 OFFCURVE",
"1692 45 CURVE SMOOTH",
"1575 45 OFFCURVE",
"1526 117 OFFCURVE",
"1526 324 CURVE SMOOTH",
"1526 528 OFFCURVE",
"1573 596 OFFCURVE",
"1692 596 CURVE SMOOTH",
"1805 596 OFFCURVE",
"1845 509 OFFCURVE",
"1845 324 CURVE SMOOTH"
);
},
{
closed = 1;
nodes = (
"1214 1362 LINE",
"1104 1362 LINE",
"156 -20 LINE",
"266 -20 LINE"
);
}
);
width = 2048;
}
);
note = perthousand;
unicode = 2030;
},
{
glyphname = dotlessi;
lastChange = "2025-02-05 21:33:40 +0000";
layers = (
{
layerId = "E3E67A92-B1FB-4433-B88A-D288516649AC";
paths = (
{
closed = 1;
nodes = (
"369 940 LINE",
"70 940 LINE",
"70 895 LINE",
"203 870 LINE",
"203 70 LINE",
"43 45 LINE",
"43 0 LINE",
"530 0 LINE",
"530 45 LINE",
"369 70 LINE"
);
}
);
width = 569;
}
);
note = dotlessi;
unicode = 0131;
},
{
glyphname = circumflex;
lastChange = "2025-02-05 21:33:40 +0000";
layers = (
{
layerId = "E3E67A92-B1FB-4433-B88A-D288516649AC";
paths = (
{
closed = 1;
nodes = (
"74 1119 LINE",
"342 1302 LINE",
"610 1119 LINE",
"666 1119 LINE",
"666 1152 LINE",
"449 1425 LINE",
"236 1425 LINE",
"18 1152 LINE",
"18 1119 LINE"
);
}
);
width = 682;
}
);
note = circumflex;
unicode = 02C6;
},
{
glyphname = tilde;
lastChange = "2025-02-05 21:33:40 +0000";
layers = (
{
layerId = "E3E67A92-B1FB-4433-B88A-D288516649AC";
paths = (
{
closed = 1;
nodes = (
"591 1118 OFFCURVE",
"656 1198 OFFCURVE",
"666 1359 CURVE",
"614 1359 LINE",
"602 1268 OFFCURVE",
"571 1241 OFFCURVE",
"514 1241 CURVE SMOOTH",
"426 1241 OFFCURVE",
"342 1380 OFFCURVE",
"213 1380 CURVE SMOOTH",
"93 1380 OFFCURVE",
"28 1299 OFFCURVE",
"18 1138 CURVE",
"70 1138 LINE",
"81 1220 OFFCURVE",
"103 1257 OFFCURVE",
"170 1257 CURVE SMOOTH",
"261 1257 OFFCURVE",
"341 1118 OFFCURVE",
"471 1118 CURVE SMOOTH"
);
}
);
width = 682;
}
);
note = tilde;
unicode = 02DC;
},
{
glyphname = uni02C9;
lastChange = "2025-02-05 21:33:40 +0000";
layers = (
{
layerId = "E3E67A92-B1FB-4433-B88A-D288516649AC";
paths = (
{
closed = 1;
nodes = (
"655 1141 LINE",
"655 1250 LINE",
"27 1250 LINE",
"27 1141 LINE"
);
}
);
width = 682;
}
);
note = uni02C9;
unicode = 02C9;
},
{
glyphname = breve;
lastChange = "2025-02-05 21:33:40 +0000";
layers = (
{
layerId = "E3E67A92-B1FB-4433-B88A-D288516649AC";
paths = (
{
closed = 1;
nodes = (
"516 1119 OFFCURVE",
"620 1224 OFFCURVE",
"627 1399 CURVE",
"553 1399 LINE",
"530 1310 OFFCURVE",
"452 1260 OFFCURVE",
"340 1260 CURVE SMOOTH",
"228 1260 OFFCURVE",
"148 1310 OFFCURVE",
"127 1399 CURVE",
"53 1399 LINE",
"57 1230 OFFCURVE",
"161 1119 OFFCURVE",
"340 1119 CURVE SMOOTH"
);
}
);
width = 682;
}
);
note = breve;
unicode = 02D8;
},
{
glyphname = dotaccent;
lastChange = "2025-02-05 21:33:40 +0000";
layers = (
{
layerId = "E3E67A92-B1FB-4433-B88A-D288516649AC";
paths = (
{
closed = 1;
nodes = (
"452 1307 OFFCURVE",
"403 1356 OFFCURVE",
"343 1356 CURVE SMOOTH",
"284 1356 OFFCURVE",
"235 1307 OFFCURVE",
"235 1247 CURVE SMOOTH",
"235 1188 OFFCURVE",
"284 1139 OFFCURVE",
"343 1139 CURVE SMOOTH",
"403 1139 OFFCURVE",
"452 1188 OFFCURVE",
"452 1247 CURVE SMOOTH"
);
}
);
width = 682;
}
);
note = dotaccent;
unicode = 02D9;
},
{
glyphname = ring;
lastChange = "2025-02-05 21:33:40 +0000";
layers = (
{
layerId = "E3E67A92-B1FB-4433-B88A-D288516649AC";
paths = (
{
closed = 1;
nodes = (
"543 1392 OFFCURVE",
"452 1483 OFFCURVE",
"340 1483 CURVE SMOOTH",
"228 1483 OFFCURVE",
"137 1392 OFFCURVE",
"137 1280 CURVE SMOOTH",
"137 1168 OFFCURVE",
"228 1077 OFFCURVE",
"340 1077 CURVE SMOOTH",
"452 1077 OFFCURVE",
"543 1168 OFFCURVE",
"543 1280 CURVE SMOOTH"
);
},
{
closed = 1;
nodes = (
"463 1209 OFFCURVE",
"404 1157 OFFCURVE",
"340 1157 CURVE SMOOTH",
"275 1157 OFFCURVE",
"217 1211 OFFCURVE",
"217 1280 CURVE SMOOTH",
"217 1348 OFFCURVE",
"272 1403 OFFCURVE",
"340 1403 CURVE SMOOTH",
"408 1403 OFFCURVE",
"463 1348 OFFCURVE",
"463 1280 CURVE SMOOTH"
);
}
);
width = 682;
}
);
note = ring;
unicode = 02DA;
},
{
glyphname = cedilla;
lastChange = "2025-02-05 21:33:40 +0000";
layers = (
{
layerId = "E3E67A92-B1FB-4433-B88A-D288516649AC";
paths = (
{
closed = 1;
nodes = (
"528 -137 OFFCURVE",
"455 -76 OFFCURVE",
"334 -64 CURVE",
"352 18 LINE",
"266 18 LINE",
"225 -135 LINE",
"321 -143 OFFCURVE",
"377 -187 OFFCURVE",
"377 -252 CURVE SMOOTH",
"377 -312 OFFCURVE",
"343 -356 OFFCURVE",
"263 -356 CURVE SMOOTH",
"234 -356 OFFCURVE",
"172 -349 OFFCURVE",
"143 -340 CURVE",
"143 -414 LINE",
"184 -429 OFFCURVE",
"230 -436 OFFCURVE",
"281 -436 CURVE SMOOTH",
"425 -436 OFFCURVE",
"528 -357 OFFCURVE",
"528 -234 CURVE SMOOTH"
);
}
);
width = 682;
}
);
note = cedilla;
unicode = 00B8;
},
{
glyphname = hungarumlaut;
lastChange = "2025-02-05 21:33:40 +0000";
layers = (
{
layerId = "E3E67A92-B1FB-4433-B88A-D288516649AC";
paths = (
{
closed = 1;
nodes = (
"47 1119 LINE",
"340 1387 LINE",
"340 1424 LINE",
"148 1424 LINE",
"-8 1152 LINE",
"-8 1119 LINE"
);
},
{
closed = 1;
nodes = (
"398 1119 LINE",
"690 1387 LINE",
"690 1424 LINE",
"498 1424 LINE",
"342 1152 LINE",
"342 1119 LINE"
);
}
);
width = 682;
}
);
note = hungarumlaut;
unicode = 02DD;
},
{
glyphname = ogonek;
lastChange = "2025-02-05 21:33:40 +0000";
layers = (
{
layerId = "E3E67A92-B1FB-4433-B88A-D288516649AC";
paths = (
{
closed = 1;
nodes = (
"423 -403 OFFCURVE",
"479 -388 OFFCURVE",
"524 -357 CURVE",
"524 -293 LINE",
"487 -308 OFFCURVE",
"448 -315 OFFCURVE",
"408 -315 CURVE SMOOTH",
"319 -315 OFFCURVE",
"270 -261 OFFCURVE",
"270 -162 CURVE SMOOTH",
"270 -107 OFFCURVE",
"293 -28 OFFCURVE",
"324 16 CURVE",
"215 16 LINE",
"158 -43 OFFCURVE",
"125 -115 OFFCURVE",
"125 -186 CURVE SMOOTH",
"125 -322 OFFCURVE",
"208 -403 OFFCURVE",
"356 -403 CURVE SMOOTH"
);
}
);
width = 682;
}
);
note = ogonek;
unicode = 02DB;
},
{
glyphname = caron;
lastChange = "2025-02-05 21:33:40 +0000";
layers = (
{
layerId = "E3E67A92-B1FB-4433-B88A-D288516649AC";
paths = (
{
closed = 1;
nodes = (
"18 1425 LINE",
"18 1392 LINE",
"236 1119 LINE",
"449 1119 LINE",
"666 1392 LINE",
"666 1425 LINE",
"610 1425 LINE",
"342 1242 LINE",
"74 1425 LINE"
);
}
);
width = 682;
}
);
note = caron;
unicode = 02C7;
},
{
glyphname = Lslash;
lastChange = "2025-02-05 21:33:40 +0000";
layers = (
{
layerId = "E3E67A92-B1FB-4433-B88A-D288516649AC";
paths = (
{
closed = 1;
nodes = (
"43 422 LINE",
"231 532 LINE",
"231 80 LINE",
"59 53 LINE",
"59 0 LINE",
"1110 0 LINE",
"1128 385 LINE",
"1063 385 LINE",
"1001 106 LINE",
"934 93 OFFCURVE",
"830 86 OFFCURVE",
"688 86 CURVE SMOOTH",
"424 86 LINE",
"424 643 LINE",
"731 821 LINE",
"731 915 LINE",
"424 737 LINE",
"424 1262 LINE",
"631 1288 LINE",
"631 1341 LINE",
"59 1341 LINE",
"59 1288 LINE",
"231 1262 LINE",
"231 627 LINE",
"43 518 LINE"
);
}
);
width = 1251;
}
);
note = Lslash;
unicode = 0141;
},
{
glyphname = lslash;
lastChange = "2025-02-05 21:33:40 +0000";
layers = (
{
layerId = "E3E67A92-B1FB-4433-B88A-D288516649AC";
paths = (
{
closed = 1;
nodes = (
"20 422 LINE",
"201 526 LINE",
"201 70 LINE",
"41 45 LINE",
"41 0 LINE",
"528 0 LINE",
"528 45 LINE",
"367 70 LINE",
"367 623 LINE",
"559 735 LINE",
"559 829 LINE",
"367 717 LINE",
"367 1421 LINE",
"41 1421 LINE",
"41 1376 LINE",
"201 1352 LINE",
"201 621 LINE",
"20 518 LINE"
);
}
);
width = 569;
}
);
note = lslash;
unicode = 0142;
},
{
glyphname = brokenbar;
lastChange = "2025-02-05 21:33:40 +0000";
layers = (
{
layerId = "E3E67A92-B1FB-4433-B88A-D288516649AC";
paths = (
{
closed = 1;
nodes = (
"256 801 LINE",
"256 1421 LINE",
"154 1421 LINE",
"154 801 LINE"
);
},
{
closed = 1;
nodes = (
"256 -442 LINE",
"256 180 LINE",
"154 180 LINE",
"154 -442 LINE"
);
}
);
width = 410;
}
);
note = brokenbar;
unicode = 00A6;
},
{
glyphname = Eth;
lastChange = "2025-02-05 21:33:40 +0000";
layers = (
{
layerId = "E3E67A92-B1FB-4433-B88A-D288516649AC";
paths = (
{
closed = 1;
nodes = (
"59 1341 LINE",
"59 1288 LINE",
"231 1262 LINE",
"231 711 LINE",
"53 711 LINE",
"53 629 LINE",
"231 629 LINE",
"231 80 LINE",
"59 53 LINE",
"59 0 LINE",
"733 -4 LINE SMOOTH",
"1178 -4 OFFCURVE",
"1397 218 OFFCURVE",
"1397 678 CURVE SMOOTH",
"1397 1110 OFFCURVE",
"1136 1341 OFFCURVE",
"631 1341 CURVE SMOOTH"
);
},
{
closed = 1;
nodes = (
"424 711 LINE",
"424 1251 LINE",
"586 1251 LINE SMOOTH",
"993 1251 OFFCURVE",
"1188 1055 OFFCURVE",
"1188 670 CURVE SMOOTH",
"1188 266 OFFCURVE",
"1038 86 OFFCURVE",
"709 86 CURVE SMOOTH",
"599 86 OFFCURVE",
"504 89 OFFCURVE",
"424 94 CURVE",
"424 629 LINE",
"801 629 LINE",
"801 711 LINE"
);
}
);
width = 1479;
}
);
note = Eth;
unicode = 00D0;
},
{
glyphname = eth;
lastChange = "2025-02-05 21:33:40 +0000";
layers = (
{
layerId = "E3E67A92-B1FB-4433-B88A-D288516649AC";
paths = (
{
closed = 1;
nodes = (
"229 1006 LINE",
"524 1178 LINE",
"617 1090 OFFCURVE",
"679 987 OFFCURVE",
"711 868 CURVE",
"652 891 OFFCURVE",
"587 903 OFFCURVE",
"514 903 CURVE SMOOTH",
"221 903 OFFCURVE",
"78 741 OFFCURVE",
"78 444 CURVE SMOOTH",
"78 143 OFFCURVE",
"223 -20 OFFCURVE",
"506 -20 CURVE SMOOTH",
"799 -20 OFFCURVE",
"946 135 OFFCURVE",
"946 444 CURVE",
"944 479 LINE SMOOTH",
"939 819 OFFCURVE",
"826 1072 OFFCURVE",
"625 1235 CURVE",
"819 1350 LINE",
"819 1444 LINE",
"553 1288 LINE",
"464 1347 OFFCURVE",
"359 1392 OFFCURVE",
"238 1421 CURVE",
"238 1343 LINE",
"315 1319 OFFCURVE",
"388 1282 OFFCURVE",
"457 1233 CURVE",
"229 1102 LINE"
);
},
{
closed = 1;
nodes = (
"766 173 OFFCURVE",
"682 59 OFFCURVE",
"506 59 CURVE SMOOTH",
"334 59 OFFCURVE",
"258 163 OFFCURVE",
"258 444 CURVE SMOOTH",
"258 723 OFFCURVE",
"333 823 OFFCURVE",
"506 823 CURVE SMOOTH",
"685 823 OFFCURVE",
"766 711 OFFCURVE",
"766 444 CURVE SMOOTH"
);
}
);
width = 1024;
}
);
note = eth;
unicode = 00F0;
},
{
glyphname = Thorn;
lastChange = "2025-02-05 21:33:40 +0000";
layers = (
{
layerId = "E3E67A92-B1FB-4433-B88A-D288516649AC";
paths = (
{
closed = 1;
nodes = (
"858 450 OFFCURVE",
"749 346 OFFCURVE",
"528 346 CURVE SMOOTH",
"424 346 LINE",
"424 1006 LINE",
"522 1006 LINE SMOOTH",
"758 1006 OFFCURVE",
"858 913 OFFCURVE",
"858 686 CURVE SMOOTH"
);
},
{
closed = 1;
nodes = (
"424 1083 LINE",
"424 1262 LINE",
"596 1288 LINE",
"596 1341 LINE",
"72 1341 LINE",
"72 1288 LINE",
"231 1262 LINE",
"231 80 LINE",
"72 53 LINE",
"72 0 LINE",
"596 0 LINE",
"596 53 LINE",
"424 80 LINE",
"424 268 LINE",
"575 268 LINE SMOOTH",
"886 268 OFFCURVE",
"1057 413 OFFCURVE",
"1057 688 CURVE SMOOTH",
"1057 951 OFFCURVE",
"893 1083 OFFCURVE",
"565 1083 CURVE SMOOTH"
);
}
);
width = 1139;
}
);
note = Thorn;
unicode = 00DE;
},
{
glyphname = thorn;
lastChange = "2025-02-05 21:33:40 +0000";
layers = (
{
layerId = "E3E67A92-B1FB-4433-B88A-D288516649AC";
paths = (
{
closed = 1;
nodes = (
"758 194 OFFCURVE",
"677 59 OFFCURVE",
"512 59 CURVE SMOOTH",
"441 59 OFFCURVE",
"376 65 OFFCURVE",
"317 76 CURVE",
"317 827 LINE",
"369 849 OFFCURVE",
"434 860 OFFCURVE",
"512 860 CURVE SMOOTH",
"679 860 OFFCURVE",
"758 741 OFFCURVE",
"758 481 CURVE SMOOTH"
);
},
{
closed = 1;
nodes = (
"152 -365 LINE",
"33 -389 LINE",
"33 -436 LINE",
"481 -436 LINE",
"481 -389 LINE",
"317 -365 LINE",
"317 -111 LINE SMOOTH",
"317 -84 OFFCURVE",
"315 -46 OFFCURVE",
"311 2 CURVE",
"379 -13 OFFCURVE",
"451 -20 OFFCURVE",
"526 -20 CURVE SMOOTH",
"797 -20 OFFCURVE",
"944 162 OFFCURVE",
"944 481 CURVE SMOOTH",
"944 793 OFFCURVE",
"807 965 OFFCURVE",
"567 965 CURVE SMOOTH",
"470 965 OFFCURVE",
"367 933 OFFCURVE",
"311 885 CURVE",
"315 981 OFFCURVE",
"317 1048 OFFCURVE",
"317 1085 CURVE SMOOTH",
"317 1421 LINE",
"14 1421 LINE",
"14 1376 LINE",
"152 1352 LINE"
);
}
);
width = 1024;
}
);
note = thorn;
unicode = 00FE;
},
{
glyphname = minus;
lastChange = "2025-02-05 21:33:40 +0000";
layers = (
{
layerId = "E3E67A92-B1FB-4433-B88A-D288516649AC";
paths = (
{
closed = 1;
nodes = (
"102 731 LINE",
"102 629 LINE",
"1055 629 LINE",
"1055 731 LINE"
);
}
);
width = 1155;
}
);
note = minus;
unicode = 2212;
},
{
glyphname = multiply;
lastChange = "2025-02-05 21:33:40 +0000";
layers = (
{
layerId = "E3E67A92-B1FB-4433-B88A-D288516649AC";
paths = (
{
closed = 1;
nodes = (
"924 264 LINE",
"995 336 LINE",
"651 682 LINE",
"995 1026 LINE",
"924 1098 LINE",
"578 754 LINE",
"236 1098 LINE",
"162 1024 LINE",
"506 682 LINE",
"162 336 LINE",
"233 264 LINE",
"578 608 LINE"
);
}
);
width = 1155;
}
);
note = multiply;
unicode = 00D7;
},
{
glyphname = uni00B9;
lastChange = "2025-02-05 21:33:40 +0000";
layers = (
{
layerId = "E3E67A92-B1FB-4433-B88A-D288516649AC";
paths = (
{
closed = 1;
nodes = (
"375 1346 LINE",
"303 1346 LINE",
"70 1212 LINE",
"70 1165 LINE",
"231 1223 LINE",
"231 598 LINE",
"66 584 LINE",
"66 535 LINE",
"541 535 LINE",
"541 584 LINE",
"375 598 LINE"
);
}
);
width = 614;
}
);
note = uni00B9;
unicode = 00B9;
},
{
glyphname = uni00B2;
lastChange = "2025-02-05 21:33:40 +0000";
layers = (
{
layerId = "E3E67A92-B1FB-4433-B88A-D288516649AC";
paths = (
{
closed = 1;
nodes = (
"567 643 LINE",
"180 643 LINE",
"339 785 LINE SMOOTH",
"500 925 OFFCURVE",
"551 1010 OFFCURVE",
"551 1139 CURVE SMOOTH",
"551 1272 OFFCURVE",
"455 1350 OFFCURVE",
"276 1350 CURVE SMOOTH",
"223 1350 OFFCURVE",
"159 1341 OFFCURVE",
"86 1323 CURVE",
"86 1151 LINE",
"141 1151 LINE",
"162 1249 LINE",
"197 1271 OFFCURVE",
"235 1282 OFFCURVE",
"276 1282 CURVE SMOOTH",
"364 1282 OFFCURVE",
"408 1234 OFFCURVE",
"408 1139 CURVE SMOOTH",
"408 1031 OFFCURVE",
"384 954 OFFCURVE",
"324 879 CURVE SMOOTH",
"293 841 OFFCURVE",
"245 792 OFFCURVE",
"178 731 CURVE SMOOTH",
"68 631 LINE",
"68 535 LINE",
"567 535 LINE"
);
}
);
width = 614;
}
);
note = uni00B2;
unicode = 00B2;
},
{
glyphname = uni00B3;
lastChange = "2025-02-05 21:33:40 +0000";
layers = (
{
layerId = "E3E67A92-B1FB-4433-B88A-D288516649AC";
paths = (
{
closed = 1;
nodes = (
"575 872 OFFCURVE",
"500 939 OFFCURVE",
"350 956 CURVE",
"471 975 OFFCURVE",
"539 1051 OFFCURVE",
"539 1151 CURVE SMOOTH",
"539 1279 OFFCURVE",
"432 1350 OFFCURVE",
"256 1350 CURVE SMOOTH",
"205 1350 OFFCURVE",
"142 1341 OFFCURVE",
"68 1323 CURVE",
"68 1151 LINE",
"123 1151 LINE",
"143 1253 LINE",
"176 1272 OFFCURVE",
"213 1282 OFFCURVE",
"256 1282 CURVE SMOOTH",
"363 1282 OFFCURVE",
"395 1246 OFFCURVE",
"395 1143 CURVE SMOOTH",
"395 1039 OFFCURVE",
"361 997 OFFCURVE",
"270 993 CURVE SMOOTH",
"184 989 LINE",
"184 924 LINE",
"270 918 LINE SMOOTH",
"390 911 OFFCURVE",
"432 864 OFFCURVE",
"432 760 CURVE SMOOTH",
"432 631 OFFCURVE",
"384 590 OFFCURVE",
"256 590 CURVE SMOOTH",
"207 590 OFFCURVE",
"154 606 OFFCURVE",
"125 623 CURVE",
"98 735 LINE",
"43 735 LINE",
"49 549 LINE",
"122 531 OFFCURVE",
"194 522 OFFCURVE",
"264 522 CURVE SMOOTH",
"452 522 OFFCURVE",
"575 613 OFFCURVE",
"575 754 CURVE SMOOTH"
);
}
);
width = 614;
}
);
note = uni00B3;
unicode = 00B3;
},
{
glyphname = franc;
lastChange = "2025-02-05 21:33:40 +0000";
layers = (
{
layerId = "E3E67A92-B1FB-4433-B88A-D288516649AC";
paths = (
{
closed = 1;
nodes = (
"759 612 LINE",
"790 450 LINE",
"851 450 LINE",
"851 862 LINE",
"790 862 LINE",
"759 702 LINE",
"394 702 LINE",
"394 1251 LINE",
"507 1251 LINE SMOOTH",
"648 1251 OFFCURVE",
"756 1246 OFFCURVE",
"831 1237 CURVE",
"863 1020 LINE",
"929 1020 LINE",
"929 1341 LINE",
"29 1341 LINE",
"29 1288 LINE",
"201 1262 LINE",
"201 384 LINE",
"28 384 LINE",
"28 302 LINE",
"201 302 LINE",
"201 80 LINE",
"42 53 LINE",
"42 0 LINE",
"597 0 LINE",
"597 53 LINE",
"394 80 LINE",
"394 302 LINE",
"668 302 LINE",
"668 384 LINE",
"394 384 LINE",
"394 612 LINE"
);
}
);
width = 1024;
}
);
note = franc;
unicode = 20A3;
},
{
glyphname = uni0111;
lastChange = "2025-02-05 21:33:40 +0000";
layers = (
{
layerId = "E3E67A92-B1FB-4433-B88A-D288516649AC";
paths = (
{
closed = 1;
nodes = (
"735 0 LINE",
"999 0 LINE",
"999 45 LINE",
"883 70 LINE",
"883 1112 LINE",
"1020 1112 LINE",
"1020 1196 LINE",
"883 1196 LINE",
"883 1421 LINE",
"559 1421 LINE",
"559 1376 LINE",
"717 1352 LINE",
"717 1196 LINE",
"442 1196 LINE",
"442 1112 LINE",
"717 1112 LINE",
"717 1088 LINE SMOOTH",
"717 1013 OFFCURVE",
"719 964 OFFCURVE",
"723 942 CURVE",
"649 957 OFFCURVE",
"576 965 OFFCURVE",
"504 965 CURVE SMOOTH",
"221 965 OFFCURVE",
"74 790 OFFCURVE",
"74 461 CURVE SMOOTH",
"74 140 OFFCURVE",
"202 -20 OFFCURVE",
"459 -20 CURVE SMOOTH",
"560 -20 OFFCURVE",
"648 10 OFFCURVE",
"723 70 CURVE"
);
},
{
closed = 1;
nodes = (
"254 742 OFFCURVE",
"341 883 OFFCURVE",
"514 883 CURVE SMOOTH",
"590 883 OFFCURVE",
"658 877 OFFCURVE",
"717 866 CURVE",
"717 123 LINE",
"657 97 OFFCURVE",
"589 84 OFFCURVE",
"514 84 CURVE SMOOTH",
"338 84 OFFCURVE",
"254 208 OFFCURVE",
"254 461 CURVE SMOOTH"
);
}
);
width = 1024;
}
);
note = uni0111;
unicode = 0111;
},
{
glyphname = uni00AF;
lastChange = "2025-02-05 21:33:40 +0000";
layers = (
{
layerId = "E3E67A92-B1FB-4433-B88A-D288516649AC";
paths = (
{
closed = 1;
nodes = (
"1042 1546 LINE",
"-17 1546 LINE",
"-17 1452 LINE",
"1042 1452 LINE"
);
}
);
width = 1024;
}
);
note = uni00AF;
unicode = 00AF;
},
{
glyphname = uni00B7;
lastChange = "2025-02-05 21:33:40 +0000";
layers = (
{
layerId = "E3E67A92-B1FB-4433-B88A-D288516649AC";
paths = (
{
closed = 1;
nodes = (
"462 743 OFFCURVE",
"410 799 OFFCURVE",
"341 799 CURVE SMOOTH",
"272 799 OFFCURVE",
"220 743 OFFCURVE",
"220 678 CURVE SMOOTH",
"220 610 OFFCURVE",
"273 557 OFFCURVE",
"341 557 CURVE SMOOTH",
"409 557 OFFCURVE",
"462 610 OFFCURVE",
"462 678 CURVE SMOOTH"
);
}
);
width = 682;
}
);
note = uni00B7;
unicode = 00B7;
},
{
glyphname = Gamma;
lastChange = "2025-02-05 21:33:40 +0000";
layers = (
{
layerId = "E3E67A92-B1FB-4433-B88A-D288516649AC";
paths = (
{
closed = 1;
nodes = (
"631 53 LINE",
"424 79 LINE",
"424 1255 LINE",
"678 1255 LINE SMOOTH",
"820 1255 OFFCURVE",
"924 1248 OFFCURVE",
"991 1235 CURVE",
"1053 956 LINE",
"1118 956 LINE",
"1100 1341 LINE",
"59 1341 LINE",
"59 1288 LINE",
"231 1261 LINE",
"231 79 LINE",
"59 53 LINE",
"59 0 LINE",
"631 0 LINE"
);
}
);
width = 1184;
}
);
note = Gamma;
unicode = 0393;
},
{
glyphname = Theta;
lastChange = "2025-02-05 21:33:40 +0000";
layers = (
{
layerId = "E3E67A92-B1FB-4433-B88A-D288516649AC";
paths = (
{
closed = 1;
nodes = (
"293 1100 OFFCURVE",
"431 1276 OFFCURVE",
"739 1276 CURVE SMOOTH",
"1046 1276 OFFCURVE",
"1186 1100 OFFCURVE",
"1186 672 CURVE SMOOTH",
"1186 241 OFFCURVE",
"1044 59 OFFCURVE",
"739 59 CURVE SMOOTH",
"432 59 OFFCURVE",
"293 241 OFFCURVE",
"293 672 CURVE SMOOTH"
);
},
{
closed = 1;
nodes = (
"84 215 OFFCURVE",
"314 -20 OFFCURVE",
"739 -20 CURVE SMOOTH",
"1166 -20 OFFCURVE",
"1395 216 OFFCURVE",
"1395 672 CURVE SMOOTH",
"1395 1121 OFFCURVE",
"1171 1356 OFFCURVE",
"739 1356 CURVE SMOOTH",
"302 1356 OFFCURVE",
"84 1128 OFFCURVE",
"84 672 CURVE SMOOTH"
);
},
{
closed = 1;
nodes = (
"920 610 LINE",
"951 468 LINE",
"1015 468 LINE",
"1015 880 LINE",
"951 880 LINE",
"920 740 LINE",
"558 740 LINE",
"527 880 LINE",
"463 880 LINE",
"463 468 LINE",
"527 468 LINE",
"558 610 LINE"
);
}
);
width = 1479;
}
);
note = Theta;
unicode = 0398;
},
{
glyphname = Phi;
lastChange = "2025-02-05 21:33:40 +0000";
layers = (
{
layerId = "E3E67A92-B1FB-4433-B88A-D288516649AC";
paths = (
{
closed = 1;
nodes = (
"839 222 LINE",
"953 222 LINE SMOOTH",
"1149 222 OFFCURVE",
"1294 293 OFFCURVE",
"1375 438 CURVE SMOOTH",
"1415 511 OFFCURVE",
"1435 595 OFFCURVE",
"1435 692 CURVE SMOOTH",
"1435 977 OFFCURVE",
"1255 1137 OFFCURVE",
"943 1137 CURVE SMOOTH",
"839 1137 LINE",
"839 1262 LINE",
"1011 1288 LINE",
"1011 1341 LINE",
"485 1341 LINE",
"485 1288 LINE",
"657 1262 LINE",
"657 1137 LINE",
"554 1137 LINE SMOOTH",
"242 1137 OFFCURVE",
"62 977 OFFCURVE",
"62 692 CURVE SMOOTH",
"62 497 OFFCURVE",
"148 346 OFFCURVE",
"291 275 CURVE SMOOTH",
"362 240 OFFCURVE",
"447 222 OFFCURVE",
"544 222 CURVE SMOOTH",
"657 222 LINE",
"657 80 LINE",
"485 53 LINE",
"485 0 LINE",
"1011 0 LINE",
"1011 53 LINE",
"839 80 LINE"
);
},
{
closed = 1;
nodes = (
"839 300 LINE",
"839 1060 LINE",
"900 1060 LINE SMOOTH",
"1121 1060 OFFCURVE",
"1236 935 OFFCURVE",
"1236 690 CURVE SMOOTH",
"1236 435 OFFCURVE",
"1119 300 OFFCURVE",
"906 300 CURVE SMOOTH"
);
},
{
closed = 1;
nodes = (
"261 935 OFFCURVE",
"376 1060 OFFCURVE",
"597 1060 CURVE SMOOTH",
"657 1060 LINE",
"657 300 LINE",
"591 300 LINE SMOOTH",
"378 300 OFFCURVE",
"261 435 OFFCURVE",
"261 690 CURVE SMOOTH"
);
}
);
width = 1497;
}
);
note = Phi;
unicode = 03A6;
},
{
glyphname = alpha;
lastChange = "2025-02-05 21:33:40 +0000";
layers = (
{
layerId = "E3E67A92-B1FB-4433-B88A-D288516649AC";
paths = (
{
closed = 1;
nodes = (
"976 60 LINE",
"931 178 OFFCURVE",
"890 319 OFFCURVE",
"852 483 CURVE",
"912 642 OFFCURVE",
"952 746 OFFCURVE",
"973 793 CURVE SMOOTH",
"994 840 OFFCURVE",
"1012 876 OFFCURVE",
"1027 900 CURVE",
"1027 940 LINE",
"870 940 LINE",
"800 690 LINE",
"794 690 LINE",
"731 887 OFFCURVE",
"640 966 OFFCURVE",
"469 966 CURVE SMOOTH",
"221 966 OFFCURVE",
"78 776 OFFCURVE",
"78 453 CURVE SMOOTH",
"78 150 OFFCURVE",
"191 -20 OFFCURVE",
"391 -20 CURVE SMOOTH",
"488 -20 OFFCURVE",
"561 15 OFFCURVE",
"622 85 CURVE SMOOTH",
"653 120 OFFCURVE",
"692 183 OFFCURVE",
"740 274 CURVE",
"746 274 LINE",
"765 170 OFFCURVE",
"787 79 OFFCURVE",
"812 0 CURVE",
"1024 0 LINE",
"1024 45 LINE"
);
},
{
closed = 1;
nodes = (
"685 350 OFFCURVE",
"652 271 OFFCURVE",
"626 224 CURVE SMOOTH",
"573 131 OFFCURVE",
"511 78 OFFCURVE",
"431 78 CURVE SMOOTH",
"379 78 OFFCURVE",
"337 110 OFFCURVE",
"306 174 CURVE SMOOTH",
"275 237 OFFCURVE",
"259 330 OFFCURVE",
"259 453 CURVE SMOOTH",
"259 742 OFFCURVE",
"334 886 OFFCURVE",
"484 886 CURVE SMOOTH",
"551 886 OFFCURVE",
"603 853 OFFCURVE",
"641 788 CURVE SMOOTH",
"679 722 OFFCURVE",
"707 614 OFFCURVE",
"724 463 CURVE"
);
}
);
width = 1073;
}
);
note = alpha;
unicode = 03B1;
},
{
glyphname = delta;
lastChange = "2025-02-05 21:33:40 +0000";
layers = (
{
layerId = "E3E67A92-B1FB-4433-B88A-D288516649AC";
paths = (
{
closed = 1;
nodes = (
"251 1087 OFFCURVE",
"299 1001 OFFCURVE",
"444 873 CURVE",
"208 812 OFFCURVE",
"77 644 OFFCURVE",
"77 399 CURVE SMOOTH",
"77 128 OFFCURVE",
"225 -20 OFFCURVE",
"486 -20 CURVE SMOOTH",
"743 -20 OFFCURVE",
"888 155 OFFCURVE",
"888 450 CURVE SMOOTH",
"888 630 OFFCURVE",
"820 759 OFFCURVE",
"631 915 CURVE SMOOTH",
"534 994 OFFCURVE",
"471 1052 OFFCURVE",
"443 1091 CURVE SMOOTH",
"414 1129 OFFCURVE",
"400 1166 OFFCURVE",
"400 1203 CURVE SMOOTH",
"400 1294 OFFCURVE",
"458 1351 OFFCURVE",
"566 1351 CURVE SMOOTH",
"634 1351 OFFCURVE",
"686 1335 OFFCURVE",
"721 1304 CURVE",
"763 1195 LINE",
"810 1195 LINE",
"810 1400 LINE",
"711 1421 OFFCURVE",
"629 1431 OFFCURVE",
"564 1431 CURVE SMOOTH",
"373 1431 OFFCURVE",
"251 1337 OFFCURVE",
"251 1188 CURVE SMOOTH"
);
},
{
closed = 1;
nodes = (
"249 616 OFFCURVE",
"320 757 OFFCURVE",
"504 821 CURVE",
"529 801 LINE SMOOTH",
"661 689 OFFCURVE",
"714 579 OFFCURVE",
"714 422 CURVE SMOOTH",
"714 177 OFFCURVE",
"632 59 OFFCURVE",
"487 59 CURVE SMOOTH",
"335 59 OFFCURVE",
"249 178 OFFCURVE",
"249 391 CURVE SMOOTH"
);
}
);
width = 965;
}
);
note = delta;
unicode = 03B4;
},
{
glyphname = epsilon;
lastChange = "2025-02-05 21:33:40 +0000";
layers = (
{
layerId = "E3E67A92-B1FB-4433-B88A-D288516649AC";
paths = (
{
closed = 1;
nodes = (
"801 135 LINE",
"678 94 OFFCURVE",
"598 84 OFFCURVE",
"506 84 CURVE SMOOTH",
"347 84 OFFCURVE",
"252 158 OFFCURVE",
"252 278 CURVE SMOOTH",
"252 371 OFFCURVE",
"301 442 OFFCURVE",
"393 469 CURVE",
"510 460 OFFCURVE",
"591 456 OFFCURVE",
"636 456 CURVE SMOOTH",
"668 456 LINE",
"668 552 LINE",
"636 552 LINE SMOOTH",
"601 552 OFFCURVE",
"464 546 OFFCURVE",
"411 541 CURVE",
"336 562 OFFCURVE",
"288 627 OFFCURVE",
"288 718 CURVE SMOOTH",
"288 825 OFFCURVE",
"364 887 OFFCURVE",
"497 887 CURVE SMOOTH",
"558 887 OFFCURVE",
"631 867 OFFCURVE",
"667 846 CURVE",
"724 733 LINE",
"772 733 LINE",
"773 929 LINE",
"688 953 OFFCURVE",
"599 965 OFFCURVE",
"504 965 CURVE SMOOTH",
"268 965 OFFCURVE",
"119 874 OFFCURVE",
"119 725 CURVE SMOOTH",
"119 624 OFFCURVE",
"180 554 OFFCURVE",
"303 513 CURVE",
"303 506 LINE",
"166 478 OFFCURVE",
"79 390 OFFCURVE",
"79 269 CURVE SMOOTH",
"79 85 OFFCURVE",
"213 -20 OFFCURVE",
"457 -20 CURVE SMOOTH",
"595 -20 OFFCURVE",
"710 10 OFFCURVE",
"801 70 CURVE"
);
}
);
width = 860;
}
);
note = epsilon;
unicode = 03B5;
},
{
glyphname = sigma;
lastChange = "2025-02-05 21:33:40 +0000";
layers = (
{
layerId = "E3E67A92-B1FB-4433-B88A-D288516649AC";
paths = (
{
closed = 1;
nodes = (
"960 940 LINE",
"611 940 LINE SMOOTH",
"280 940 OFFCURVE",
"78 765 OFFCURVE",
"78 473 CURVE SMOOTH",
"78 176 OFFCURVE",
"252 -20 OFFCURVE",
"523 -20 CURVE SMOOTH",
"787 -20 OFFCURVE",
"956 154 OFFCURVE",
"956 438 CURVE SMOOTH",
"956 591 OFFCURVE",
"888 741 OFFCURVE",
"764 849 CURVE",
"764 856 LINE",
"1055 856 LINE",
"1073 1048 LINE",
"1016 1048 LINE"
);
},
{
closed = 1;
nodes = (
"365 59 OFFCURVE",
"258 204 OFFCURVE",
"258 451 CURVE SMOOTH",
"258 715 OFFCURVE",
"397 856 OFFCURVE",
"650 856 CURVE",
"727 776 OFFCURVE",
"774 627 OFFCURVE",
"774 444 CURVE SMOOTH",
"774 200 OFFCURVE",
"684 59 OFFCURVE",
"533 59 CURVE SMOOTH"
);
}
);
width = 1104;
}
);
note = sigma;
unicode = 03C3;
},
{
glyphname = tau;
lastChange = "2025-02-05 21:33:40 +0000";
layers = (
{
layerId = "E3E67A92-B1FB-4433-B88A-D288516649AC";
paths = (
{
closed = 1;
nodes = (
"318 856 LINE",
"318 197 LINE SMOOTH",
"318 50 OFFCURVE",
"395 -20 OFFCURVE",
"512 -20 CURVE SMOOTH",
"579 -20 OFFCURVE",
"664 8 OFFCURVE",
"696 35 CURVE",
"696 100 LINE",
"651 89 OFFCURVE",
"615 84 OFFCURVE",
"588 84 CURVE SMOOTH",
"519 84 OFFCURVE",
"484 127 OFFCURVE",
"484 214 CURVE SMOOTH",
"484 856 LINE",
"778 856 LINE",
"778 940 LINE",
"66 940 LINE",
"45 728 LINE",
"102 728 LINE",
"150 856 LINE"
);
}
);
width = 823;
}
);
note = tau;
unicode = 03C4;
},
{
glyphname = phi;
lastChange = "2025-02-05 21:33:40 +0000";
layers = (
{
layerId = "E3E67A92-B1FB-4433-B88A-D288516649AC";
paths = (
{
closed = 1;
nodes = (
"644 -17 LINE",
"940 10 OFFCURVE",
"1102 189 OFFCURVE",
"1102 492 CURVE SMOOTH",
"1102 803 OFFCURVE",
"982 966 OFFCURVE",
"773 966 CURVE SMOOTH",
"622 966 OFFCURVE",
"538 859 OFFCURVE",
"538 670 CURVE SMOOTH",
"538 58 LINE",
"346 89 OFFCURVE",
"260 216 OFFCURVE",
"260 472 CURVE SMOOTH",
"260 731 OFFCURVE",
"311 843 OFFCURVE",
"439 891 CURVE",
"440 964 LINE",
"180 919 OFFCURVE",
"79 763 OFFCURVE",
"79 466 CURVE SMOOTH",
"79 159 OFFCURVE",
"229 7 OFFCURVE",
"538 -16 CURVE",
"538 -436 LINE",
"644 -436 LINE"
);
},
{
closed = 1;
nodes = (
"923 219 OFFCURVE",
"835 88 OFFCURVE",
"644 60 CURVE",
"644 670 LINE SMOOTH",
"644 813 OFFCURVE",
"681 885 OFFCURVE",
"755 885 CURVE SMOOTH",
"808 885 OFFCURVE",
"850 850 OFFCURVE",
"879 781 CURVE SMOOTH",
"908 712 OFFCURVE",
"923 611 OFFCURVE",
"923 478 CURVE SMOOTH"
);
}
);
width = 1182;
}
);
note = phi;
unicode = 03C6;
},
{
glyphname = uni207F;
lastChange = "2025-02-05 21:33:40 +0000";
layers = (
{
layerId = "E3E67A92-B1FB-4433-B88A-D288516649AC";
paths = (
{
closed = 1;
nodes = (
"216 1099 LINE",
"35 1099 LINE",
"35 1062 LINE",
"103 1047 LINE",
"103 587 LINE",
"35 572 LINE",
"35 535 LINE",
"279 535 LINE",
"279 572 LINE",
"222 587 LINE",
"222 1017 LINE",
"274 1028 OFFCURVE",
"314 1034 OFFCURVE",
"342 1034 CURVE SMOOTH",
"410 1034 OFFCURVE",
"427 1004 OFFCURVE",
"427 937 CURVE SMOOTH",
"427 587 LINE",
"372 572 LINE",
"372 535 LINE",
"615 535 LINE",
"615 572 LINE",
"547 587 LINE",
"547 948 LINE SMOOTH",
"547 1056 OFFCURVE",
"493 1114 OFFCURVE",
"394 1114 CURVE SMOOTH",
"354 1114 OFFCURVE",
"296 1094 OFFCURVE",
"221 1054 CURVE"
);
}
);
width = 645;
}
);
note = uni207F;
unicode = 207F;
},
{
glyphname = peseta;
lastChange = "2025-02-05 21:33:40 +0000";
layers = (
{
layerId = "E3E67A92-B1FB-4433-B88A-D288516649AC";
paths = (
{
closed = 1;
nodes = (
"760 712 OFFCURVE",
"655 616 OFFCURVE",
"430 616 CURVE SMOOTH",
"386 616 LINE",
"386 1251 LINE",
"424 1251 LINE SMOOTH",
"667 1251 OFFCURVE",
"760 1164 OFFCURVE",
"760 944 CURVE SMOOTH"
);
},
{
closed = 1;
nodes = (
"949 1215 OFFCURVE",
"787 1341 OFFCURVE",
"467 1341 CURVE SMOOTH",
"51 1341 LINE",
"51 1288 LINE",
"203 1262 LINE",
"203 80 LINE",
"44 53 LINE",
"44 0 LINE",
"559 0 LINE",
"559 53 LINE",
"386 80 LINE",
"386 526 LINE",
"477 526 LINE SMOOTH",
"788 526 OFFCURVE",
"949 669 OFFCURVE",
"949 946 CURVE SMOOTH"
);
},
{
closed = 1;
nodes = (
"1216 -20 OFFCURVE",
"1297 2 OFFCURVE",
"1344 35 CURVE",
"1344 90 LINE",
"1299 79 OFFCURVE",
"1262 74 OFFCURVE",
"1231 74 CURVE SMOOTH",
"1180 74 OFFCURVE",
"1146 118 OFFCURVE",
"1146 205 CURVE SMOOTH",
"1146 616 LINE",
"1311 616 LINE",
"1311 690 LINE",
"1146 690 LINE",
"1146 873 LINE",
"1083 873 LINE",
"980 690 LINE",
"887 651 LINE",
"887 616 LINE",
"980 616 LINE",
"980 197 LINE SMOOTH",
"980 60 OFFCURVE",
"1035 -20 OFFCURVE",
"1148 -20 CURVE SMOOTH"
);
},
{
closed = 1;
nodes = (
"1893 307 OFFCURVE",
"1828 376 OFFCURVE",
"1703 419 CURVE SMOOTH",
"1624 445 OFFCURVE",
"1573 466 OFFCURVE",
"1549 482 CURVE SMOOTH",
"1525 497 OFFCURVE",
"1513 517 OFFCURVE",
"1513 541 CURVE SMOOTH",
"1513 601 OFFCURVE",
"1554 640 OFFCURVE",
"1626 640 CURVE SMOOTH",
"1677 640 OFFCURVE",
"1731 624 OFFCURVE",
"1756 593 CURVE",
"1798 484 LINE",
"1845 484 LINE",
"1845 679 LINE",
"1757 700 OFFCURVE",
"1685 710 OFFCURVE",
"1628 710 CURVE SMOOTH",
"1465 710 OFFCURVE",
"1364 637 OFFCURVE",
"1364 518 CURVE SMOOTH",
"1364 419 OFFCURVE",
"1411 357 OFFCURVE",
"1552 309 CURVE SMOOTH",
"1621 286 LINE SMOOTH",
"1702 257 OFFCURVE",
"1739 220 OFFCURVE",
"1739 164 CURVE SMOOTH",
"1739 89 OFFCURVE",
"1690 49 OFFCURVE",
"1605 49 CURVE SMOOTH",
"1542 49 OFFCURVE",
"1491 72 OFFCURVE",
"1450 117 CURVE",
"1411 227 LINE",
"1366 227 LINE",
"1366 20 LINE",
"1419 0 OFFCURVE",
"1543 -20 OFFCURVE",
"1623 -20 CURVE SMOOTH",
"1795 -20 OFFCURVE",
"1893 58 OFFCURVE",
"1893 206 CURVE SMOOTH"
);
}
);
width = 1984;
}
);
note = peseta;
unicode = 20A7;
},
{
glyphname = arrowleft;
lastChange = "2025-02-05 21:33:40 +0000";
layers = (
{
layerId = "E3E67A92-B1FB-4433-B88A-D288516649AC";
paths = (
{
closed = 1;
nodes = (
"1630 427 LINE",
"1630 513 LINE",
"641 513 LINE",
"679 558 OFFCURVE",
"719 623 OFFCURVE",
"760 710 CURVE",
"688 710 LINE",
"603 611 OFFCURVE",
"513 537 OFFCURVE",
"418 488 CURVE",
"418 452 LINE",
"513 403 OFFCURVE",
"603 329 OFFCURVE",
"688 230 CURVE",
"760 230 LINE",
"719 317 OFFCURVE",
"679 382 OFFCURVE",
"641 427 CURVE"
);
}
);
width = 2048;
}
);
note = arrowleft;
unicode = 2190;
},
{
glyphname = arrowup;
lastChange = "2025-02-05 21:33:40 +0000";
layers = (
{
layerId = "E3E67A92-B1FB-4433-B88A-D288516649AC";
paths = (
{
closed = 1;
nodes = (
"469 -61 LINE",
"555 -61 LINE",
"555 928 LINE",
"600 890 OFFCURVE",
"665 850 OFFCURVE",
"752 809 CURVE",
"752 881 LINE",
"653 966 OFFCURVE",
"579 1056 OFFCURVE",
"530 1151 CURVE",
"494 1151 LINE",
"445 1056 OFFCURVE",
"371 966 OFFCURVE",
"272 881 CURVE",
"272 809 LINE",
"359 850 OFFCURVE",
"424 890 OFFCURVE",
"469 928 CURVE"
);
}
);
width = 1024;
}
);
note = arrowup;
unicode = 2191;
},
{
glyphname = arrowright;
lastChange = "2025-02-05 21:33:40 +0000";
layers = (
{
layerId = "E3E67A92-B1FB-4433-B88A-D288516649AC";
paths = (
{
closed = 1;
nodes = (
"418 513 LINE",
"418 427 LINE",
"1407 427 LINE",
"1369 382 OFFCURVE",
"1329 317 OFFCURVE",
"1288 230 CURVE",
"1360 230 LINE",
"1445 329 OFFCURVE",
"1535 403 OFFCURVE",
"1630 452 CURVE",
"1630 488 LINE",
"1535 537 OFFCURVE",
"1445 611 OFFCURVE",
"1360 710 CURVE",
"1288 710 LINE",
"1329 623 OFFCURVE",
"1369 558 OFFCURVE",
"1407 513 CURVE"
);
}
);
width = 2048;
}
);
note = arrowright;
unicode = 2192;
},
{
glyphname = arrowdown;
lastChange = "2025-02-05 21:33:40 +0000";
layers = (
{
layerId = "E3E67A92-B1FB-4433-B88A-D288516649AC";
paths = (
{
closed = 1;
nodes = (
"555 1151 LINE",
"469 1151 LINE",
"469 162 LINE",
"424 200 OFFCURVE",
"359 240 OFFCURVE",
"272 281 CURVE",
"272 209 LINE",
"371 124 OFFCURVE",
"445 34 OFFCURVE",
"494 -61 CURVE",
"530 -61 LINE",
"579 34 OFFCURVE",
"653 124 OFFCURVE",
"752 209 CURVE",
"752 281 LINE",
"665 240 OFFCURVE",
"600 200 OFFCURVE",
"555 162 CURVE"
);
}
);
width = 1024;
}
);
note = arrowdown;
unicode = 2193;
},
{
glyphname = arrowboth;
lastChange = "2025-02-05 21:33:40 +0000";
layers = (
{
layerId = "E3E67A92-B1FB-4433-B88A-D288516649AC";
paths = (
{
closed = 1;
nodes = (
"1407 427 LINE",
"1369 382 OFFCURVE",
"1329 317 OFFCURVE",
"1288 230 CURVE",
"1360 230 LINE",
"1445 329 OFFCURVE",
"1535 403 OFFCURVE",
"1630 452 CURVE",
"1630 488 LINE",
"1535 537 OFFCURVE",
"1445 611 OFFCURVE",
"1360 710 CURVE",
"1288 710 LINE",
"1329 623 OFFCURVE",
"1369 558 OFFCURVE",
"1407 513 CURVE",
"641 513 LINE",
"679 558 OFFCURVE",
"719 623 OFFCURVE",
"760 710 CURVE",
"688 710 LINE",
"603 611 OFFCURVE",
"513 537 OFFCURVE",
"418 488 CURVE",
"418 452 LINE",
"513 403 OFFCURVE",
"603 329 OFFCURVE",
"688 230 CURVE",
"760 230 LINE",
"719 317 OFFCURVE",
"679 382 OFFCURVE",
"641 427 CURVE"
);
}
);
width = 2048;
}
);
note = arrowboth;
unicode = 2194;
},
{
glyphname = arrowupdn;
lastChange = "2025-02-05 21:33:40 +0000";
layers = (
{
layerId = "E3E67A92-B1FB-4433-B88A-D288516649AC";
paths = (
{
closed = 1;
nodes = (
"469 162 LINE",
"424 200 OFFCURVE",
"359 240 OFFCURVE",
"272 281 CURVE",
"272 209 LINE",
"371 124 OFFCURVE",
"445 34 OFFCURVE",
"494 -61 CURVE",
"530 -61 LINE",
"579 34 OFFCURVE",
"653 124 OFFCURVE",
"752 209 CURVE",
"752 281 LINE",
"665 240 OFFCURVE",
"600 200 OFFCURVE",
"555 162 CURVE",
"555 928 LINE",
"600 890 OFFCURVE",
"665 850 OFFCURVE",
"752 809 CURVE",
"752 881 LINE",
"653 966 OFFCURVE",
"579 1056 OFFCURVE",
"530 1151 CURVE",
"494 1151 LINE",
"445 1056 OFFCURVE",
"371 966 OFFCURVE",
"272 881 CURVE",
"272 809 LINE",
"359 850 OFFCURVE",
"424 890 OFFCURVE",
"469 928 CURVE"
);
}
);
width = 1024;
}
);
note = arrowupdn;
unicode = 2195;
},
{
glyphname = arrowupdnbse;
lastChange = "2025-02-05 21:33:40 +0000";
layers = (
{
layerId = "E3E67A92-B1FB-4433-B88A-D288516649AC";
paths = (
{
closed = 1;
nodes = (
"272 -184 LINE",
"752 -184 LINE",
"752 -104 LINE",
"272 -104 LINE"
);
},
{
closed = 1;
nodes = (
"469 162 LINE",
"424 200 OFFCURVE",
"359 240 OFFCURVE",
"272 281 CURVE",
"272 209 LINE",
"371 124 OFFCURVE",
"445 34 OFFCURVE",
"494 -61 CURVE",
"530 -61 LINE",
"579 34 OFFCURVE",
"653 124 OFFCURVE",
"752 209 CURVE",
"752 281 LINE",
"665 240 OFFCURVE",
"600 200 OFFCURVE",
"555 162 CURVE",
"555 928 LINE",
"600 890 OFFCURVE",
"665 850 OFFCURVE",
"752 809 CURVE",
"752 881 LINE",
"653 966 OFFCURVE",
"579 1056 OFFCURVE",
"530 1151 CURVE",
"494 1151 LINE",
"445 1056 OFFCURVE",
"371 966 OFFCURVE",
"272 881 CURVE",
"272 809 LINE",
"359 850 OFFCURVE",
"424 890 OFFCURVE",
"469 928 CURVE"
);
}
);
width = 1024;
}
);
note = arrowupdnbse;
unicode = 21A8;
},
{
glyphname = orthogonal;
lastChange = "2025-02-05 21:33:40 +0000";
layers = (
{
layerId = "E3E67A92-B1FB-4433-B88A-D288516649AC";
paths = (
{
closed = 1;
nodes = (
"408 0 LINE",
"1632 0 LINE",
"1632 94 LINE",
"502 94 LINE",
"502 1223 LINE",
"408 1223 LINE"
);
}
);
width = 2005;
}
);
note = orthogonal;
unicode = 221F;
},
{
glyphname = intersection;
lastChange = "2025-02-05 21:33:40 +0000";
layers = (
{
layerId = "E3E67A92-B1FB-4433-B88A-D288516649AC";
paths = (
{
closed = 1;
nodes = (
"385 -2 LINE",
"385 510 LINE SMOOTH",
"385 769 OFFCURVE",
"523 930 OFFCURVE",
"739 930 CURVE SMOOTH",
"952 930 OFFCURVE",
"1095 765 OFFCURVE",
"1095 512 CURVE SMOOTH",
"1095 -2 LINE",
"1198 -2 LINE",
"1198 510 LINE SMOOTH",
"1198 707 OFFCURVE",
"1114 878 OFFCURVE",
"974 966 CURVE SMOOTH",
"903 1010 OFFCURVE",
"824 1032 OFFCURVE",
"737 1032 CURVE SMOOTH",
"564 1032 OFFCURVE",
"417 939 OFFCURVE",
"340 780 CURVE SMOOTH",
"301 700 OFFCURVE",
"282 610 OFFCURVE",
"282 510 CURVE SMOOTH",
"282 -2 LINE"
);
}
);
width = 1479;
}
);
note = intersection;
unicode = 2229;
},
{
glyphname = equivalence;
lastChange = "2025-02-05 21:33:40 +0000";
layers = (
{
layerId = "E3E67A92-B1FB-4433-B88A-D288516649AC";
paths = (
{
closed = 1;
nodes = (
"102 436 LINE",
"102 334 LINE",
"1055 334 LINE",
"1055 436 LINE"
);
},
{
closed = 1;
nodes = (
"102 1026 LINE",
"102 924 LINE",
"1055 924 LINE",
"1055 1026 LINE"
);
},
{
closed = 1;
nodes = (
"102 731 LINE",
"102 629 LINE",
"1055 629 LINE",
"1055 731 LINE"
);
}
);
width = 1155;
}
);
note = equivalence;
unicode = 2261;
},
{
glyphname = house;
lastChange = "2025-02-05 21:33:40 +0000";
layers = (
{
layerId = "E3E67A92-B1FB-4433-B88A-D288516649AC";
paths = (
{
closed = 1;
nodes = (
"1076 0 LINE",
"1076 635 LINE",
"615 1153 LINE",
"154 635 LINE",
"154 0 LINE"
);
},
{
closed = 1;
nodes = (
"234 600 LINE",
"615 1026 LINE",
"996 600 LINE",
"996 82 LINE",
"234 82 LINE"
);
}
);
width = 1229;
}
);
note = house;
unicode = 2302;
},
{
glyphname = revlogicalnot;
lastChange = "2025-02-05 21:33:40 +0000";
layers = (
{
layerId = "E3E67A92-B1FB-4433-B88A-D288516649AC";
paths = (
{
closed = 1;
nodes = (
"1055 629 LINE",
"1055 731 LINE",
"102 731 LINE",
"102 203 LINE",
"205 203 LINE",
"205 629 LINE"
);
}
);
width = 1155;
}
);
note = revlogicalnot;
unicode = 2310;
},
{
glyphname = integraltp;
lastChange = "2025-02-05 21:33:40 +0000";
layers = (
{
layerId = "E3E67A92-B1FB-4433-B88A-D288516649AC";
paths = (
{
closed = 1;
nodes = (
"693 1423 LINE SMOOTH",
"693 1493 OFFCURVE",
"695 1540 OFFCURVE",
"699 1563 CURVE SMOOTH",
"705 1589 OFFCURVE",
"720 1602 OFFCURVE",
"744 1602 CURVE SMOOTH",
"755 1602 OFFCURVE",
"771 1589 OFFCURVE",
"793 1563 CURVE SMOOTH",
"818 1535 OFFCURVE",
"836 1518 OFFCURVE",
"847 1513 CURVE",
"856 1506 OFFCURVE",
"870 1503 OFFCURVE",
"890 1503 CURVE SMOOTH",
"939 1503 OFFCURVE",
"978 1542 OFFCURVE",
"978 1595 CURVE SMOOTH",
"978 1659 OFFCURVE",
"924 1706 OFFCURVE",
"840 1706 CURVE SMOOTH",
"672 1706 OFFCURVE",
"546 1525 OFFCURVE",
"546 1264 CURVE SMOOTH",
"546 -614 LINE",
"693 -614 LINE"
);
}
);
width = 1237;
}
);
note = integraltp;
unicode = 2320;
},
{
glyphname = integralbt;
lastChange = "2025-02-05 21:33:40 +0000";
layers = (
{
layerId = "E3E67A92-B1FB-4433-B88A-D288516649AC";
paths = (
{
closed = 1;
nodes = (
"546 -334 LINE SMOOTH",
"546 -419 OFFCURVE",
"542 -469 OFFCURVE",
"535 -486 CURVE SMOOTH",
"527 -503 OFFCURVE",
"513 -512 OFFCURVE",
"494 -512 CURVE SMOOTH",
"483 -512 OFFCURVE",
"468 -500 OFFCURVE",
"447 -475 CURVE SMOOTH",
"426 -448 OFFCURVE",
"413 -433 OFFCURVE",
"406 -430 CURVE",
"389 -419 OFFCURVE",
"369 -414 OFFCURVE",
"347 -414 CURVE SMOOTH",
"299 -414 OFFCURVE",
"261 -454 OFFCURVE",
"261 -506 CURVE SMOOTH",
"261 -569 OFFCURVE",
"319 -614 OFFCURVE",
"398 -614 CURVE SMOOTH",
"574 -614 OFFCURVE",
"693 -434 OFFCURVE",
"693 -174 CURVE SMOOTH",
"693 1706 LINE",
"546 1706 LINE"
);
}
);
width = 1237;
}
);
note = integralbt;
unicode = 2321;
},
{
glyphname = uni2500;
lastChange = "2025-02-05 21:33:40 +0000";
layers = (
{
layerId = "E3E67A92-B1FB-4433-B88A-D288516649AC";
paths = (
{
closed = 1;
nodes = (
"1461 549 LINE",
"1461 694 LINE",
"-10 694 LINE",
"-10 549 LINE"
);
}
);
width = 1451;
}
);
note = uni2500;
unicode = 2500;
},
{
glyphname = uni2502;
lastChange = "2025-02-05 21:33:40 +0000";
layers = (
{
layerId = "E3E67A92-B1FB-4433-B88A-D288516649AC";
paths = (
{
closed = 1;
nodes = (
"653 -621 LINE",
"798 -621 LINE",
"798 1864 LINE",
"653 1864 LINE"
);
}
);
width = 1451;
}
);
note = uni2502;
unicode = 2502;
},
{
glyphname = uni250C;
lastChange = "2025-02-05 21:33:40 +0000";
layers = (
{
layerId = "E3E67A92-B1FB-4433-B88A-D288516649AC";
paths = (
{
closed = 1;
nodes = (
"653 -621 LINE",
"798 -621 LINE",
"798 549 LINE",
"1461 549 LINE",
"1461 694 LINE",
"653 694 LINE"
);
}
);
width = 1451;
}
);
note = uni250C;
unicode = 250C;
},
{
glyphname = uni2510;
lastChange = "2025-02-05 21:33:40 +0000";
layers = (
{
layerId = "E3E67A92-B1FB-4433-B88A-D288516649AC";
paths = (
{
closed = 1;
nodes = (
"653 549 LINE",
"653 -621 LINE",
"798 -621 LINE",
"798 694 LINE",
"-10 694 LINE",
"-10 549 LINE"
);
}
);
width = 1451;
}
);
note = uni2510;
unicode = 2510;
},
{
glyphname = uni2514;
lastChange = "2025-02-05 21:33:40 +0000";
layers = (
{
layerId = "E3E67A92-B1FB-4433-B88A-D288516649AC";
paths = (
{
closed = 1;
nodes = (
"653 549 LINE",
"1461 549 LINE",
"1461 694 LINE",
"798 694 LINE",
"798 1864 LINE",
"653 1864 LINE"
);
}
);
width = 1451;
}
);
note = uni2514;
unicode = 2514;
},
{
glyphname = uni2518;
lastChange = "2025-02-05 21:33:40 +0000";
layers = (
{
layerId = "E3E67A92-B1FB-4433-B88A-D288516649AC";
paths = (
{
closed = 1;
nodes = (
"798 549 LINE",
"798 1864 LINE",
"653 1864 LINE",
"653 694 LINE",
"-10 694 LINE",
"-10 549 LINE"
);
}
);
width = 1451;
}
);
note = uni2518;
unicode = 2518;
},
{
glyphname = uni251C;
lastChange = "2025-02-05 21:33:40 +0000";
layers = (
{
layerId = "E3E67A92-B1FB-4433-B88A-D288516649AC";
paths = (
{
closed = 1;
nodes = (
"653 -621 LINE",
"798 -621 LINE",
"798 549 LINE",
"1461 549 LINE",
"1461 694 LINE",
"798 694 LINE",
"798 1864 LINE",
"653 1864 LINE"
);
}
);
width = 1451;
}
);
note = uni251C;
unicode = 251C;
},
{
glyphname = uni2524;
lastChange = "2025-02-05 21:33:40 +0000";
layers = (
{
layerId = "E3E67A92-B1FB-4433-B88A-D288516649AC";
paths = (
{
closed = 1;
nodes = (
"653 549 LINE",
"653 -621 LINE",
"798 -621 LINE",
"798 1864 LINE",
"653 1864 LINE",
"653 694 LINE",
"-10 694 LINE",
"-10 549 LINE"
);
}
);
width = 1451;
}
);
note = uni2524;
unicode = 2524;
},
{
glyphname = uni252C;
lastChange = "2025-02-05 21:33:40 +0000";
layers = (
{
layerId = "E3E67A92-B1FB-4433-B88A-D288516649AC";
paths = (
{
closed = 1;
nodes = (
"653 549 LINE",
"653 -621 LINE",
"798 -621 LINE",
"798 549 LINE",
"1461 549 LINE",
"1461 694 LINE",
"-10 694 LINE",
"-10 549 LINE"
);
}
);
width = 1451;
}
);
note = uni252C;
unicode = 252C;
},
{
glyphname = uni2534;
lastChange = "2025-02-05 21:33:40 +0000";
layers = (
{
layerId = "E3E67A92-B1FB-4433-B88A-D288516649AC";
paths = (
{
closed = 1;
nodes = (
"1461 549 LINE",
"1461 694 LINE",
"798 694 LINE",
"798 1864 LINE",
"653 1864 LINE",
"653 694 LINE",
"-10 694 LINE",
"-10 549 LINE"
);
}
);
width = 1451;
}
);
note = uni2534;
unicode = 2534;
},
{
glyphname = uni253C;
lastChange = "2025-02-05 21:33:40 +0000";
layers = (
{
layerId = "E3E67A92-B1FB-4433-B88A-D288516649AC";
paths = (
{
closed = 1;
nodes = (
"653 549 LINE",
"653 -621 LINE",
"798 -621 LINE",
"798 549 LINE",
"1461 549 LINE",
"1461 694 LINE",
"798 694 LINE",
"798 1864 LINE",
"653 1864 LINE",
"653 694 LINE",
"-10 694 LINE",
"-10 549 LINE"
);
}
);
width = 1451;
}
);
note = uni253C;
unicode = 253C;
},
{
glyphname = uni2550;
lastChange = "2025-02-05 21:33:40 +0000";
layers = (
{
layerId = "E3E67A92-B1FB-4433-B88A-D288516649AC";
paths = (
{
closed = 1;
nodes = (
"1461 729 LINE",
"1461 874 LINE",
"-10 874 LINE",
"-10 729 LINE"
);
},
{
closed = 1;
nodes = (
"1461 369 LINE",
"1461 514 LINE",
"-10 514 LINE",
"-10 369 LINE"
);
}
);
width = 1451;
}
);
note = uni2550;
unicode = 2550;
},
{
glyphname = uni2551;
lastChange = "2025-02-05 21:33:40 +0000";
layers = (
{
layerId = "E3E67A92-B1FB-4433-B88A-D288516649AC";
paths = (
{
closed = 1;
nodes = (
"473 -621 LINE",
"618 -621 LINE",
"618 1864 LINE",
"473 1864 LINE"
);
},
{
closed = 1;
nodes = (
"833 -621 LINE",
"978 -621 LINE",
"978 1864 LINE",
"833 1864 LINE"
);
}
);
width = 1451;
}
);
note = uni2551;
unicode = 2551;
},
{
glyphname = uni2552;
lastChange = "2025-02-05 21:33:40 +0000";
layers = (
{
layerId = "E3E67A92-B1FB-4433-B88A-D288516649AC";
paths = (
{
closed = 1;
nodes = (
"653 -621 LINE",
"798 -621 LINE",
"798 369 LINE",
"1461 369 LINE",
"1461 514 LINE",
"798 514 LINE",
"798 729 LINE",
"1461 729 LINE",
"1461 874 LINE",
"653 874 LINE"
);
}
);
width = 1451;
}
);
note = uni2552;
unicode = 2552;
},
{
glyphname = uni2553;
lastChange = "2025-02-05 21:33:40 +0000";
layers = (
{
layerId = "E3E67A92-B1FB-4433-B88A-D288516649AC";
paths = (
{
closed = 1;
nodes = (
"473 694 LINE",
"473 -621 LINE",
"618 -621 LINE",
"618 549 LINE",
"833 549 LINE",
"833 -621 LINE",
"978 -621 LINE",
"978 549 LINE",
"1461 549 LINE",
"1461 694 LINE"
);
}
);
width = 1451;
}
);
note = uni2553;
unicode = 2553;
},
{
glyphname = uni2554;
lastChange = "2025-02-05 21:33:40 +0000";
layers = (
{
layerId = "E3E67A92-B1FB-4433-B88A-D288516649AC";
paths = (
{
closed = 1;
nodes = (
"473 -621 LINE",
"618 -621 LINE",
"618 729 LINE",
"1461 729 LINE",
"1461 874 LINE",
"473 874 LINE"
);
},
{
closed = 1;
nodes = (
"833 -621 LINE",
"978 -621 LINE",
"978 369 LINE",
"1461 369 LINE",
"1461 514 LINE",
"833 514 LINE"
);
}
);
width = 1451;
}
);
note = uni2554;
unicode = 2554;
},
{
glyphname = uni2555;
lastChange = "2025-02-05 21:33:40 +0000";
layers = (
{
layerId = "E3E67A92-B1FB-4433-B88A-D288516649AC";
paths = (
{
closed = 1;
nodes = (
"653 369 LINE",
"653 -621 LINE",
"798 -621 LINE",
"798 874 LINE",
"-10 874 LINE",
"-10 729 LINE",
"653 729 LINE",
"653 514 LINE",
"-10 514 LINE",
"-10 369 LINE"
);
}
);
width = 1451;
}
);
note = uni2555;
unicode = 2555;
},
{
glyphname = uni2556;
lastChange = "2025-02-05 21:33:40 +0000";
layers = (
{
layerId = "E3E67A92-B1FB-4433-B88A-D288516649AC";
paths = (
{
closed = 1;
nodes = (
"473 549 LINE",
"473 -621 LINE",
"618 -621 LINE",
"618 549 LINE",
"833 549 LINE",
"833 -621 LINE",
"978 -621 LINE",
"978 694 LINE",
"-10 694 LINE",
"-10 549 LINE"
);
}
);
width = 1451;
}
);
note = uni2556;
unicode = 2556;
},
{
glyphname = uni2557;
lastChange = "2025-02-05 21:33:40 +0000";
layers = (
{
layerId = "E3E67A92-B1FB-4433-B88A-D288516649AC";
paths = (
{
closed = 1;
nodes = (
"-10 874 LINE",
"-10 729 LINE",
"833 729 LINE",
"833 -621 LINE",
"978 -621 LINE",
"978 874 LINE"
);
},
{
closed = 1;
nodes = (
"618 514 LINE",
"-10 514 LINE",
"-10 369 LINE",
"473 369 LINE",
"473 -621 LINE",
"618 -621 LINE"
);
}
);
width = 1451;
}
);
note = uni2557;
unicode = 2557;
},
{
glyphname = uni2558;
lastChange = "2025-02-05 21:33:40 +0000";
layers = (
{
layerId = "E3E67A92-B1FB-4433-B88A-D288516649AC";
paths = (
{
closed = 1;
nodes = (
"653 369 LINE",
"1461 369 LINE",
"1461 514 LINE",
"798 514 LINE",
"798 729 LINE",
"1461 729 LINE",
"1461 874 LINE",
"798 874 LINE",
"798 1864 LINE",
"653 1864 LINE"
);
}
);
width = 1451;
}
);
note = uni2558;
unicode = 2558;
},
{
glyphname = uni2559;
lastChange = "2025-02-05 21:33:40 +0000";
layers = (
{
layerId = "E3E67A92-B1FB-4433-B88A-D288516649AC";
paths = (
{
closed = 1;
nodes = (
"833 694 LINE",
"618 694 LINE",
"618 1864 LINE",
"473 1864 LINE",
"473 549 LINE",
"1461 549 LINE",
"1461 694 LINE",
"978 694 LINE",
"978 1864 LINE",
"833 1864 LINE"
);
}
);
width = 1451;
}
);
note = uni2559;
unicode = 2559;
},
{
glyphname = uni255A;
lastChange = "2025-02-05 21:33:40 +0000";
layers = (
{
layerId = "E3E67A92-B1FB-4433-B88A-D288516649AC";
paths = (
{
closed = 1;
nodes = (
"473 369 LINE",
"1461 369 LINE",
"1461 514 LINE",
"618 514 LINE",
"618 1864 LINE",
"473 1864 LINE"
);
},
{
closed = 1;
nodes = (
"833 729 LINE",
"1461 729 LINE",
"1461 874 LINE",
"978 874 LINE",
"978 1864 LINE",
"833 1864 LINE"
);
}
);
width = 1451;
}
);
note = uni255A;
unicode = 255A;
},
{
glyphname = uni255B;
lastChange = "2025-02-05 21:33:40 +0000";
layers = (
{
layerId = "E3E67A92-B1FB-4433-B88A-D288516649AC";
paths = (
{
closed = 1;
nodes = (
"798 369 LINE",
"798 1864 LINE",
"653 1864 LINE",
"653 874 LINE",
"-10 874 LINE",
"-10 729 LINE",
"653 729 LINE",
"653 514 LINE",
"-10 514 LINE",
"-10 369 LINE"
);
}
);
width = 1451;
}
);
note = uni255B;
unicode = 255B;
},
{
glyphname = uni255C;
lastChange = "2025-02-05 21:33:40 +0000";
layers = (
{
layerId = "E3E67A92-B1FB-4433-B88A-D288516649AC";
paths = (
{
closed = 1;
nodes = (
"978 1864 LINE",
"833 1864 LINE",
"833 694 LINE",
"618 694 LINE",
"618 1864 LINE",
"473 1864 LINE",
"473 694 LINE",
"-10 694 LINE",
"-10 549 LINE",
"978 549 LINE"
);
}
);
width = 1451;
}
);
note = uni255C;
unicode = 255C;
},
{
glyphname = uni255D;
lastChange = "2025-02-05 21:33:40 +0000";
layers = (
{
layerId = "E3E67A92-B1FB-4433-B88A-D288516649AC";
paths = (
{
closed = 1;
nodes = (
"978 1864 LINE",
"833 1864 LINE",
"833 514 LINE",
"-10 514 LINE",
"-10 369 LINE",
"978 369 LINE"
);
},
{
closed = 1;
nodes = (
"473 874 LINE",
"-10 874 LINE",
"-10 729 LINE",
"618 729 LINE",
"618 1864 LINE",
"473 1864 LINE"
);
}
);
width = 1451;
}
);
note = uni255D;
unicode = 255D;
},
{
glyphname = uni255E;
lastChange = "2025-02-05 21:33:40 +0000";
layers = (
{
layerId = "E3E67A92-B1FB-4433-B88A-D288516649AC";
paths = (
{
closed = 1;
nodes = (
"653 -621 LINE",
"798 -621 LINE",
"798 369 LINE",
"1461 369 LINE",
"1461 514 LINE",
"798 514 LINE",
"798 729 LINE",
"1461 729 LINE",
"1461 874 LINE",
"798 874 LINE",
"798 1864 LINE",
"653 1864 LINE"
);
}
);
width = 1451;
}
);
note = uni255E;
unicode = 255E;
},
{
glyphname = uni255F;
lastChange = "2025-02-05 21:33:40 +0000";
layers = (
{
layerId = "E3E67A92-B1FB-4433-B88A-D288516649AC";
paths = (
{
closed = 1;
nodes = (
"833 -621 LINE",
"978 -621 LINE",
"978 549 LINE",
"1461 549 LINE",
"1461 694 LINE",
"978 694 LINE",
"978 1864 LINE",
"833 1864 LINE"
);
},
{
closed = 1;
nodes = (
"473 -621 LINE",
"618 -621 LINE",
"618 1864 LINE",
"473 1864 LINE"
);
}
);
width = 1451;
}
);
note = uni255F;
unicode = 255F;
},
{
glyphname = uni2560;
lastChange = "2025-02-05 21:33:40 +0000";
layers = (
{
layerId = "E3E67A92-B1FB-4433-B88A-D288516649AC";
paths = (
{
closed = 1;
nodes = (
"618 1864 LINE",
"473 1864 LINE",
"473 -621 LINE",
"618 -621 LINE"
);
},
{
closed = 1;
nodes = (
"833 -621 LINE",
"978 -621 LINE",
"978 369 LINE",
"1461 369 LINE",
"1461 514 LINE",
"833 514 LINE"
);
},
{
closed = 1;
nodes = (
"833 729 LINE",
"1461 729 LINE",
"1461 874 LINE",
"978 874 LINE",
"978 1864 LINE",
"833 1864 LINE"
);
}
);
width = 1451;
}
);
note = uni2560;
unicode = 2560;
},
{
glyphname = uni2561;
lastChange = "2025-02-05 21:33:40 +0000";
layers = (
{
layerId = "E3E67A92-B1FB-4433-B88A-D288516649AC";
paths = (
{
closed = 1;
nodes = (
"653 369 LINE",
"653 -621 LINE",
"798 -621 LINE",
"798 1864 LINE",
"653 1864 LINE",
"653 874 LINE",
"-10 874 LINE",
"-10 729 LINE",
"653 729 LINE",
"653 514 LINE",
"-10 514 LINE",
"-10 369 LINE"
);
}
);
width = 1451;
}
);
note = uni2561;
unicode = 2561;
},
{
glyphname = uni2562;
lastChange = "2025-02-05 21:33:40 +0000";
layers = (
{
layerId = "E3E67A92-B1FB-4433-B88A-D288516649AC";
paths = (
{
closed = 1;
nodes = (
"473 549 LINE",
"473 -621 LINE",
"618 -621 LINE",
"618 1864 LINE",
"473 1864 LINE",
"473 694 LINE",
"-10 694 LINE",
"-10 549 LINE"
);
},
{
closed = 1;
nodes = (
"833 -621 LINE",
"978 -621 LINE",
"978 1864 LINE",
"833 1864 LINE"
);
}
);
width = 1451;
}
);
note = uni2562;
unicode = 2562;
},
{
glyphname = uni2563;
lastChange = "2025-02-05 21:33:40 +0000";
layers = (
{
layerId = "E3E67A92-B1FB-4433-B88A-D288516649AC";
paths = (
{
closed = 1;
nodes = (
"833 -621 LINE",
"978 -621 LINE",
"978 1864 LINE",
"833 1864 LINE"
);
},
{
closed = 1;
nodes = (
"473 874 LINE",
"-10 874 LINE",
"-10 729 LINE",
"618 729 LINE",
"618 1864 LINE",
"473 1864 LINE"
);
},
{
closed = 1;
nodes = (
"618 514 LINE",
"-10 514 LINE",
"-10 369 LINE",
"473 369 LINE",
"473 -621 LINE",
"618 -621 LINE"
);
}
);
width = 1451;
}
);
note = uni2563;
unicode = 2563;
},
{
glyphname = uni2564;
lastChange = "2025-02-05 21:33:40 +0000";
layers = (
{
layerId = "E3E67A92-B1FB-4433-B88A-D288516649AC";
paths = (
{
closed = 1;
nodes = (
"653 369 LINE",
"653 -621 LINE",
"798 -621 LINE",
"798 369 LINE",
"1461 369 LINE",
"1461 514 LINE",
"-10 514 LINE",
"-10 369 LINE"
);
},
{
closed = 1;
nodes = (
"1461 729 LINE",
"1461 874 LINE",
"-10 874 LINE",
"-10 729 LINE"
);
}
);
width = 1451;
}
);
note = uni2564;
unicode = 2564;
},
{
glyphname = uni2565;
lastChange = "2025-02-05 21:33:40 +0000";
layers = (
{
layerId = "E3E67A92-B1FB-4433-B88A-D288516649AC";
paths = (
{
closed = 1;
nodes = (
"473 549 LINE",
"473 -621 LINE",
"618 -621 LINE",
"618 549 LINE",
"833 549 LINE",
"833 -621 LINE",
"978 -621 LINE",
"978 549 LINE",
"1461 549 LINE",
"1461 694 LINE",
"-10 694 LINE",
"-10 549 LINE"
);
}
);
width = 1451;
}
);
note = uni2565;
unicode = 2565;
},
{
glyphname = uni2566;
lastChange = "2025-02-05 21:33:40 +0000";
layers = (
{
layerId = "E3E67A92-B1FB-4433-B88A-D288516649AC";
paths = (
{
closed = 1;
nodes = (
"618 514 LINE",
"-10 514 LINE",
"-10 369 LINE",
"473 369 LINE",
"473 -621 LINE",
"618 -621 LINE"
);
},
{
closed = 1;
nodes = (
"833 -621 LINE",
"978 -621 LINE",
"978 369 LINE",
"1461 369 LINE",
"1461 514 LINE",
"833 514 LINE"
);
},
{
closed = 1;
nodes = (
"-10 874 LINE",
"-10 729 LINE",
"1461 729 LINE",
"1461 874 LINE"
);
}
);
width = 1451;
}
);
note = uni2566;
unicode = 2566;
},
{
glyphname = uni2567;
lastChange = "2025-02-05 21:33:40 +0000";
layers = (
{
layerId = "E3E67A92-B1FB-4433-B88A-D288516649AC";
paths = (
{
closed = 1;
nodes = (
"1461 729 LINE",
"1461 874 LINE",
"798 874 LINE",
"798 1864 LINE",
"653 1864 LINE",
"653 874 LINE",
"-10 874 LINE",
"-10 729 LINE"
);
},
{
closed = 1;
nodes = (
"1461 369 LINE",
"1461 514 LINE",
"-10 514 LINE",
"-10 369 LINE"
);
}
);
width = 1451;
}
);
note = uni2567;
unicode = 2567;
},
{
glyphname = uni2568;
lastChange = "2025-02-05 21:33:40 +0000";
layers = (
{
layerId = "E3E67A92-B1FB-4433-B88A-D288516649AC";
paths = (
{
closed = 1;
nodes = (
"1461 549 LINE",
"1461 694 LINE",
"978 694 LINE",
"978 1864 LINE",
"833 1864 LINE",
"833 694 LINE",
"618 694 LINE",
"618 1864 LINE",
"473 1864 LINE",
"473 694 LINE",
"-10 694 LINE",
"-10 549 LINE"
);
}
);
width = 1451;
}
);
note = uni2568;
unicode = 2568;
},
{
glyphname = uni2569;
lastChange = "2025-02-05 21:33:40 +0000";
layers = (
{
layerId = "E3E67A92-B1FB-4433-B88A-D288516649AC";
paths = (
{
closed = 1;
nodes = (
"833 729 LINE",
"1461 729 LINE",
"1461 874 LINE",
"978 874 LINE",
"978 1864 LINE",
"833 1864 LINE"
);
},
{
closed = 1;
nodes = (
"473 874 LINE",
"-10 874 LINE",
"-10 729 LINE",
"618 729 LINE",
"618 1864 LINE",
"473 1864 LINE"
);
},
{
closed = 1;
nodes = (
"1461 369 LINE",
"1461 514 LINE",
"-10 514 LINE",
"-10 369 LINE"
);
}
);
width = 1451;
}
);
note = uni2569;
unicode = 2569;
},
{
glyphname = uni256A;
lastChange = "2025-02-05 21:33:40 +0000";
layers = (
{
layerId = "E3E67A92-B1FB-4433-B88A-D288516649AC";
paths = (
{
closed = 1;
nodes = (
"653 369 LINE",
"653 -621 LINE",
"798 -621 LINE",
"798 369 LINE",
"1461 369 LINE",
"1461 514 LINE",
"798 514 LINE",
"798 729 LINE",
"1461 729 LINE",
"1461 874 LINE",
"798 874 LINE",
"798 1864 LINE",
"653 1864 LINE",
"653 874 LINE",
"-10 874 LINE",
"-10 729 LINE",
"653 729 LINE",
"653 514 LINE",
"-10 514 LINE",
"-10 369 LINE"
);
}
);
width = 1451;
}
);
note = uni256A;
unicode = 256A;
},
{
glyphname = uni256B;
lastChange = "2025-02-05 21:33:40 +0000";
layers = (
{
layerId = "E3E67A92-B1FB-4433-B88A-D288516649AC";
paths = (
{
closed = 1;
nodes = (
"833 694 LINE",
"618 694 LINE",
"618 1864 LINE",
"473 1864 LINE",
"473 694 LINE",
"-10 694 LINE",
"-10 549 LINE",
"473 549 LINE",
"473 -621 LINE",
"618 -621 LINE",
"618 549 LINE",
"833 549 LINE",
"833 -621 LINE",
"978 -621 LINE",
"978 549 LINE",
"1461 549 LINE",
"1461 694 LINE",
"978 694 LINE",
"978 1864 LINE",
"833 1864 LINE"
);
}
);
width = 1451;
}
);
note = uni256B;
unicode = 256B;
},
{
glyphname = uni256C;
lastChange = "2025-02-05 21:33:40 +0000";
layers = (
{
layerId = "E3E67A92-B1FB-4433-B88A-D288516649AC";
paths = (
{
closed = 1;
nodes = (
"833 729 LINE",
"1461 729 LINE",
"1461 874 LINE",
"978 874 LINE",
"978 1864 LINE",
"833 1864 LINE"
);
},
{
closed = 1;
nodes = (
"618 514 LINE",
"-10 514 LINE",
"-10 369 LINE",
"473 369 LINE",
"473 -621 LINE",
"618 -621 LINE"
);
},
{
closed = 1;
nodes = (
"833 -621 LINE",
"978 -621 LINE",
"978 369 LINE",
"1461 369 LINE",
"1461 514 LINE",
"833 514 LINE"
);
},
{
closed = 1;
nodes = (
"473 874 LINE",
"-10 874 LINE",
"-10 729 LINE",
"618 729 LINE",
"618 1864 LINE",
"473 1864 LINE"
);
}
);
width = 1451;
}
);
note = uni256C;
unicode = 256C;
},
{
glyphname = upblock;
lastChange = "2025-02-05 21:33:40 +0000";
layers = (
{
layerId = "E3E67A92-B1FB-4433-B88A-D288516649AC";
paths = (
{
closed = 1;
nodes = (
"1451 1864 LINE",
"0 1864 LINE",
"0 621 LINE",
"1451 621 LINE"
);
}
);
width = 1451;
}
);
note = upblock;
unicode = 2580;
},
{
glyphname = dnblock;
lastChange = "2025-02-05 21:33:40 +0000";
layers = (
{
layerId = "E3E67A92-B1FB-4433-B88A-D288516649AC";
paths = (
{
closed = 1;
nodes = (
"1451 621 LINE",
"0 621 LINE",
"0 -621 LINE",
"1451 -621 LINE"
);
}
);
width = 1451;
}
);
note = dnblock;
unicode = 2584;
},
{
glyphname = block;
lastChange = "2025-02-05 21:33:40 +0000";
layers = (
{
layerId = "E3E67A92-B1FB-4433-B88A-D288516649AC";
paths = (
{
closed = 1;
nodes = (
"1451 1864 LINE",
"0 1864 LINE",
"0 -621 LINE",
"1451 -621 LINE"
);
}
);
width = 1451;
}
);
note = block;
unicode = 2588;
},
{
glyphname = lfblock;
lastChange = "2025-02-05 21:33:40 +0000";
layers = (
{
layerId = "E3E67A92-B1FB-4433-B88A-D288516649AC";
paths = (
{
closed = 1;
nodes = (
"726 1864 LINE",
"0 1864 LINE",
"0 -621 LINE",
"726 -621 LINE"
);
}
);
width = 1451;
}
);
note = lfblock;
unicode = 258C;
},
{
glyphname = rtblock;
lastChange = "2025-02-05 21:33:40 +0000";
layers = (
{
layerId = "E3E67A92-B1FB-4433-B88A-D288516649AC";
paths = (
{
closed = 1;
nodes = (
"1451 1864 LINE",
"725 1864 LINE",
"725 -621 LINE",
"1451 -621 LINE"
);
}
);
width = 1451;
}
);
note = rtblock;
unicode = 2590;
},
{
glyphname = ltshade;
lastChange = "2025-02-05 21:33:40 +0000";
layers = (
{
layerId = "E3E67A92-B1FB-4433-B88A-D288516649AC";
paths = (
{
closed = 1;
nodes = (
"103 1216 LINE",
"207 1216 LINE",
"207 1314 LINE",
"103 1314 LINE"
);
},
{
closed = 1;
nodes = (
"517 1216 LINE",
"621 1216 LINE",
"621 1314 LINE",
"517 1314 LINE"
);
},
{
closed = 1;
nodes = (
"933 1216 LINE",
"1036 1216 LINE",
"1036 1314 LINE",
"933 1314 LINE"
);
},
{
closed = 1;
nodes = (
"310 1023 LINE",
"414 1023 LINE",
"414 1119 LINE",
"310 1119 LINE"
);
},
{
closed = 1;
nodes = (
"725 1023 LINE",
"829 1023 LINE",
"829 1119 LINE",
"725 1119 LINE"
);
},
{
closed = 1;
nodes = (
"1140 1023 LINE",
"1244 1023 LINE",
"1244 1119 LINE",
"1140 1119 LINE"
);
},
{
closed = 1;
nodes = (
"933 831 LINE",
"1036 831 LINE",
"1036 927 LINE",
"933 927 LINE"
);
},
{
closed = 1;
nodes = (
"517 831 LINE",
"621 831 LINE",
"621 927 LINE",
"517 927 LINE"
);
},
{
closed = 1;
nodes = (
"103 831 LINE",
"207 831 LINE",
"207 927 LINE",
"103 927 LINE"
);
},
{
closed = 1;
nodes = (
"1140 636 LINE",
"1244 636 LINE",
"1244 732 LINE",
"1140 732 LINE"
);
},
{
closed = 1;
nodes = (
"725 636 LINE",
"829 636 LINE",
"829 732 LINE",
"725 732 LINE"
);
},
{
closed = 1;
nodes = (
"310 636 LINE",
"414 636 LINE",
"414 732 LINE",
"310 732 LINE"
);
},
{
closed = 1;
nodes = (
"103 444 LINE",
"207 444 LINE",
"207 540 LINE",
"103 540 LINE"
);
},
{
closed = 1;
nodes = (
"517 444 LINE",
"621 444 LINE",
"621 540 LINE",
"517 540 LINE"
);
},
{
closed = 1;
nodes = (
"933 444 LINE",
"1036 444 LINE",
"1036 540 LINE",
"933 540 LINE"
);
},
{
closed = 1;
nodes = (
"1140 249 LINE",
"1244 249 LINE",
"1244 345 LINE",
"1140 345 LINE"
);
},
{
closed = 1;
nodes = (
"725 249 LINE",
"829 249 LINE",
"829 345 LINE",
"725 345 LINE"
);
},
{
closed = 1;
nodes = (
"310 249 LINE",
"414 249 LINE",
"414 345 LINE",
"310 345 LINE"
);
},
{
closed = 1;
nodes = (
"103 56 LINE",
"207 56 LINE",
"207 153 LINE",
"103 153 LINE"
);
},
{
closed = 1;
nodes = (
"517 56 LINE",
"621 56 LINE",
"621 153 LINE",
"517 153 LINE"
);
},
{
closed = 1;
nodes = (
"933 56 LINE",
"1036 56 LINE",
"1036 153 LINE",
"933 153 LINE"
);
},
{
closed = 1;
nodes = (
"310 -136 LINE",
"414 -136 LINE",
"414 -42 LINE",
"310 -42 LINE"
);
},
{
closed = 1;
nodes = (
"725 -136 LINE",
"829 -136 LINE",
"829 -42 LINE",
"725 -42 LINE"
);
},
{
closed = 1;
nodes = (
"1140 -136 LINE",
"1244 -136 LINE",
"1244 -42 LINE",
"1140 -42 LINE"
);
},
{
closed = 1;
nodes = (
"933 -331 LINE",
"1036 -331 LINE",
"1036 -234 LINE",
"933 -234 LINE"
);
},
{
closed = 1;
nodes = (
"517 -331 LINE",
"621 -331 LINE",
"621 -234 LINE",
"517 -234 LINE"
);
},
{
closed = 1;
nodes = (
"103 -331 LINE",
"207 -331 LINE",
"207 -234 LINE",
"103 -234 LINE"
);
},
{
closed = 1;
nodes = (
"310 -523 LINE",
"414 -523 LINE",
"414 -427 LINE",
"310 -427 LINE"
);
},
{
closed = 1;
nodes = (
"725 -523 LINE",
"829 -523 LINE",
"829 -427 LINE",
"725 -427 LINE"
);
},
{
closed = 1;
nodes = (
"1140 -523 LINE",
"1244 -523 LINE",
"1244 -427 LINE",
"1140 -427 LINE"
);
},
{
closed = 1;
nodes = (
"310 1408 LINE",
"414 1408 LINE",
"414 1506 LINE",
"310 1506 LINE"
);
},
{
closed = 1;
nodes = (
"725 1408 LINE",
"829 1408 LINE",
"829 1506 LINE",
"725 1506 LINE"
);
},
{
closed = 1;
nodes = (
"1140 1408 LINE",
"1244 1408 LINE",
"1244 1506 LINE",
"1140 1506 LINE"
);
},
{
closed = 1;
nodes = (
"103 1603 LINE",
"207 1603 LINE",
"207 1699 LINE",
"103 1699 LINE"
);
},
{
closed = 1;
nodes = (
"517 1603 LINE",
"621 1603 LINE",
"621 1699 LINE",
"517 1699 LINE"
);
},
{
closed = 1;
nodes = (
"933 1603 LINE",
"1036 1603 LINE",
"1036 1699 LINE",
"933 1699 LINE"
);
},
{
closed = 1;
nodes = (
"1347 1216 LINE",
"1451 1216 LINE",
"1451 1314 LINE",
"1347 1314 LINE"
);
},
{
closed = 1;
nodes = (
"1347 831 LINE",
"1451 831 LINE",
"1451 927 LINE",
"1347 927 LINE"
);
},
{
closed = 1;
nodes = (
"1347 444 LINE",
"1451 444 LINE",
"1451 540 LINE",
"1347 540 LINE"
);
},
{
closed = 1;
nodes = (
"1347 56 LINE",
"1451 56 LINE",
"1451 153 LINE",
"1347 153 LINE"
);
},
{
closed = 1;
nodes = (
"1347 -331 LINE",
"1451 -331 LINE",
"1451 -234 LINE",
"1347 -234 LINE"
);
},
{
closed = 1;
nodes = (
"1347 1603 LINE",
"1451 1603 LINE",
"1451 1699 LINE",
"1347 1699 LINE"
);
}
);
width = 1451;
}
);
note = ltshade;
unicode = 2591;
},
{
glyphname = shade;
lastChange = "2025-02-05 21:33:40 +0000";
layers = (
{
layerId = "E3E67A92-B1FB-4433-B88A-D288516649AC";
paths = (
{
closed = 1;
nodes = (
"103 1216 LINE",
"207 1216 LINE",
"207 1314 LINE",
"103 1314 LINE"
);
},
{
closed = 1;
nodes = (
"310 1216 LINE",
"414 1216 LINE",
"414 1314 LINE",
"310 1314 LINE"
);
},
{
closed = 1;
nodes = (
"517 1216 LINE",
"621 1216 LINE",
"621 1314 LINE",
"517 1314 LINE"
);
},
{
closed = 1;
nodes = (
"725 1216 LINE",
"829 1216 LINE",
"829 1314 LINE",
"725 1314 LINE"
);
},
{
closed = 1;
nodes = (
"933 1216 LINE",
"1037 1216 LINE",
"1037 1314 LINE",
"933 1314 LINE"
);
},
{
closed = 1;
nodes = (
"1140 1216 LINE",
"1244 1216 LINE",
"1244 1314 LINE",
"1140 1314 LINE"
);
},
{
closed = 1;
nodes = (
"0 1023 LINE",
"103 1023 LINE",
"103 1119 LINE",
"0 1119 LINE"
);
},
{
closed = 1;
nodes = (
"207 1023 LINE",
"310 1023 LINE",
"310 1119 LINE",
"207 1119 LINE"
);
},
{
closed = 1;
nodes = (
"414 1023 LINE",
"517 1023 LINE",
"517 1119 LINE",
"414 1119 LINE"
);
},
{
closed = 1;
nodes = (
"621 1023 LINE",
"725 1023 LINE",
"725 1119 LINE",
"621 1119 LINE"
);
},
{
closed = 1;
nodes = (
"829 1023 LINE",
"933 1023 LINE",
"933 1119 LINE",
"829 1119 LINE"
);
},
{
closed = 1;
nodes = (
"1037 1023 LINE",
"1140 1023 LINE",
"1140 1119 LINE",
"1037 1119 LINE"
);
},
{
closed = 1;
nodes = (
"103 831 LINE",
"207 831 LINE",
"207 927 LINE",
"103 927 LINE"
);
},
{
closed = 1;
nodes = (
"310 831 LINE",
"414 831 LINE",
"414 927 LINE",
"310 927 LINE"
);
},
{
closed = 1;
nodes = (
"517 831 LINE",
"621 831 LINE",
"621 927 LINE",
"517 927 LINE"
);
},
{
closed = 1;
nodes = (
"725 831 LINE",
"829 831 LINE",
"829 927 LINE",
"725 927 LINE"
);
},
{
closed = 1;
nodes = (
"933 831 LINE",
"1037 831 LINE",
"1037 927 LINE",
"933 927 LINE"
);
},
{
closed = 1;
nodes = (
"1140 831 LINE",
"1244 831 LINE",
"1244 927 LINE",
"1140 927 LINE"
);
},
{
closed = 1;
nodes = (
"0 636 LINE",
"103 636 LINE",
"103 732 LINE",
"0 732 LINE"
);
},
{
closed = 1;
nodes = (
"207 636 LINE",
"310 636 LINE",
"310 732 LINE",
"207 732 LINE"
);
},
{
closed = 1;
nodes = (
"414 636 LINE",
"517 636 LINE",
"517 732 LINE",
"414 732 LINE"
);
},
{
closed = 1;
nodes = (
"621 636 LINE",
"725 636 LINE",
"725 732 LINE",
"621 732 LINE"
);
},
{
closed = 1;
nodes = (
"829 636 LINE",
"933 636 LINE",
"933 732 LINE",
"829 732 LINE"
);
},
{
closed = 1;
nodes = (
"1037 636 LINE",
"1140 636 LINE",
"1140 732 LINE",
"1037 732 LINE"
);
},
{
closed = 1;
nodes = (
"103 444 LINE",
"207 444 LINE",
"207 540 LINE",
"103 540 LINE"
);
},
{
closed = 1;
nodes = (
"310 444 LINE",
"414 444 LINE",
"414 540 LINE",
"310 540 LINE"
);
},
{
closed = 1;
nodes = (
"517 444 LINE",
"621 444 LINE",
"621 540 LINE",
"517 540 LINE"
);
},
{
closed = 1;
nodes = (
"725 444 LINE",
"829 444 LINE",
"829 540 LINE",
"725 540 LINE"
);
},
{
closed = 1;
nodes = (
"933 444 LINE",
"1037 444 LINE",
"1037 540 LINE",
"933 540 LINE"
);
},
{
closed = 1;
nodes = (
"1140 444 LINE",
"1244 444 LINE",
"1244 540 LINE",
"1140 540 LINE"
);
},
{
closed = 1;
nodes = (
"0 249 LINE",
"103 249 LINE",
"103 345 LINE",
"0 345 LINE"
);
},
{
closed = 1;
nodes = (
"414 249 LINE",
"517 249 LINE",
"517 345 LINE",
"414 345 LINE"
);
},
{
closed = 1;
nodes = (
"621 249 LINE",
"725 249 LINE",
"725 345 LINE",
"621 345 LINE"
);
},
{
closed = 1;
nodes = (
"829 249 LINE",
"933 249 LINE",
"933 345 LINE",
"829 345 LINE"
);
},
{
closed = 1;
nodes = (
"1037 249 LINE",
"1140 249 LINE",
"1140 345 LINE",
"1037 345 LINE"
);
},
{
closed = 1;
nodes = (
"207 249 LINE",
"310 249 LINE",
"310 345 LINE",
"207 345 LINE"
);
},
{
closed = 1;
nodes = (
"1140 56 LINE",
"1244 56 LINE",
"1244 153 LINE",
"1140 153 LINE"
);
},
{
closed = 1;
nodes = (
"933 56 LINE",
"1037 56 LINE",
"1037 153 LINE",
"933 153 LINE"
);
},
{
closed = 1;
nodes = (
"725 56 LINE",
"829 56 LINE",
"829 153 LINE",
"725 153 LINE"
);
},
{
closed = 1;
nodes = (
"517 56 LINE",
"621 56 LINE",
"621 153 LINE",
"517 153 LINE"
);
},
{
closed = 1;
nodes = (
"310 56 LINE",
"414 56 LINE",
"414 153 LINE",
"310 153 LINE"
);
},
{
closed = 1;
nodes = (
"103 56 LINE",
"207 56 LINE",
"207 153 LINE",
"103 153 LINE"
);
},
{
closed = 1;
nodes = (
"0 -136 LINE",
"103 -136 LINE",
"103 -42 LINE",
"0 -42 LINE"
);
},
{
closed = 1;
nodes = (
"207 -136 LINE",
"310 -136 LINE",
"310 -42 LINE",
"207 -42 LINE"
);
},
{
closed = 1;
nodes = (
"414 -136 LINE",
"517 -136 LINE",
"517 -42 LINE",
"414 -42 LINE"
);
},
{
closed = 1;
nodes = (
"621 -136 LINE",
"725 -136 LINE",
"725 -42 LINE",
"621 -42 LINE"
);
},
{
closed = 1;
nodes = (
"829 -136 LINE",
"933 -136 LINE",
"933 -42 LINE",
"829 -42 LINE"
);
},
{
closed = 1;
nodes = (
"1037 -136 LINE",
"1140 -136 LINE",
"1140 -42 LINE",
"1037 -42 LINE"
);
},
{
closed = 1;
nodes = (
"1140 -331 LINE",
"1244 -331 LINE",
"1244 -234 LINE",
"1140 -234 LINE"
);
},
{
closed = 1;
nodes = (
"933 -331 LINE",
"1037 -331 LINE",
"1037 -234 LINE",
"933 -234 LINE"
);
},
{
closed = 1;
nodes = (
"725 -331 LINE",
"829 -331 LINE",
"829 -234 LINE",
"725 -234 LINE"
);
},
{
closed = 1;
nodes = (
"517 -331 LINE",
"621 -331 LINE",
"621 -234 LINE",
"517 -234 LINE"
);
},
{
closed = 1;
nodes = (
"310 -331 LINE",
"414 -331 LINE",
"414 -234 LINE",
"310 -234 LINE"
);
},
{
closed = 1;
nodes = (
"103 -331 LINE",
"207 -331 LINE",
"207 -234 LINE",
"103 -234 LINE"
);
},
{
closed = 1;
nodes = (
"0 -523 LINE",
"103 -523 LINE",
"103 -427 LINE",
"0 -427 LINE"
);
},
{
closed = 1;
nodes = (
"207 -523 LINE",
"310 -523 LINE",
"310 -427 LINE",
"207 -427 LINE"
);
},
{
closed = 1;
nodes = (
"414 -523 LINE",
"517 -523 LINE",
"517 -427 LINE",
"414 -427 LINE"
);
},
{
closed = 1;
nodes = (
"621 -523 LINE",
"725 -523 LINE",
"725 -427 LINE",
"621 -427 LINE"
);
},
{
closed = 1;
nodes = (
"829 -523 LINE",
"933 -523 LINE",
"933 -427 LINE",
"829 -427 LINE"
);
},
{
closed = 1;
nodes = (
"1037 -523 LINE",
"1140 -523 LINE",
"1140 -427 LINE",
"1037 -427 LINE"
);
},
{
closed = 1;
nodes = (
"0 1408 LINE",
"103 1408 LINE",
"103 1506 LINE",
"0 1506 LINE"
);
},
{
closed = 1;
nodes = (
"207 1408 LINE",
"310 1408 LINE",
"310 1506 LINE",
"207 1506 LINE"
);
},
{
closed = 1;
nodes = (
"414 1408 LINE",
"517 1408 LINE",
"517 1506 LINE",
"414 1506 LINE"
);
},
{
closed = 1;
nodes = (
"621 1408 LINE",
"725 1408 LINE",
"725 1506 LINE",
"621 1506 LINE"
);
},
{
closed = 1;
nodes = (
"829 1408 LINE",
"933 1408 LINE",
"933 1506 LINE",
"829 1506 LINE"
);
},
{
closed = 1;
nodes = (
"1037 1408 LINE",
"1140 1408 LINE",
"1140 1506 LINE",
"1037 1506 LINE"
);
},
{
closed = 1;
nodes = (
"103 1603 LINE",
"207 1603 LINE",
"207 1699 LINE",
"103 1699 LINE"
);
},
{
closed = 1;
nodes = (
"310 1603 LINE",
"414 1603 LINE",
"414 1699 LINE",
"310 1699 LINE"
);
},
{
closed = 1;
nodes = (
"517 1603 LINE",
"621 1603 LINE",
"621 1699 LINE",
"517 1699 LINE"
);
},
{
closed = 1;
nodes = (
"725 1603 LINE",
"829 1603 LINE",
"829 1699 LINE",
"725 1699 LINE"
);
},
{
closed = 1;
nodes = (
"933 1603 LINE",
"1037 1603 LINE",
"1037 1699 LINE",
"933 1699 LINE"
);
},
{
closed = 1;
nodes = (
"1140 1603 LINE",
"1244 1603 LINE",
"1244 1699 LINE",
"1140 1699 LINE"
);
},
{
closed = 1;
nodes = (
"1347 1216 LINE",
"1451 1216 LINE",
"1451 1314 LINE",
"1347 1314 LINE"
);
},
{
closed = 1;
nodes = (
"1244 1023 LINE",
"1347 1023 LINE",
"1347 1119 LINE",
"1244 1119 LINE"
);
},
{
closed = 1;
nodes = (
"1347 831 LINE",
"1451 831 LINE",
"1451 927 LINE",
"1347 927 LINE"
);
},
{
closed = 1;
nodes = (
"1244 636 LINE",
"1347 636 LINE",
"1347 732 LINE",
"1244 732 LINE"
);
},
{
closed = 1;
nodes = (
"1347 444 LINE",
"1451 444 LINE",
"1451 540 LINE",
"1347 540 LINE"
);
},
{
closed = 1;
nodes = (
"1244 249 LINE",
"1347 249 LINE",
"1347 345 LINE",
"1244 345 LINE"
);
},
{
closed = 1;
nodes = (
"1347 56 LINE",
"1451 56 LINE",
"1451 153 LINE",
"1347 153 LINE"
);
},
{
closed = 1;
nodes = (
"1244 -136 LINE",
"1347 -136 LINE",
"1347 -42 LINE",
"1244 -42 LINE"
);
},
{
closed = 1;
nodes = (
"1347 -331 LINE",
"1451 -331 LINE",
"1451 -234 LINE",
"1347 -234 LINE"
);
},
{
closed = 1;
nodes = (
"1244 -523 LINE",
"1347 -523 LINE",
"1347 -427 LINE",
"1244 -427 LINE"
);
},
{
closed = 1;
nodes = (
"1244 1408 LINE",
"1347 1408 LINE",
"1347 1506 LINE",
"1244 1506 LINE"
);
},
{
closed = 1;
nodes = (
"1347 1603 LINE",
"1451 1603 LINE",
"1451 1699 LINE",
"1347 1699 LINE"
);
}
);
width = 1451;
}
);
note = shade;
unicode = 2592;
},
